<svg xmlns="http://www.w3.org/2000/svg" width="33.433" height="34" viewBox="0 0 33.433 34">
  <g id="cleaning-tools" transform="translate(-2 -2)">
    <path id="Path_22460" data-name="Path 22460" d="M20.267,3.133a1.133,1.133,0,0,0-2.267,0v3.4h2.267Z" transform="translate(-6.933)" fill="#1ae83c"/>
    <path id="Path_22461" data-name="Path 22461" d="M24,23H44.967v1.7H24Z" transform="translate(-9.533 -9.1)" fill="#1ae83c"/>
    <path id="Path_22462" data-name="Path 22462" d="M18,12h2.267V29.567H18Z" transform="translate(-6.933 -4.333)" fill="#1ae83c"/>
    <path id="Path_22463" data-name="Path 22463" d="M21.6,46.133A1.133,1.133,0,0,0,20.467,45H9.133A1.133,1.133,0,0,0,8,46.133V46.7H21.6Z" transform="translate(-2.6 -18.633)" fill="#1ae83c"/>
    <path id="Path_22464" data-name="Path 22464" d="M20.133,52.267v.567a.567.567,0,0,0,.567.567.567.567,0,0,1,0,1.133,1.7,1.7,0,0,1-1.7-1.7V50H5.4v2.833a1.7,1.7,0,0,1-1.7,1.7.567.567,0,1,1,0-1.133.567.567,0,0,0,.567-.567v-.567a2.267,2.267,0,1,0,0,4.533H20.133a2.267,2.267,0,1,0,0-4.533Z" transform="translate(0 -20.8)" fill="#1ae83c"/>
    <path id="Path_22465" data-name="Path 22465" d="M41.786,34.858,42.7,28H24v8.5h3.4a2.269,2.269,0,0,1,2.267,2.267v.009a10.641,10.641,0,0,0,3.4.558A10.75,10.75,0,0,0,41.786,34.858Z" transform="translate(-9.533 -11.267)" fill="#1ae83c"/>
    <path id="Path_22466" data-name="Path 22466" d="M37.4,47.306A11.722,11.722,0,0,1,34,46.8V48.44l.542.047a3.373,3.373,0,0,1,2.807,3.919h7.342l1.15-8.623A11.861,11.861,0,0,1,37.4,47.306Z" transform="translate(-13.867 -18.106)" fill="#1ae83c"/>
    <path id="Path_22467" data-name="Path 22467" d="M58.355,28H57.221v.567a10.694,10.694,0,0,1-2.047,6.29L54.9,36.944a11.86,11.86,0,0,0,3.459-8.377Z" transform="translate(-22.921 -11.267)" fill="#1ae83c"/>
  </g>
</svg>
