<svg xmlns="http://www.w3.org/2000/svg" width="34" height="32.042" viewBox="0 0 34 32.042">
  <g id="bricks" transform="translate(0 -8.551)">
    <path id="Path_22468" data-name="Path 22468" d="M74.11,224.87H62.785a.808.808,0,0,0-.808.808v5.662a.808.808,0,0,0,.808.808H74.11a.808.808,0,0,0,.808-.808v-5.662A.808.808,0,0,0,74.11,224.87Z" transform="translate(-54.882 -191.555)" fill="#e81ab7"/>
    <path id="Path_22469" data-name="Path 22469" d="M196.091,224.87H184.766a.808.808,0,0,0-.808.808v5.662a.808.808,0,0,0,.808.808h11.325a.808.808,0,0,0,.808-.808v-5.662A.808.808,0,0,0,196.091,224.87Z" transform="translate(-162.899 -191.555)" fill="#e81ab7"/>
    <path id="Path_22470" data-name="Path 22470" d="M62.785,87.936H74.11a.808.808,0,0,0,.808-.808V81.466a.808.808,0,0,0-.808-.808H62.785a.808.808,0,0,0-.808.808v5.662A.808.808,0,0,0,62.785,87.936Z" transform="translate(-54.882 -63.852)" fill="#e81ab7"/>
    <path id="Path_22471" data-name="Path 22471" d="M196.091,80.656H184.766a.808.808,0,0,0-.808.808v5.662a.808.808,0,0,0,.808.808h11.325a.808.808,0,0,0,.808-.808V81.464A.808.808,0,0,0,196.091,80.656Z" transform="translate(-162.899 -63.851)" fill="#e81ab7"/>
    <path id="Path_22472" data-name="Path 22472" d="M122.257,15.829h11.325a.808.808,0,0,0,.808-.808V9.359a.808.808,0,0,0-.808-.808H122.257a.808.808,0,0,0-.808.808v5.662A.808.808,0,0,0,122.257,15.829Z" transform="translate(-107.546)" fill="#e81ab7"/>
    <path id="Path_22473" data-name="Path 22473" d="M123.5,153.571v5.662a.808.808,0,0,0,.808.808h11.325a.808.808,0,0,0,.808-.808v-5.662a.808.808,0,0,0-.808-.808H124.3A.808.808,0,0,0,123.5,153.571Z" transform="translate(-109.358 -127.703)" fill="#e81ab7"/>
    <path id="Path_22474" data-name="Path 22474" d="M12.941,159.233v-5.662a.808.808,0,0,0-.808-.808H.808a.808.808,0,0,0-.808.808v5.662a.808.808,0,0,0,.808.808H12.133A.808.808,0,0,0,12.941,159.233Z" transform="translate(0 -127.703)" fill="#e81ab7"/>
  </g>
</svg>
