<svg xmlns="http://www.w3.org/2000/svg" width="34" height="25.703" viewBox="0 0 34 25.703">
  <g id="house" transform="translate(0 -3.904)">
    <g id="Group_10053" data-name="Group 10053" transform="translate(0 3.904)">
      <path id="Path_22476" data-name="Path 22476" d="M1.466,16.127l14.119-.56,8.59-9.923,8.211,12.3L34,17.715,24.342,4,14.479,5.825V4.072L13.666,3.9l-2.448.517V6.429l-3.288.61L0,14.241v1.9S.811,16.117,1.466,16.127Z" transform="translate(0 -3.904)" fill="#1aa4e8"/>
      <path id="Path_22477" data-name="Path 22477" d="M23.986,6.342l-8.292,9.58L2.155,16.46v11.5l12.44,1.494v0l7.776-.907V19.59l3.578-.005v8.544l5.733-.7V17.874ZM7.437,24.369l-3.605-.233v-4.6l3.605,0Zm6.095.368L9.34,24.468V19.517h4.192Zm7.075-.215-4.425.29V19.564l4.425,0Zm10.041-.629-3.342.22V19.571l3.342,0Z" transform="translate(0.135 -3.752)" fill="#1aa4e8"/>
    </g>
  </g>
</svg>
