<svg xmlns="http://www.w3.org/2000/svg" width="34" height="31.247" viewBox="0 0 34 31.247">
  <g id="stairs-with-handrail" transform="translate(0 -19.641)">
    <g id="Group_10055" data-name="Group 10055" transform="translate(0 19.641)">
      <g id="Group_10054" data-name="Group 10054" transform="translate(0 0)">
        <path id="Path_22478" data-name="Path 22478" d="M105.02,95.645H98.809a1.727,1.727,0,0,0-1.728,1.727v4.484H92.6a1.727,1.727,0,0,0-1.728,1.727v4.484H86.385a1.727,1.727,0,0,0-1.728,1.727v4.7h-4.7a1.726,1.726,0,0,0-1.728,1.727v3.614a1.727,1.727,0,0,0,1.728,1.728H105.02a1.727,1.727,0,0,0,1.728-1.728V97.372A1.727,1.727,0,0,0,105.02,95.645Z" transform="translate(-72.747 -90.318)" fill="#e81a1a"/>
        <path id="Path_22479" data-name="Path 22479" d="M23.18,19.989a1.152,1.152,0,0,0-1.628-.021C14.164,27.165,7.135,34.195.338,40.991A1.154,1.154,0,0,0,0,41.806v7.882a1.152,1.152,0,1,0,2.3,0V42.283c6.687-6.687,13.6-13.6,20.855-20.665A1.153,1.153,0,0,0,23.18,19.989Z" transform="translate(0 -19.641)" fill="#e81a1a"/>
      </g>
    </g>
  </g>
</svg>
