<svg xmlns="http://www.w3.org/2000/svg" width="34" height="33.897" viewBox="0 0 34 33.897">
  <g id="settings" transform="translate(0 -0.778)">
    <g id="Group_10052" data-name="Group 10052" transform="translate(0 0.778)">
      <path id="Path_22475" data-name="Path 22475" d="M27.159,21.112c-.677,0-1.185.169-1.693.169l-4.91-4.91,4.063-4.063,5.248-1.862,3.894-6.264a1.065,1.065,0,0,0,0-1.016L31.73,1.136A1.043,1.043,0,0,0,30.545.966L24.112,4.691,22.08,10.108l-4.063,4.063-4.571-4.91c0-.508.169-1.016.169-1.693A6.877,6.877,0,0,0,5.151.966L7.69,3.506a3.273,3.273,0,0,1,0,4.74,3.273,3.273,0,0,1-4.74,0L.241,5.876A6.647,6.647,0,0,0,8.536,14l4.91,4.91-2.032,2.032A3.224,3.224,0,0,0,8.2,21.79L1.257,28.731a3.445,3.445,0,0,0-.339,4.74,3.336,3.336,0,0,0,4.91.169l7.11-7.11a3.322,3.322,0,0,0,.846-3.217l2.032-2.032,4.91,4.91a5.759,5.759,0,0,0-.169,1.693,6.877,6.877,0,0,0,8.465,6.6l-2.539-2.539a3.352,3.352,0,1,1,4.74-4.74l2.539,2.539A6.871,6.871,0,0,0,27.159,21.112Z" transform="translate(0 -0.778)" fill="#e8bf1a"/>
    </g>
  </g>
</svg>
