<svg xmlns="http://www.w3.org/2000/svg" width="31.742" height="34" viewBox="0 0 31.742 34">
  <g id="paint-roller" transform="translate(-17.006)">
    <path id="Path_22455" data-name="Path 22455" d="M47.751,4.848H44.5V1a1,1,0,0,0-1-1H22.252a1,1,0,0,0-1,1V4.848H19V3.719a1,1,0,0,0-1.992,0V8.5A1,1,0,1,0,19,8.5V6.84h2.258v3.785a1,1,0,0,0,1,1H43.5a1,1,0,0,0,1-1V6.84h2.258v6.195l-14.12,3.53a1,1,0,0,0-.754.966v3.254H30.752a1,1,0,0,0-.994.934c-.57,9.121-.533,8.514-.533,8.562a3.73,3.73,0,0,0,1.058,2.6,3.574,3.574,0,0,0,5.189,0,3.73,3.73,0,0,0,1.058-2.6c0-.048.037.558-.533-8.562A1,1,0,0,0,35,20.785H33.873V18.309l14.12-3.53a1,1,0,0,0,.754-.966V5.844A1,1,0,0,0,47.751,4.848Z" fill="#1a7ae8"/>
  </g>
</svg>
