<svg xmlns="http://www.w3.org/2000/svg" width="28.05" height="34" viewBox="0 0 28.05 34">
  <path id="tap" d="M47.724,19.31v1.927a1.134,1.134,0,0,1-1.134,1.134h-5.6a1.134,1.134,0,0,1-1.134-1.134V19.31a1.134,1.134,0,0,1,.909-1.112v-2.17a.7.7,0,0,0-.7-.7h-.23a5.964,5.964,0,0,1-10.411,0H20.808a1.134,1.134,0,0,1-1.134-1.134V10.447a1.134,1.134,0,0,1,1.134-1.134h8.729A5.978,5.978,0,0,1,32.63,6.8V5.4a1.133,1.133,0,0,1,.023-.227H29.608a1.134,1.134,0,0,1-1.134-1.134V2.41a1.134,1.134,0,0,1,1.134-1.134H32.63V1.134A1.134,1.134,0,0,1,33.764,0h1.724a1.134,1.134,0,0,1,1.134,1.134v.141h3.022A1.134,1.134,0,0,1,40.778,2.41V4.034a1.134,1.134,0,0,1-1.134,1.134H36.6a1.144,1.144,0,0,1,.023.227V6.8a5.978,5.978,0,0,1,3.093,2.509H41.9a4.849,4.849,0,0,1,4.843,4.843v4.031A1.133,1.133,0,0,1,47.724,19.31ZM46.544,30.2a1.125,1.125,0,0,0-.059-.2L44.8,24.632a1.134,1.134,0,0,0-2.164,0l-1.711,5.452q-.013.041-.022.082a2.924,2.924,0,0,0-.136.882,2.952,2.952,0,1,0,5.779-.847Z" transform="translate(-19.674)" fill="#e8881a"/>
</svg>
