<svg xmlns="http://www.w3.org/2000/svg" width="17.998" height="18" viewBox="0 0 17.998 18">
  <path id="home" d="M17.514,7.828h0L10.171.485a1.657,1.657,0,0,0-2.344,0L.488,7.823l-.007.008a1.656,1.656,0,0,0,1.1,2.823l.051,0h.293v5.4A1.942,1.942,0,0,0,3.867,18H6.74a.527.527,0,0,0,.527-.527V13.236a.886.886,0,0,1,.885-.885H9.846a.886.886,0,0,1,.885.885v4.236a.527.527,0,0,0,.527.527h2.873A1.942,1.942,0,0,0,16.07,16.06v-5.4h.271a1.657,1.657,0,0,0,1.173-2.828Zm0,0" transform="translate(0 0.001)"/>
</svg>
