<svg xmlns="http://www.w3.org/2000/svg" width="17.826" height="20" viewBox="0 0 17.826 20">
  <g id="Group_10082" data-name="Group 10082" transform="translate(-226.75 -823.25)">
    <path id="clipboard" d="M14.643,20H3.183A3,3,0,0,1,0,17.222V3.889A3,3,0,0,1,3.183,1.111a.6.6,0,0,1,.636.555.6.6,0,0,1-.636.555,1.8,1.8,0,0,0-1.91,1.667V17.222a1.8,1.8,0,0,0,1.91,1.667h11.46a1.8,1.8,0,0,0,1.91-1.667V3.889a1.8,1.8,0,0,0-1.91-1.667.6.6,0,0,1-.636-.555.6.6,0,0,1,.636-.555,3,3,0,0,1,3.183,2.777V17.222A3,3,0,0,1,14.643,20ZM11.691,2.222a.556.556,0,0,1-.555-.555.556.556,0,0,0-.556-.555H7.247a.556.556,0,0,0-.556.555.555.555,0,0,1-1.111,0A1.669,1.669,0,0,1,7.247,0H10.58a1.669,1.669,0,0,1,1.667,1.667A.556.556,0,0,1,11.691,2.222Z" transform="translate(226.75 823.25)" fill="#c5cee0"/>
    <path id="Shape" d="M7.125,9.069H.647a.648.648,0,0,1,0-1.3H7.125a.648.648,0,0,1,0,1.3ZM9.716,5.182H.647a.647.647,0,1,1,0-1.295H9.716a.647.647,0,1,1,0,1.295Zm0-3.886H.647a.648.648,0,0,1,0-1.3H9.716a.648.648,0,1,1,0,1.3Z" transform="translate(230.481 829.271)" fill="#c5cee0"/>
  </g>
</svg>
