<svg xmlns="http://www.w3.org/2000/svg" width="10.585" height="12.698" viewBox="0 0 10.585 12.698">
  <g id="lightbulb" transform="translate(-40.017)">
    <path id="Path_30743" data-name="Path 30743" d="M129.4,116.177a2.7,2.7,0,0,0-.518,1.785h-3a2.762,2.762,0,0,0-.518-1.785,3.053,3.053,0,1,1,4.036,0Z" transform="translate(-82.069 -107.874)" fill="#ffd517"/>
    <g id="Group_43294" data-name="Group 43294" transform="translate(43.722 10.744)">
      <path id="Path_30744" data-name="Path 30744" d="M183.492,407.085a.284.284,0,0,1-.285.285H180.6a.284.284,0,0,1-.285-.285h0a.284.284,0,0,1,.285-.285h2.6a.293.293,0,0,1,.3.285Z" transform="translate(-180.312 -406.8)" fill="#e5e5e5"/>
      <path id="Path_30745" data-name="Path 30745" d="M197.51,451.885a.284.284,0,0,1-.285.285H195.4a.284.284,0,0,1-.285-.285h0a.284.284,0,0,1,.285-.285h1.828a.284.284,0,0,1,.285.285Z" transform="translate(-194.721 -450.417)" fill="#e5e5e5"/>
    </g>
    <g id="Group_43295" data-name="Group 43295" transform="translate(40.017)">
      <path id="Path_30746" data-name="Path 30746" d="M122.163,108.884a3.262,3.262,0,1,0-4.342.032,2.533,2.533,0,0,1,.465,1.627.253.253,0,0,0,.053.148.209.209,0,0,0,.148.063h2.99a.209.209,0,0,0,.148-.063.2.2,0,0,0,.053-.148,2.533,2.533,0,0,1,.465-1.627C122.153,108.9,122.163,108.894,122.163,108.884Zm-.3-.264a.105.105,0,0,0-.042.053,2.7,2.7,0,0,0-.549,1.69h-2.588a2.677,2.677,0,0,0-.592-1.733,2.862,2.862,0,1,1,4.743-2.155A2.841,2.841,0,0,1,121.867,108.62Z" transform="translate(-114.686 -100.474)" fill="#210b20"/>
      <path id="Path_30747" data-name="Path 30747" d="M232.913,135.2a.2.2,0,0,0,0,.4,2.146,2.146,0,0,1,2.145,2.145.2.2,0,0,0,.4,0A2.547,2.547,0,0,0,232.913,135.2Z" transform="translate(-227.623 -131.629)" fill="#210b20"/>
      <path id="Path_30748" data-name="Path 30748" d="M176.293,399.686a.485.485,0,0,0-.486-.486H173.2a.486.486,0,1,0,0,.972h2.6A.487.487,0,0,0,176.293,399.686Zm-.5.085h-2.6a.085.085,0,1,1,0-.169h2.6a.083.083,0,0,1,.085.085C175.892,399.739,175.85,399.77,175.8,399.77Z" transform="translate(-169.207 -388.657)" fill="#210b20"/>
      <path id="Path_30749" data-name="Path 30749" d="M189.826,444H188a.486.486,0,1,0,0,.972h1.828a.485.485,0,0,0,.486-.486A.492.492,0,0,0,189.826,444Zm0,.57H188a.085.085,0,1,1,0-.169h1.828a.083.083,0,0,1,.085.084A.078.078,0,0,1,189.826,444.57Z" transform="translate(-183.616 -432.273)" fill="#210b20"/>
      <path id="Path_30750" data-name="Path 30750" d="M233.113,1.553V.2a.2.2,0,1,0-.4,0V1.564a.2.2,0,0,0,.2.2A.21.21,0,0,0,233.113,1.553Z" transform="translate(-227.623)" fill="#210b20"/>
      <path id="Path_30751" data-name="Path 30751" d="M327.3,36.766a.2.2,0,0,0-.275.053l-.75,1.13a.2.2,0,0,0,.053.275.2.2,0,0,0,.106.032.221.221,0,0,0,.169-.085l.75-1.13A.2.2,0,0,0,327.3,36.766Z" transform="translate(-318.685 -35.763)" fill="#210b20"/>
      <path id="Path_30752" data-name="Path 30752" d="M115.767,36.068a.2.2,0,0,0,.169-.306l-.729-1.141a.2.2,0,1,0-.338.211l.729,1.141A.2.2,0,0,0,115.767,36.068Z" transform="translate(-112.864 -33.617)" fill="#210b20"/>
      <path id="Path_30753" data-name="Path 30753" d="M40.12,114.634l1.194.644a.157.157,0,0,0,.1.021.218.218,0,0,0,.18-.106.2.2,0,0,0-.085-.275l-1.194-.644a.2.2,0,0,0-.275.085A.215.215,0,0,0,40.12,114.634Z" transform="translate(-40.017 -111.232)" fill="#210b20"/>
      <path id="Path_30754" data-name="Path 30754" d="M380.443,115.776a.309.309,0,0,0,.1-.021l1.194-.644a.2.2,0,0,0-.19-.359l-1.194.644a.2.2,0,0,0,.1.38Z" transform="translate(-371.255 -111.699)" fill="#210b20"/>
    </g>
  </g>
</svg>
