<svg xmlns="http://www.w3.org/2000/svg" width="13.056" height="10.631" viewBox="0 0 13.056 10.631">
  <g id="photo-camera-interface-symbol-for-button" transform="translate(0 -3.36)">
    <path id="Path_22527" data-name="Path 22527" d="M8.634,9.556A2.105,2.105,0,1,1,6.528,7.451,2.108,2.108,0,0,1,8.634,9.556Zm4.422-2.99v5.98a1.444,1.444,0,0,1-1.444,1.444H1.444A1.444,1.444,0,0,1,0,12.547V6.566A1.444,1.444,0,0,1,1.444,5.123H3.219v-.5A1.263,1.263,0,0,1,4.483,3.36H8.573A1.263,1.263,0,0,1,9.836,4.623v.5h1.776A1.444,1.444,0,0,1,13.056,6.566Zm-3.34,2.99a3.188,3.188,0,1,0-3.188,3.188A3.192,3.192,0,0,0,9.716,9.556Z" fill="#fff"/>
  </g>
</svg>
