<svg xmlns="http://www.w3.org/2000/svg" width="18" height="13" viewBox="0 0 18 13">
  <g id="dollar-banknotes-stack" transform="translate(-4.999 -7.905)">
    <g id="Group_10191" data-name="Group 10191" transform="translate(4.999 7.905)">
      <path id="Path_22535" data-name="Path 22535" d="M17.453,21.8H.547a.565.565,0,0,1-.508-.47L0,21.8c-.033.444.211.808.543.808H17.453c.332,0,.577-.364.543-.808l-.036-.474A.565.565,0,0,1,17.453,21.8Z" transform="translate(0 -9.609)" fill="#dfa32a"/>
      <path id="Path_22536" data-name="Path 22536" d="M17.453,19.8H.547a.565.565,0,0,1-.508-.47L0,19.8c-.033.444.211.808.543.808H17.453c.332,0,.577-.364.543-.808l-.036-.474A.565.565,0,0,1,17.453,19.8Z" transform="translate(0 -9.234)"/>
      <path id="Path_22537" data-name="Path 22537" d="M17.453,17.8H.547a.565.565,0,0,1-.508-.47L0,17.8c-.033.444.211.808.543.808H17.453c.332,0,.577-.364.543-.808l-.036-.474A.565.565,0,0,1,17.453,17.8Z" transform="translate(0 -8.859)" fill="#dfa32a"/>
      <path id="Path_22538" data-name="Path 22538" d="M.547,15.03H17.453c.332,0,.577-.364.543-.808l-.484-6.508c-.033-.444-.332-.808-.664-.808H1.15c-.332,0-.631.364-.664.808L0,14.222C-.03,14.666.215,15.03.547,15.03Zm.24-7.276c.018-.236.187-.443.363-.443h15.7c.176,0,.346.206.364.443l.484,6.508a.408.408,0,0,1-.059.258.222.222,0,0,1-.185.1H.547a.219.219,0,0,1-.185-.1A.409.409,0,0,1,.3,14.262Z" transform="translate(0.001 -6.905)"/>
      <path id="Path_22539" data-name="Path 22539" d="M15.321,12.52v.943c.461-.045.691-.193.691-.444C16.012,12.813,15.782,12.648,15.321,12.52Z" transform="translate(-6.167 -7.958)"/>
      <path id="Path_22540" data-name="Path 22540" d="M16.889,7.982c0-.028-.041-.077-.061-.077H1.537c-.021,0-.059.049-.061.076l-.465,6.424H17.376Zm-6.418,4.959a1.845,1.845,0,0,1-1.044.384V14h-.5v-.656a3.046,3.046,0,0,1-1.3-.287V12.2a2.1,2.1,0,0,0,.6.271,2.987,2.987,0,0,0,.706.143V11.476a2.719,2.719,0,0,1-1.1-.587,1.121,1.121,0,0,1,.088-1.6,1.694,1.694,0,0,1,1.013-.4V8.311h.5v.566a2.8,2.8,0,0,1,1.086.211v.84A2.8,2.8,0,0,0,9.427,9.6v1.179a2.841,2.841,0,0,1,1.082.561,1.021,1.021,0,0,1,.328.763A1.051,1.051,0,0,1,10.471,12.941Z" transform="translate(-0.177 -7.093)"/>
      <path id="Path_22541" data-name="Path 22541" d="M13.652,10.463q0,.321.671.535v-.986Q13.653,10.09,13.652,10.463Z" transform="translate(-5.493 -7.488)"/>
    </g>
  </g>
</svg>
