<svg xmlns="http://www.w3.org/2000/svg" width="18" height="13.184" viewBox="0 0 18 13.184">
  <g id="dollar-banknotes-stack" transform="translate(-4.999 -7.905)">
    <g id="Group_10191" data-name="Group 10191" transform="translate(5 1)">
      <path id="Path_22535" data-name="Path 22535" d="M17.453,21.8H.547a.568.568,0,0,1-.508-.476L0,21.807c-.033.451.211.82.543.82H17.453c.332,0,.577-.369.543-.82l-.036-.48A.567.567,0,0,1,17.453,21.8Z" transform="translate(0 -2.538)" fill="#dfa32a"/>
      <path id="Path_22536" data-name="Path 22536" d="M17.453,19.8H.547a.568.568,0,0,1-.508-.476L0,19.807c-.033.451.211.82.543.82H17.453c.332,0,.577-.369.543-.82l-.036-.48A.567.567,0,0,1,17.453,19.8Z" transform="translate(0 -2.186)" fill="#fff"/>
      <path id="Path_22537" data-name="Path 22537" d="M17.453,17.8H.547a.568.568,0,0,1-.508-.476L0,17.807c-.033.451.211.82.543.82H17.453c.332,0,.577-.369.543-.82l-.036-.48A.567.567,0,0,1,17.453,17.8Z" transform="translate(0 -1.834)" fill="#dfa32a"/>
      <path id="Path_22538" data-name="Path 22538" d="M.547,15.145H17.453c.332,0,.577-.369.543-.82l-.484-6.6c-.033-.451-.332-.82-.664-.82H1.15c-.332,0-.631.369-.664.82L0,14.325C-.03,14.776.215,15.145.547,15.145Zm.24-7.379c.018-.24.187-.449.363-.449h15.7c.176,0,.346.209.364.449l.484,6.6a.418.418,0,0,1-.059.261.221.221,0,0,1-.185.105H.547a.218.218,0,0,1-.185-.105A.42.42,0,0,1,.3,14.366Z" transform="translate(0 0)" fill="#fff"/>
      <path id="Path_22539" data-name="Path 22539" d="M15.321,12.52v.956c.461-.046.691-.2.691-.451C16.012,12.817,15.782,12.649,15.321,12.52Z" transform="translate(-6.168 -0.988)" fill="#fff"/>
      <path id="Path_22540" data-name="Path 22540" d="M16.889,7.983c0-.029-.041-.078-.061-.078H1.537c-.021,0-.059.049-.061.077L1.011,14.5H17.376Zm-6.418,5.029a1.83,1.83,0,0,1-1.044.39v.684h-.5V13.42a3.01,3.01,0,0,1-1.3-.291v-.873a2.081,2.081,0,0,0,.6.274,2.951,2.951,0,0,0,.706.145V11.527a2.709,2.709,0,0,1-1.1-.595,1.111,1.111,0,0,1-.295-.78,1.1,1.1,0,0,1,.382-.843A1.682,1.682,0,0,1,8.925,8.9V8.317h.5v.574a2.765,2.765,0,0,1,1.086.214v.852a2.768,2.768,0,0,0-1.086-.328v1.2a2.828,2.828,0,0,1,1.082.569,1.042,1.042,0,0,1,.328.774A1.073,1.073,0,0,1,10.471,13.012Z" transform="translate(-0.178 -0.176)" fill="#fff"/>
      <path id="Path_22541" data-name="Path 22541" d="M13.652,10.47q0,.325.671.543v-1Q13.653,10.091,13.652,10.47Z" transform="translate(-5.494 -0.547)" fill="#fff"/>
    </g>
  </g>
</svg>
