<svg xmlns="http://www.w3.org/2000/svg" width="10.487" height="10.487" viewBox="0 0 10.487 10.487">
  <g id="clock_1_" data-name="clock (1)" transform="translate(-0.85 -0.85)">
    <path id="Path_22946" data-name="Path 22946" d="M6.094,1a5.094,5.094,0,1,0,5.094,5.094A5.094,5.094,0,0,0,6.094,1Zm0,9.261a4.168,4.168,0,1,1,4.168-4.168A4.168,4.168,0,0,1,6.094,10.261Z" transform="translate(0 0)" fill="#fff" stroke="#fff" stroke-width="0.3"/>
    <path id="Path_22947" data-name="Path 22947" d="M12.054,8.47V5.527a.527.527,0,1,0-1.054,0V8.688a.527.527,0,0,0,.154.372l1.581,1.581A.527.527,0,1,0,13.48,9.9Z" transform="translate(-5.557 -2.403)" fill="#fff" stroke="#fff" stroke-width="0.3"/>
  </g>
</svg>
