<svg xmlns="http://www.w3.org/2000/svg" width="23.273" height="16" viewBox="0 0 23.273 16">
  <g id="credit-card_stroke" data-name="credit-card stroke" transform="translate(0 -80)">
    <path id="Path_22542" data-name="Path 22542" d="M20.727,80H2.545A2.548,2.548,0,0,0,0,82.545V93.455A2.548,2.548,0,0,0,2.545,96H20.727a2.548,2.548,0,0,0,2.545-2.545V82.545A2.548,2.548,0,0,0,20.727,80ZM2.545,81.455H20.727a1.092,1.092,0,0,1,1.091,1.091V84H1.455V82.545A1.092,1.092,0,0,1,2.545,81.455ZM20.727,94.545H2.545a1.092,1.092,0,0,1-1.091-1.091v-8H21.818v8A1.092,1.092,0,0,1,20.727,94.545Z" fill="#fff"/>
    <path id="Path_22543" data-name="Path 22543" d="M81.455,306.182h-.727a.727.727,0,0,1-.727-.727v-.727a.727.727,0,0,1,.727-.727h.727a.727.727,0,0,1,.727.727v.727A.727.727,0,0,1,81.455,306.182Z" transform="translate(-76.364 -213.818)" fill="#dfa32a"/>
  </g>
</svg>
