<svg xmlns="http://www.w3.org/2000/svg" width="23" height="15.813" viewBox="0 0 23 15.813">
  <g id="credit-card_stroke" data-name="credit-card stroke" transform="translate(0 -80)">
    <path id="Path_22542" data-name="Path 22542" d="M20.484,80H2.516A2.519,2.519,0,0,0,0,82.516V93.3a2.519,2.519,0,0,0,2.516,2.516H20.484A2.519,2.519,0,0,0,23,93.3V82.516A2.519,2.519,0,0,0,20.484,80ZM2.516,81.438H20.484a1.079,1.079,0,0,1,1.078,1.078v1.438H1.438V82.516A1.079,1.079,0,0,1,2.516,81.438ZM20.484,94.375H2.516A1.079,1.079,0,0,1,1.438,93.3V85.391H21.563V93.3A1.079,1.079,0,0,1,20.484,94.375Z"/>
    <path id="Path_22543" data-name="Path 22543" d="M81.438,306.156h-.719a.719.719,0,0,1-.719-.719v-.719a.719.719,0,0,1,.719-.719h.719a.719.719,0,0,1,.719.719v.719A.719.719,0,0,1,81.438,306.156Z" transform="translate(-76.406 -213.938)"/>
  </g>
</svg>
