<svg xmlns="http://www.w3.org/2000/svg" width="18" height="13" viewBox="0 0 18 13">
  <g id="credit-card" transform="translate(0 -80)">
    <path id="Path_22506" data-name="Path 22506" d="M16.383,80H1.617A1.661,1.661,0,0,0,0,81.7v9.6A1.661,1.661,0,0,0,1.617,93H16.383A1.661,1.661,0,0,0,18,91.3V81.7A1.661,1.661,0,0,0,16.383,80ZM5.625,85.17A1.3,1.3,0,0,1,4.359,86.5H3.516A1.3,1.3,0,0,1,2.25,85.17v-.886a1.3,1.3,0,0,1,1.266-1.33h.844a1.3,1.3,0,0,1,1.266,1.33Zm7.232,3.018a.543.543,0,0,1-.348-.127.611.611,0,0,1-.094-.83,1.23,1.23,0,0,0,0-1.463.611.611,0,0,1,.094-.83.545.545,0,0,1,.79.1,2.459,2.459,0,0,1,0,2.926.552.552,0,0,1-.442.225Zm1.815,1.271a.544.544,0,0,1-.794.045.612.612,0,0,1-.043-.834,3.373,3.373,0,0,0,0-4.339.612.612,0,0,1,.043-.834.544.544,0,0,1,.794.045A4.553,4.553,0,0,1,15.75,86.5a5.3,5.3,0,0,1-.184,1.3A4.136,4.136,0,0,1,14.672,89.459Z"/>
    <rect id="Rectangle_1350" data-name="Rectangle 1350" width="4.2" height="4.2" rx="1" transform="translate(2 82.3)" fill="#dfa32a"/>
  </g>
</svg>
