<svg xmlns="http://www.w3.org/2000/svg" width="16.35" height="16.3" viewBox="0 0 16.35 16.3">
  <g id="Group_9765" data-name="Group 9765" transform="translate(-11.35 -19.85)">
    <path id="user" d="M6,8A4,4,0,1,0,2,4,4,4,0,0,0,6,8ZM6,1.333A2.667,2.667,0,1,1,3.333,4,2.667,2.667,0,0,1,6,1.333Zm6,14a.667.667,0,0,1-1.333,0,4.667,4.667,0,1,0-9.333,0,.667.667,0,0,1-1.333,0,6,6,0,1,1,12,0Zm3.8-5.8a.667.667,0,1,1-.943.943l-1.2-1.2-1.2,1.2a.667.667,0,1,1-.943-.943l1.2-1.2-1.2-1.2a.667.667,0,1,1,.943-.943l1.2,1.2,1.2-1.2a.667.667,0,1,1,.943.943l-1.2,1.2Z" transform="translate(11.5 20)" fill="#212121" stroke="#212121" stroke-width="0.3"/>
  </g>
</svg>
