<svg xmlns="http://www.w3.org/2000/svg" width="15.017" height="18" viewBox="0 0 15.017 18">
  <g id="user" transform="translate(0 0)">
    <path id="Path_22622" data-name="Path 22622" d="M91.367,8.671A4.2,4.2,0,0,0,94.433,7.4,4.2,4.2,0,0,0,95.7,4.335a4.2,4.2,0,0,0-1.27-3.065,4.334,4.334,0,0,0-6.131,0,4.2,4.2,0,0,0-1.27,3.065A4.2,4.2,0,0,0,88.3,7.4,4.2,4.2,0,0,0,91.367,8.671Zm0,0" transform="translate(-83.972)" fill="#000"/>
    <path id="Path_22623" data-name="Path 22623" d="M14.981,252.463a10.708,10.708,0,0,0-.146-1.137,8.963,8.963,0,0,0-.28-1.144,5.649,5.649,0,0,0-.47-1.066,4.025,4.025,0,0,0-.709-.924,3.125,3.125,0,0,0-1.018-.64,3.519,3.519,0,0,0-1.3-.235,1.32,1.32,0,0,0-.7.3c-.211.138-.458.3-.734.473a4.207,4.207,0,0,1-.95.418,3.688,3.688,0,0,1-2.323,0,4.2,4.2,0,0,1-.949-.418c-.273-.175-.52-.334-.735-.474a1.318,1.318,0,0,0-.7-.3,3.515,3.515,0,0,0-1.3.236,3.123,3.123,0,0,0-1.018.64,4.026,4.026,0,0,0-.709.924,5.659,5.659,0,0,0-.47,1.067,8.983,8.983,0,0,0-.28,1.143,10.671,10.671,0,0,0-.146,1.138c-.024.344-.036.7-.036,1.063a2.989,2.989,0,0,0,.888,2.261,3.2,3.2,0,0,0,2.287.834h8.667a3.2,3.2,0,0,0,2.287-.834,2.987,2.987,0,0,0,.888-2.261c0-.363-.012-.72-.036-1.063Zm0,0" transform="translate(0 -238.621)" fill="#000"/>
    <path id="Path_22624" data-name="Path 22624" d="M88.556,3.048A1.475,1.475,0,0,0,89.633,2.6a1.475,1.475,0,0,0,.446-1.078A1.475,1.475,0,0,0,89.633.447a1.524,1.524,0,0,0-2.155,0,1.475,1.475,0,0,0-.446,1.077A1.475,1.475,0,0,0,87.478,2.6,1.475,1.475,0,0,0,88.556,3.048Zm0,0" transform="translate(-75.825 13.623)" fill="#dfa32a"/>
  </g>
</svg>
