<svg xmlns="http://www.w3.org/2000/svg" width="20.749" height="19.452" viewBox="0 0 20.749 19.452">
  <path id="Printer" d="M19.507,8.89h-.648V6.3a1.3,1.3,0,0,0-1.3-1.3H7.187a1.3,1.3,0,0,0-1.3,1.3V8.89H5.242A3.246,3.246,0,0,0,2,12.132v6.484a1.947,1.947,0,0,0,1.945,1.945H5.89v2.594a1.3,1.3,0,0,0,1.3,1.3H17.561a1.3,1.3,0,0,0,1.3-1.3V20.561H20.8a1.947,1.947,0,0,0,1.945-1.945V12.132A3.246,3.246,0,0,0,19.507,8.89ZM7.187,6.3H17.561V8.89H7.187Zm0,16.858V16.671H17.561v6.484Zm14.265-4.539a.649.649,0,0,1-.648.648H18.858V16.671h.648a.648.648,0,0,0,0-1.3H5.242a.648.648,0,0,0,0,1.3H5.89v2.594H3.945a.649.649,0,0,1-.648-.648V12.132a1.947,1.947,0,0,1,1.945-1.945H19.507a1.947,1.947,0,0,1,1.945,1.945Zm-5.836,0a.648.648,0,0,1-.648.648H9.781a.648.648,0,1,1,0-1.3h5.187A.648.648,0,0,1,15.616,18.616Zm0,2.594a.648.648,0,0,1-.648.648H9.781a.648.648,0,1,1,0-1.3h5.187A.648.648,0,0,1,15.616,21.21Zm4.539-9.078a.648.648,0,0,1-.648.648h-1.3a.648.648,0,0,1,0-1.3h1.3A.648.648,0,0,1,20.155,12.132Z" transform="translate(-2 -5)" fill="#161616"/>
</svg>
