<svg xmlns="http://www.w3.org/2000/svg" width="15.149" height="18" viewBox="0 0 15.149 18">
  <g id="shield" transform="translate(-33.908)">
    <g id="Group_43159" data-name="Group 43159" transform="translate(33.908 0)">
      <circle id="Ellipse_358" data-name="Ellipse 358" cx="5" cy="5" r="5" transform="translate(2.574 4)" fill="#dfa32a"/>
      <path id="Path_30669" data-name="Path 30669" d="M49.038,4.633c-.022-.474-.022-.926-.022-1.378a.634.634,0,0,0-.646-.646A8.649,8.649,0,0,1,41.934.178a.664.664,0,0,0-.9,0A8.649,8.649,0,0,1,34.595,2.61a.634.634,0,0,0-.646.646c0,.452,0,.9-.022,1.378-.086,4.52-.215,10.719,7.34,13.324l.215.043.215-.043C49.231,15.352,49.124,9.175,49.038,4.633ZM40.966,10.9a.7.7,0,0,1-.452.172h-.022a.606.606,0,0,1-.452-.215l-2-2.217.969-.861,1.571,1.743L44.065,6.2l.883.947Z" transform="translate(-33.908 0)" fill="#000"/>
    </g>
  </g>
</svg>
