<svg xmlns="http://www.w3.org/2000/svg" width="23" height="23" viewBox="0 0 23 23">
  <g id="emergency-call" transform="translate(0)">
    <path id="Path_23099" data-name="Path 23099" d="M287.508,357.881a39.891,39.891,0,0,0,5.2,2.823l.988-1.413-5.006-2.924Z" transform="translate(-274.673 -340.48)"/>
    <path id="Path_23100" data-name="Path 23100" d="M8.023,137.976A27.848,27.848,0,0,1,4.4,133.541l.008-.006a41.483,41.483,0,0,1-2.784-5.066,3.8,3.8,0,0,0-1.169,4.906,29.158,29.158,0,0,0,12.168,12.171,3.8,3.8,0,0,0,4.913-1.175l0-.005a41.083,41.083,0,0,1-5.241-2.878S9.171,139.138,8.023,137.976Z" transform="translate(0 -123)"/>
    <path id="Path_23101" data-name="Path 23101" d="M64.794,94.186,61.87,89.179l-1.426,1a40.267,40.267,0,0,0,2.774,5.089Z" transform="translate(-57.681 -85.198)"/>
    <path id="Path_23102" data-name="Path 23102" d="M204.114,0H192.558A1.558,1.558,0,0,0,191,1.558V8.439A1.558,1.558,0,0,0,192.558,10h3.117v3.117L200.35,10h3.764a1.558,1.558,0,0,0,1.558-1.558V1.558A1.558,1.558,0,0,0,204.114,0Z" transform="translate(-182.672)"/>
    <circle id="Ellipse_359" data-name="Ellipse 359" cx="0.643" cy="0.643" r="0.643" transform="translate(12.048 3.453)"/>
    <g id="siren" transform="translate(-33.491 0.93)">
      <g id="Group_10658" data-name="Group 10658" transform="translate(46)">
        <g id="Group_10657" data-name="Group 10657" transform="translate(0)">
          <path id="Path_23110" data-name="Path 23110" d="M51.951,159.571h-.613v-1.357a2.214,2.214,0,0,0-4.428,0v1.357H46.3a.3.3,0,0,0-.3.3V161a.3.3,0,0,0,.3.3h5.653a.3.3,0,0,0,.3-.3v-1.131A.3.3,0,0,0,51.951,159.571Zm-4.446-1.357a1.619,1.619,0,0,1,3.238,0v1.357H47.505Zm4.148,2.487H46.6v-.536h5.058Z" transform="translate(-46 -153.679)" fill="#fff"/>
          <path id="Path_23111" data-name="Path 23111" d="M236.3,1.726a.3.3,0,0,0,.3-.3V.3a.3.3,0,0,0-.6,0V1.428A.3.3,0,0,0,236.3,1.726Z" transform="translate(-233.173)" fill="#fff"/>
          <path id="Path_23112" data-name="Path 23112" d="M372.768,57l.8-.8a.3.3,0,1,0-.421-.421l-.8.8a.3.3,0,1,0,.421.421Z" transform="translate(-367.406 -54.863)" fill="#fff"/>
          <path id="Path_23113" data-name="Path 23113" d="M46.886,57a.3.3,0,0,0,.421-.421l-.8-.8a.3.3,0,0,0-.421.421Z" transform="translate(-46 -54.863)" fill="#fff"/>
        </g>
      </g>
    </g>
  </g>
</svg>
