<svg xmlns="http://www.w3.org/2000/svg" width="241" height="220.572" viewBox="0 0 241 220.572">
  <g id="Group_10634" transform="translate(-66.998 -244.428)">
    <circle id="Ellipse_322" cx="107" cy="107" r="107" transform="translate(81 251)" fill="#f2f2f2"/>
    <g id="Group_10313" transform="translate(42.398 232.928)">
      <path id="Path_22867" d="M230.2,180a.574.574,0,0,0-.7-.2l-1.6,1-1-1.6a.494.494,0,0,0-.7-.1c-.2.1-.2.4-.2.6l1,1.6-1.6,1a.539.539,0,1,0,.4,1,.1.1,0,0,0,.1-.1l1.6-1,1,1.6a.365.365,0,0,0,.5.2c.1,0,.1,0,.2-.1a.574.574,0,0,0,.2-.7l-1-1.6,1.6-1a.4.4,0,0,0,.2-.6" fill="#a8a8a8"/>
      <path id="Path_22868" d="M234.4,190.9a2.2,2.2,0,1,1,2.2-2.2,2.288,2.288,0,0,1-2.2,2.2m0-3.2a1,1,0,0,0-1,1,1.075,1.075,0,0,0,1,1,1,1,0,0,0,1-1h0a1.075,1.075,0,0,0-1-1" fill="#a8a8a8"/>
      <path id="Path_22869" d="M66.1,222.6a2.2,2.2,0,1,1,2.2-2.2,2.22,2.22,0,0,1-2.2,2.2m0-3.2a1,1,0,1,0,1,1h0a1,1,0,0,0-1-1" fill="#a8a8a8"/>
      <path id="Path_22870" d="M224.6,15.9a2.2,2.2,0,1,1,2.2-2.2,2.22,2.22,0,0,1-2.2,2.2m0-3.2a1,1,0,0,0-1,1,1.075,1.075,0,0,0,1,1,1,1,0,0,0,1-1h0a.945.945,0,0,0-1-1" fill="#a8a8a8"/>
      <path id="Path_22871" d="M261.6,70.6a.574.574,0,0,0-.2.7l.8,1.7-1.7.8a.494.494,0,0,0-.1.7.481.481,0,0,0,.6.2l1.7-.8.8,1.7a.494.494,0,0,0,.7.1.481.481,0,0,0,.2-.6l-.8-1.7,1.7-.8a.55.55,0,0,0,.3-.5v-.2a.574.574,0,0,0-.7-.2l-1.7.8-.8-1.7a.778.778,0,0,0-.8-.2" fill="#a8a8a8"/>
      <path id="Path_22872" d="M230.4,111.7a2.2,2.2,0,1,1,2.2-2.2,2.156,2.156,0,0,1-2.2,2.2m0-3.1a1,1,0,0,0-1,1,1.075,1.075,0,0,0,1,1,1,1,0,0,0,1-1h0a1,1,0,0,0-1-1" fill="#a8a8a8"/>
      <path id="Path_22873" d="M35.6,116.2a.483.483,0,0,0,0,.7l1.3,1.4-1.4,1.3a.5.5,0,1,0,.6.8l.1-.1,1.4-1.3,1.3,1.4a.494.494,0,0,0,.7-.1c.1-.2.2-.4,0-.6l-1.3-1.4,1.4-1.3a.494.494,0,0,0-.1-.7c-.2-.1-.4-.2-.6,0l-1.4,1.3-1.3-1.4c-.1-.2-.5-.2-.7,0" fill="#a8a8a8"/>
      <path id="Path_22874" d="M56.9,140a2.2,2.2,0,1,1,2.2-2.2,2.22,2.22,0,0,1-2.2,2.2m0-3.2a1,1,0,0,0-1,1,1.075,1.075,0,0,0,1,1,1,1,0,0,0,1-1h0a.945.945,0,0,0-1-1" fill="#a8a8a8"/>
      <path id="Path_22875" d="M63.8,205.1a.3.3,0,0,1,0-.6c1-.1,2.1-.2,3.1-.3a.3.3,0,0,1,0,.6c-1,.1-2.1.2-3.1.3h0m-4.4,0h0c-1.1-.1-2.1-.2-3.1-.3-.2,0-.3-.2-.3-.4s.2-.3.4-.3h0a15.526,15.526,0,0,0,3.1.3.265.265,0,0,1,.3.3c-.1.2-.2.4-.4.4m11.7-1.2a.265.265,0,0,1-.3-.3c0-.1.1-.3.2-.3,1-.3,2-.6,2.9-.9.2-.1.3,0,.4.2s0,.3-.2.4h0q-1.35.45-3,.9h0m-19-.1h0a28.117,28.117,0,0,1-3.1-1c-.2-.1-.2-.2-.2-.4.1-.2.2-.2.4-.2h0a19.048,19.048,0,0,0,2.9.9c.2,0,.3.2.2.4,0,.3-.1.4-.2.3m26-2.5a.265.265,0,0,1-.3-.3c0-.1.1-.2.2-.3l2.7-1.5c.1-.1.3,0,.4.1s0,.3-.1.4h0l-2.7,1.5c-.1.1-.1.1-.2.1m-33-.1H45l-2.7-1.5c-.1-.1-.2-.3-.1-.4s.3-.2.4-.1h0l2.7,1.5a.247.247,0,0,1,.1.4c-.1,0-.2.1-.3.1m39.3-3.9a.265.265,0,0,1-.3-.3c0-.1,0-.2.1-.2a21.978,21.978,0,0,0,2.3-2,.283.283,0,0,1,.4.4h0c-.8.7-1.6,1.4-2.4,2,.1.1,0,.1-.1.1m-45.6-.2c-.1,0-.1,0-.2-.1a22.53,22.53,0,0,1-2.4-2.1.283.283,0,1,1,.4-.4,21.978,21.978,0,0,0,2.3,2c.1.1.2.3.1.4,0,.2-.1.2-.2.2m51-4.9a.265.265,0,0,1-.3-.3c0-.1,0-.1.1-.2.7-.8,1.3-1.6,1.9-2.4a.3.3,0,0,1,.4,0,.6.6,0,0,1,.1.4c-.6.8-1.3,1.7-1.9,2.5-.1-.1-.2,0-.3,0m-56.3-.3c-.1,0-.2,0-.2-.1a23.482,23.482,0,0,1-1.9-2.5.292.292,0,1,1,.5-.3,22.259,22.259,0,0,0,1.9,2.4.3.3,0,0,1,0,.4c-.2.1-.2.1-.3.1M94,186a.265.265,0,0,1-.3-.3v-.2a24.37,24.37,0,0,0,1.4-2.8.4.4,0,0,1,.4-.2c.1,0,.2.3.2.4h0a24.372,24.372,0,0,1-1.4,2.8c-.1.3-.2.3-.3.3m-64.7-.2c-.1,0-.2-.1-.3-.2-.5-.9-1-1.9-1.4-2.8-.1-.2,0-.3.2-.4s.3,0,.4.2c.4.9.9,1.9,1.3,2.8.1.2,0,.3-.1.4h-.1M97,179.2a.265.265,0,0,1-.3-.3v-.1c.3-1,.6-2,.8-3a.3.3,0,1,1,.6,0v.1c-.2,1-.5,2-.8,3q-.15.3-.3.3m-70.5-.3c-.1,0-.3-.1-.3-.2-.3-1-.6-2-.8-3a.52.52,0,0,1,.2-.4.52.52,0,0,1,.4.2h0c.2,1,.5,2,.8,3,0,.2-.1.3-.3.4h0m71.9-7h0a.319.319,0,0,1-.3-.3h0c.1-1,.2-2.1.2-3.1a.3.3,0,0,1,.6,0c0,1-.1,2.1-.2,3.1a.265.265,0,0,1-.3.3m-73.3-.3a.265.265,0,0,1-.3-.3c-.1-1-.1-2.1-.2-3.1a.265.265,0,0,1,.3-.3h0a.265.265,0,0,1,.3.3c0,1,.1,2.1.1,3.1.1.1,0,.3-.2.3h0m73.3-7.2a.265.265,0,0,1-.3-.3c-.1-1-.3-2-.5-3.1h0a.316.316,0,0,1,.6-.2h0c.2,1,.4,2.1.5,3.1,0,.3-.1.5-.3.5h0m-73.3-.3h0a.319.319,0,0,1-.3-.3c.1-1,.3-2.1.5-3.1,0-.2.2-.3.4-.2.2,0,.3.2.2.4-.2,1-.4,2-.5,3,0,.1-.1.2-.3.2m71.7-7c-.1,0-.3-.1-.3-.2a24.884,24.884,0,0,0-1.1-2.9c-.1-.2,0-.3.2-.4s.3,0,.4.2c.4,1,.8,2,1.1,2.9.1.1,0,.3-.3.4h0m-70.1-.3a.265.265,0,0,1-.3-.3v-.1a24.883,24.883,0,0,1,1.1-2.9c.1-.2.2-.2.4-.2s.2.2.2.4a24.884,24.884,0,0,0-1.1,2.9c0,.1-.1.2-.3.2m67.2-6.5c-.1,0-.2-.1-.3-.2a22.607,22.607,0,0,0-1.6-2.6.292.292,0,1,1,.5-.3c.6.9,1.1,1.8,1.7,2.7.1.1,0,.3-.1.4a.138.138,0,0,0-.2,0M29.8,150a.265.265,0,0,1-.3-.3v-.2c.5-.9,1.1-1.8,1.7-2.7.1-.1.3-.2.4-.1s.2.3.1.4h0a22.605,22.605,0,0,0-1.6,2.6c-.1.3-.2.3-.3.3m59.8-5.8c-.1,0-.2,0-.2-.1-.7-.8-1.4-1.5-2.1-2.2a.283.283,0,1,1,.4-.4c.7.7,1.5,1.5,2.2,2.3a.3.3,0,0,1,0,.4c-.2-.1-.2,0-.3,0M34.1,144a.265.265,0,0,1-.3-.3c0-.1,0-.1.1-.2.7-.8,1.4-1.5,2.2-2.3a.283.283,0,1,1,.4.4h0c-.7.7-1.5,1.5-2.1,2.2-.1.1-.2.2-.3.2m50.1-4.9c-.1,0-.1,0-.2-.1-.8-.6-1.7-1.2-2.5-1.8-.1-.1-.2-.3-.1-.4s.3-.2.4-.1c.9.6,1.7,1.2,2.6,1.8.1.1.2.3.1.4s-.2.2-.3.2m-44.6-.2a.265.265,0,0,1-.3-.3c0-.1,0-.2.1-.2.8-.6,1.7-1.2,2.6-1.8.1-.1.3,0,.4.1s0,.3-.1.4h0a14.371,14.371,0,0,0-2.5,1.8h-.2m38.2-3.8h-.1c-.9-.4-1.9-.9-2.8-1.2-.2-.1-.2-.2-.2-.4s.2-.2.4-.2h0c1,.4,1.9.8,2.9,1.2a.247.247,0,0,1,.1.4c0,.2-.2.2-.3.2M45.9,135a.265.265,0,0,1-.3-.3c0-.1.1-.2.2-.3a25.155,25.155,0,0,1,2.9-1.2c.2-.1.3,0,.4.2,0,.2,0,.3-.2.4-1,.4-1.9.8-2.8,1.2h-.2m24.9-2.4h0a18.752,18.752,0,0,0-3.1-.6c-.2,0-.3-.2-.3-.4s.2-.3.4-.3c1,.2,2.1.4,3.1.6.2,0,.3.2.2.4a.265.265,0,0,1-.3.3M53,132.5a.265.265,0,0,1-.3-.3c0-.1.1-.3.2-.3a10.621,10.621,0,0,1,1.9-.4c.4-.1.8-.1,1.2-.2.2,0,.3.1.4.3,0,.2-.1.3-.3.4-.4.1-.8.1-1.2.2a12.5,12.5,0,0,0-1.9.3h0m10.4-1H60.3a.3.3,0,0,1,0-.6h3.2a.265.265,0,0,1,.3.3c0,.2-.2.3-.4.3" fill="#a8a8a8"/>
      <path id="Path_22876" d="M184.2,162.9h-.6c-.2,0-.4-.1-.4-.3s.1-.4.3-.4h0c1.1-.1,2.2-.2,3.4-.3.2,0,.4.1.4.3s-.1.3-.3.4c-.9.1-1.9.2-2.8.3m-5.3.1h0c-1.2,0-2.3-.1-3.4-.1-.2,0-.3-.2-.3-.4s.2-.3.4-.3c1.1.1,2.3.1,3.4.1a.319.319,0,0,1,.3.3c-.1.3-.2.4-.4.4m12.8-1c-.2,0-.3-.1-.4-.3,0-.2.1-.3.3-.4l3.3-.6c.2,0,.4.1.4.3s-.1.4-.3.4q-1.5.3-3.3.6h0m-20.9.5h0c-1.2-.1-2.3-.3-3.4-.5-.2,0-.3-.2-.3-.4s.2-.3.4-.3h0c1.1.2,2.2.4,3.3.5.2,0,.3.2.3.4a.451.451,0,0,1-.3.3m28.8-2.3c-.2,0-.4-.1-.4-.3a.52.52,0,0,1,.2-.4c1.1-.3,2.2-.7,3.2-1,.2-.1.4,0,.4.2.1.2,0,.4-.2.4-.9.4-2,.7-3.2,1.1h0m-36.8.8h0c-1.2-.3-2.3-.6-3.4-.9-.2-.1-.3-.2-.2-.4s.2-.3.4-.2h0l3.3.9c.2,0,.3.2.2.4-.1.1-.2.2-.3.2m44.5-3.5c-.2,0-.4-.1-.4-.3,0-.1.1-.3.2-.3,1-.4,2.1-.9,3.1-1.4a.365.365,0,0,1,.5.2c.1.2,0,.4-.2.4-1,.5-2.1,1-3.1,1.4,0-.1-.1,0-.1,0M155,158.6h-.1c-1.1-.4-2.1-.8-3.2-1.3-.2-.1-.3-.3-.2-.4.1-.2.3-.3.4-.2h0c1,.4,2.1.9,3.1,1.2.2.1.3.3.2.4,0,.2-.1.3-.2.3m59.6-4.7c-.2,0-.4-.1-.4-.3,0-.1.1-.3.2-.3,1-.5,1.9-1.1,2.9-1.7.2-.1.4-.1.5.1s.1.4-.1.5h0c-1,.6-1.9,1.2-2.9,1.7h-.2m-67.1,1.4h-.2c-1-.5-2-1.1-3-1.6-.2-.1-.2-.3-.1-.5s.3-.2.5-.1c1,.6,2,1.1,3,1.6.2.1.2.3.1.5a.367.367,0,0,1-.3.1m74-5.8c-.2,0-.4-.1-.4-.3a.367.367,0,0,1,.1-.3c.9-.7,1.8-1.3,2.7-2,.2-.1.4-.1.5.1.1.1.1.3-.1.5l-2.7,2.1a.1.1,0,0,0-.1-.1m-81,1.8c-.1,0-.1,0-.2-.1-.9-.6-1.9-1.3-2.8-1.9a.33.33,0,0,1,0-.5c.1-.1.3-.2.4-.1a27.5,27.5,0,0,0,2.8,1.9c.2.1.2.3.1.5-.1.1-.2.2-.3.2m87.3-6.9c-.2,0-.4-.1-.4-.3a.367.367,0,0,1,.1-.3c.8-.8,1.6-1.5,2.4-2.3a.454.454,0,0,1,.5,0,.446.446,0,0,1,0,.5c-.8.8-1.6,1.6-2.5,2.4,0-.1-.1,0-.1,0m-93.9,2c-.1,0-.2,0-.2-.1-.9-.7-1.7-1.5-2.6-2.2a.454.454,0,0,1,0-.5.3.3,0,0,1,.4,0c.8.8,1.7,1.5,2.5,2.2a.33.33,0,0,1,0,.5c.1.1,0,.1-.1.1m99.5-7.9c-.2,0-.4-.1-.4-.3,0-.1,0-.2.1-.2.7-.8,1.5-1.7,2.2-2.6a.361.361,0,1,1,.6.4,27.463,27.463,0,0,1-2.2,2.6.367.367,0,0,1-.3.1M128,140.8a.367.367,0,0,1-.3-.1c-.8-.8-1.5-1.7-2.3-2.5a.348.348,0,0,1,.1-.5.446.446,0,0,1,.5,0c.7.8,1.5,1.7,2.3,2.5a.454.454,0,0,1,0,.5.367.367,0,0,1-.3.1m110.4-8.7c-.2,0-.3-.1-.4-.3,0-.1,0-.1.1-.2.6-.9,1.3-1.9,1.8-2.8.1-.2.3-.2.5-.1a.44.44,0,0,1,.1.5c-.6,1-1.2,1.9-1.9,2.9h-.2m-115.6,2.5a.367.367,0,0,1-.3-.1c-.7-.9-1.3-1.8-2-2.8-.1-.2-.1-.4.1-.5s.4-.1.5.1c.6.9,1.3,1.8,2,2.7.1.2.1.4-.1.5a.31.31,0,0,1-.2.1m119.8-9.4c-.2,0-.4-.1-.4-.3v-.2l1.5-3c.1-.2.3-.3.4-.2s.3.3.2.4h0l-1.5,3c.1.2-.1.3-.2.3m-124.4,2.7c-.1,0-.3-.1-.3-.2-.6-1-1.1-2-1.7-3a.365.365,0,0,1,.2-.5c.2-.1.4,0,.4.1.5,1,1.1,2,1.6,2.9a.44.44,0,0,1-.1.5c0,.2,0,.2-.1.2M246,117.8c-.2,0-.4-.1-.4-.3v-.1c.4-1,.8-2.1,1.2-3.2.1-.2.3-.3.4-.2.2.1.3.3.2.4h0c-.4,1.1-.8,2.2-1.2,3.2.1.1,0,.2-.2.2m-131.5,2.8c-.1,0-.3-.1-.3-.2-.5-1-.9-2.1-1.3-3.1-.1-.2,0-.4.2-.4.2-.1.4,0,.4.2h0c.4,1,.8,2.1,1.3,3.1a.365.365,0,0,1-.2.5c0-.1,0-.1-.1-.1M248.6,110c-.2,0-.4-.1-.4-.3v-.1c.3-1.1.6-2.2.8-3.3,0-.2.2-.3.4-.3s.3.2.3.4h0c-.2,1.1-.5,2.2-.8,3.3a.319.319,0,0,1-.3.3m-136.9,3c-.2,0-.3-.1-.3-.2-.3-1.1-.7-2.2-.9-3.3,0-.2.1-.4.2-.4.2,0,.4.1.4.2.3,1.1.6,2.2.9,3.2,0,.3-.1.5-.3.5h0m138.5-10.9h0a.366.366,0,0,1-.4-.4h0c.2-1.1.3-2.2.4-3.3,0-.2.2-.3.4-.3s.3.2.3.4h0c-.1,1.1-.2,2.3-.4,3.4a1.237,1.237,0,0,1-.3.2m-140.5,3.1c-.2,0-.3-.1-.4-.3-.2-1.1-.4-2.2-.6-3.4,0-.2.1-.4.3-.4s.4.1.4.3c.2,1.1.3,2.2.6,3.3a.55.55,0,0,1-.3.5h0M250.9,94h0a.43.43,0,0,1-.4-.4h0V90.2a.3.3,0,0,1,.6,0h0v3.4c.1.2,0,.3-.2.4M108.6,97.1c-.2,0-.3-.1-.4-.3a2.2,2.2,0,0,0-.1-.8,22.6,22.6,0,0,1-.1-2.6c0-.2.1-.3.3-.4s.3.1.4.3c0,.9.1,1.7.1,2.6a2.2,2.2,0,0,0,.1.8c.1.2-.1.4-.3.4h0M250.7,85.8c-.2,0-.3-.1-.4-.3-.1-1.1-.2-2.2-.4-3.4V82c0-.2.1-.4.3-.4s.4.1.4.3V82c.1,1.1.3,2.3.4,3.4,0,.2-.1.4-.3.4h0M108.5,88.9h0a.43.43,0,0,1-.4-.4h0c0-1.1.1-2.3.2-3.4,0-.2.2-.3.4-.3s.3.2.3.4c-.1,1.1-.2,2.2-.2,3.4a.319.319,0,0,1-.3.3m141-11.3c-.2,0-.3-.1-.4-.3-.2-1.1-.5-2.2-.7-3.3,0-.2.1-.4.2-.4.2,0,.4.1.4.2.3,1.1.5,2.2.8,3.3.1.3,0,.5-.3.5h0M109.2,80.8h0a.366.366,0,0,1-.4-.4c.2-1.1.4-2.3.6-3.4,0-.2.2-.3.4-.3s.3.2.3.4l-.6,3.3c0,.3-.1.4-.3.4m138.3-11c-.2,0-.3-.1-.3-.2-.3-1.1-.7-2.1-1.1-3.2-.1-.2,0-.4.2-.4.2-.1.4,0,.4.2h0c.4,1.1.8,2.1,1.1,3.2a.536.536,0,0,1-.3.4h0M111,72.9c-.2,0-.4-.1-.4-.3v-.1c.3-1.1.6-2.2,1-3.3.1-.2.3-.3.4-.2s.3.3.2.4c-.3,1.1-.7,2.2-1,3.2,0,.2-.1.3-.2.3M244.6,62.2c-.1,0-.3-.1-.3-.2l-1.5-3a.44.44,0,0,1,.1-.5c.1-.1.4,0,.5.1h0c.5,1,1,2,1.5,3.1a.365.365,0,0,1-.2.5h-.1m-131,3c-.2,0-.4-.1-.4-.3v-.1c.4-1,.9-2.1,1.4-3.1.1-.2.3-.3.4-.2.2.1.3.3.2.4h0c-.5,1-.9,2.1-1.3,3.1-.1.1-.2.2-.3.2M240.8,55c-.1,0-.2-.1-.3-.2-.6-1-1.2-1.9-1.8-2.8a.44.44,0,0,1,.1-.5c.2-.1.3-.1.5.1.6.9,1.2,1.9,1.8,2.9a.44.44,0,0,1-.1.5h-.2M117,57.8c-.2,0-.3-.1-.4-.3v-.2c.5-1,1.1-2,1.7-3,.1-.2.3-.2.5-.1s.2.3.1.5h0c-.6,1-1.1,1.9-1.7,2.9a.215.215,0,0,1-.2.2m119.2-9.5a.367.367,0,0,1-.3-.1c-.7-.9-1.4-1.8-2.1-2.6a.354.354,0,0,1,.5-.5h0c.7.9,1.5,1.8,2.1,2.6a.348.348,0,0,1-.1.5.1.1,0,0,1-.1.1M121.3,50.9c-.2,0-.4-.1-.4-.3,0-.1,0-.2.1-.2.6-.9,1.3-1.8,2-2.7a.361.361,0,1,1,.6.4h0c-.7.9-1.4,1.8-2,2.7-.1,0-.2.1-.3.1m109.6-8.8a.367.367,0,0,1-.3-.1l-2.4-2.4a.354.354,0,0,1,.5-.5h0l2.4,2.4a.454.454,0,0,1,0,.5.31.31,0,0,1-.2.1M126.4,44.5c-.2,0-.4-.1-.4-.3,0-.1,0-.2.1-.2.8-.8,1.5-1.7,2.3-2.5a.454.454,0,0,1,.5,0,.446.446,0,0,1,0,.5,27.25,27.25,0,0,0-2.3,2.5.138.138,0,0,0-.2,0m98.5-7.9c-.1,0-.2,0-.2-.1L222,34.4c-.2-.1-.2-.3-.1-.5s.3-.2.5-.1l2.7,2.1a.33.33,0,0,1,0,.5c-.1.2-.1.2-.2.2m-92.8,2.1c-.2,0-.4-.1-.4-.3a.367.367,0,0,1,.1-.3,27.462,27.462,0,0,1,2.6-2.2.354.354,0,0,1,.5.5c-.9.7-1.7,1.4-2.6,2.2-.1.1-.1.1-.2.1m86.2-6.8c-.1,0-.1,0-.2-.1-.9-.6-1.9-1.2-2.9-1.8-.2-.1-.2-.3-.1-.5s.3-.2.5-.1h0c1,.6,2,1.2,2.9,1.8.2.1.2.3.1.5-.1.1-.2.1-.3.2m-79.9,1.7c-.2,0-.4-.1-.4-.3a.367.367,0,0,1,.1-.3c.9-.7,1.9-1.3,2.8-1.9.2-.1.4-.1.5.1s.1.4-.1.5c-.9.6-1.9,1.2-2.8,1.9h-.1m72.8-5.8H211a29.173,29.173,0,0,0-3.1-1.4c-.2-.1-.2-.3-.2-.5a.4.4,0,0,1,.4-.2c1,.5,2.1.9,3.1,1.4.2.1.2.3.2.5s-.1.2-.2.2m-65.9,1.5c-.2,0-.4-.1-.4-.3,0-.1.1-.3.2-.3,1-.5,2-1.1,3-1.6a.44.44,0,0,1,.5.1c.1.1,0,.4-.1.5h0c-1,.5-2,1-3,1.6h-.2m58.4-4.7h-.1c-1.1-.4-2.1-.7-3.2-1.1-.2-.1-.3-.3-.2-.4.1-.2.2-.3.4-.2a30.052,30.052,0,0,1,3.2,1.1c.2.1.3.3.2.4,0,.2-.2.2-.3.2m-51.1,1.2c-.2,0-.4-.1-.4-.3,0-.1.1-.3.2-.3,1-.4,2.1-.8,3.2-1.2.2-.1.4,0,.4.2s0,.4-.2.4c-1.1.4-2.1.8-3.2,1.2q.15,0,0,0m43.3-3.5h0c-1.2-.3-2.3-.5-3.4-.7-.2,0-.3-.2-.3-.4s.2-.3.4-.3c1.1.2,2.2.4,3.3.7.2,0,.3.2.3.4a.265.265,0,0,1-.3.3m-35.6.9c-.2,0-.3-.1-.4-.3,0-.2.1-.3.2-.3,1.1-.3,2.2-.6,3.3-.8.2,0,.4.1.4.3a.52.52,0,0,1-.2.4,15.053,15.053,0,0,0-3.3.7c.1-.1.1,0,0,0m27.6-2.3h0c-1.2-.1-2.3-.2-3.4-.3-.2,0-.3-.2-.3-.4s.2-.3.4-.3h0c1.1.1,2.3.2,3.4.3.2,0,.3.2.3.4a.536.536,0,0,1-.4.3m-19.6.5a.319.319,0,0,1-.3-.3.265.265,0,0,1,.3-.3l2.1-.3c.4-.1.8-.1,1.3-.2.2,0,.4.1.4.3s-.1.4-.3.4h0a6.882,6.882,0,0,0-1.3.2,14.979,14.979,0,0,0-2.2.2h0m11.5-.9h0c-1.1,0-2.3,0-3.4.1-.2,0-.4-.1-.4-.3s.1-.4.3-.4h0c1.1-.1,2.3-.1,3.4-.1a.319.319,0,0,1,.3.3.3.3,0,0,1-.2.4" fill="#a8a8a8"/>
      <path id="Path_22877" d="M218,85.6V202.5h-.4l-11.5-8.6-11.5,8.6h-1.2l-11.5-8.6-11.5,8.6h-1.2l-11.4-8.6-11.4,8.6h-1.2l-11.4-8.6-11.4,8.6h-1.2l-11.4-8.6-11.4,8.6H97.2l-11.4-8.6-11.4,8.6h-.8V53.1H176Z" fill="#e4e4e4"/>
      <path id="Path_22878" d="M218.6,85.8H176.5V53.3Z" fill="#ccc"/>
      <g id="coupon" transform="translate(100.586 83.911)">
        <path id="Path_23082" d="M87.2,26.7l-16-4a1.491,1.491,0,0,0-1.8,1.1,3.337,3.337,0,0,1-4,2.3,1.491,1.491,0,0,0-1.8,1.1h0L57,52.1,50.3,26.8a1.491,1.491,0,0,0-1.8-1.1h-.1a3.3,3.3,0,0,1-4-2.3,1.431,1.431,0,0,0-1.8-1L4.1,32.1A1.491,1.491,0,0,0,3,33.9H3L6.5,47.3a1.431,1.431,0,0,0,1.8,1A3.166,3.166,0,0,1,10,54.4a1.491,1.491,0,0,0-1.1,1.8h0l3.5,13.4a1.5,1.5,0,0,0,1.5,1.1h.4L53,60.9a1.491,1.491,0,0,0,1.1-1.8h0a3.325,3.325,0,0,1,2.4-3.8.758.758,0,0,0,.4-.2,1.555,1.555,0,0,0,.8.6A3.173,3.173,0,0,1,60,59.5a1.512,1.512,0,0,0,1,1.8h0l16,4h.4a1.5,1.5,0,0,0,1.5-1.1l3.5-13.4A1.491,1.491,0,0,0,81.3,49h0A3.166,3.166,0,0,1,83,42.9a1.512,1.512,0,0,0,1.8-1l3.6-13.4a1.512,1.512,0,0,0-1-1.8.139.139,0,0,1-.2,0ZM51.9,55.3a5.533,5.533,0,0,0-.8,3.1L15,67.5,12.2,56.8a5.894,5.894,0,0,0,2.4-2.3,6.128,6.128,0,0,0,.6-4.6,6.242,6.242,0,0,0-6.1-4.6L6.3,34.6l36.1-9.2a6.224,6.224,0,0,0,5.5,3.2l6.4,24.3A6.894,6.894,0,0,0,51.9,55.3ZM82.2,40a6.163,6.163,0,0,0-5.5,9.2,5.894,5.894,0,0,0,2.4,2.3L76.3,62.2,63.1,58.8a6.161,6.161,0,0,0-3.3-5.4l6.4-24.3a6.224,6.224,0,0,0,5.5-3.2L85,29.3Z" fill="#263238"/>
        <path id="Path_23083" d="M36.1,38.1a1.456,1.456,0,0,0-2,.5h0L26.7,51.3a1.458,1.458,0,0,0,2.5,1.5h0l7.4-12.7a1.456,1.456,0,0,0-.5-2Z" fill="#263238"/>
        <path id="Path_23084" d="M29.5,41.3a4.4,4.4,0,1,0-4.4,4.4h0A4.313,4.313,0,0,0,29.5,41.3Zm-4.4,1.5a1.5,1.5,0,1,1,1.5-1.5,1.538,1.538,0,0,1-1.5,1.5Z" fill="#263238"/>
        <path id="Path_23085" d="M39,44.8a4.4,4.4,0,1,0,4.4,4.4A4.439,4.439,0,0,0,39,44.8Zm0,5.9a1.5,1.5,0,1,1,1.5-1.5A1.538,1.538,0,0,1,39,50.7Z" fill="#263238"/>
        <path id="Path_23086" d="M56.8,69.3a1.538,1.538,0,0,0,1.5-1.5h0V64.9a1.5,1.5,0,0,0-3,0h0v2.9a1.612,1.612,0,0,0,1.5,1.5Z" fill="#263238"/>
        <path id="Path_23087" d="M53.1,73a1.5,1.5,0,1,0,0-3H50.2a1.5,1.5,0,0,0,0,3h2.9Z" fill="#263238"/>
        <path id="Path_23088" d="M55.4,78.1a1.5,1.5,0,0,0,3,0V75.2a1.5,1.5,0,0,0-3,0Z" fill="#263238"/>
        <path id="Path_23089" d="M63.4,73a1.5,1.5,0,0,0,0-3H60.5a1.5,1.5,0,0,0,0,3Z" fill="#263238"/>
        <path id="Path_23090" d="M55.2,13.4a1.538,1.538,0,0,0,1.5-1.5h0V9a1.5,1.5,0,0,0-3,0v2.9a1.538,1.538,0,0,0,1.5,1.5Z" fill="#263238"/>
        <path id="Path_23091" d="M48.6,17.1h2.9a1.5,1.5,0,0,0,0-3H48.6a1.5,1.5,0,0,0,0,3Z" fill="#263238"/>
        <path id="Path_23092" d="M55.2,23.7a1.538,1.538,0,0,0,1.5-1.5h0V19.3a1.5,1.5,0,0,0-3,0v2.9a1.538,1.538,0,0,0,1.5,1.5Z" fill="#263238"/>
        <path id="Path_23093" d="M58.9,17.1h2.9a1.5,1.5,0,0,0,0-3H58.9a1.5,1.5,0,0,0,0,3Z" fill="#263238"/>
      </g>
    </g>
  </g>
</svg>
