<svg xmlns="http://www.w3.org/2000/svg" width="23" height="20" viewBox="0 0 23 20">
  <g id="eye" transform="translate(0 -38.5)">
    <path id="Path_23098" data-name="Path 23098" d="M22.511,54.794a.888.888,0,0,1-1.208-.4h0c-1.378-2.748-5.035-6.687-9.8-6.687-4.275,0-8.075,3.241-9.8,6.687a.889.889,0,0,1-1.209.4A.929.929,0,0,1,.1,53.557c1.985-3.967,6.35-7.687,11.4-7.687,5.761,0,9.887,4.66,11.4,7.687A.93.93,0,0,1,22.511,54.794ZM.349,44.919l2,1.848A.884.884,0,0,0,3.619,46.7a.935.935,0,0,0-.065-1.3l-2-1.848a.884.884,0,0,0-1.269.067A.935.935,0,0,0,.349,44.919Zm20.3,1.848,2-1.848a.935.935,0,0,0,.065-1.3.884.884,0,0,0-1.269-.067l-2,1.848a.935.935,0,0,0-.065,1.3A.884.884,0,0,0,20.65,46.766ZM11.5,43.1a.909.909,0,0,0,.9-.92V39.42a.9.9,0,1,0-1.8,0v2.761a.909.909,0,0,0,.9.92Zm4.414,10.876A4.475,4.475,0,0,1,11.5,58.5a4.525,4.525,0,0,1,0-9.048A4.475,4.475,0,0,1,15.913,53.976Zm-1.8,0A2.618,2.618,0,1,0,11.5,56.661,2.654,2.654,0,0,0,14.117,53.976Z" transform="translate(0 0)"/>
  </g>
</svg>
