<svg xmlns="http://www.w3.org/2000/svg" width="21.821" height="16.795" viewBox="0 0 21.821 16.795">
  <g id="Group_9296" data-name="Group 9296" transform="translate(-120.909 -263.993)">
    <path id="Path_21530" data-name="Path 21530" d="M123.519,264.227l7.582,8.6a2.273,2.273,0,0,0,3.409,0l7.45-8.454a.8.8,0,0,1,.212-.167,2.555,2.555,0,0,0-1.031-.216H124.47a2.566,2.566,0,0,0-.99.2C123.493,264.2,123.507,264.213,123.519,264.227Z" transform="translate(-0.985 0)" fill="#e61f23"/>
    <path id="Path_21531" data-name="Path 21531" d="M142.334,265.95a.807.807,0,0,1-.146.245l-7.451,8.454a3.889,3.889,0,0,1-5.835,0l-7.583-8.6c-.015-.018-.026-.037-.039-.056a2.562,2.562,0,0,0-.371,1.327v11.645a2.575,2.575,0,0,0,2.575,2.575h16.671a2.575,2.575,0,0,0,2.575-2.575V267.318A2.564,2.564,0,0,0,142.334,265.95Z" transform="translate(0 -0.75)" fill="#e61f23"/>
  </g>
</svg>
