<?xml version="1.0" encoding="utf-8"?>
<!-- Generator: Adobe Illustrator 28.1.0, SVG Export Plug-In . SVG Version: 6.00 Build 0)  -->
<svg version="1.1" id="Layer_1" xmlns="http://www.w3.org/2000/svg" xmlns:xlink="http://www.w3.org/1999/xlink" x="0px" y="0px"
	 width="16.4px" height="9px" viewBox="0 0 16.4 9" style="enable-background:new 0 0 16.4 9;" xml:space="preserve">
<g>
	<g>
		<path style="fill:#3C4043;" d="M12,0.6c2.2,0,3.9,1.8,3.9,3.9S14.2,8.4,12,8.4H4.5c-2.2,0-3.9-1.8-3.9-3.9s1.8-3.9,3.9-3.9H12
			 M12,0.2H4.5c-2.4,0-4.3,1.9-4.3,4.3s1.9,4.3,4.3,4.3H12c2.4,0,4.3-1.9,4.3-4.3S14.4,0.2,12,0.2L12,0.2z"/>
	</g>
</g>
<g>
	<g>
		<path style="fill:#3C4043;" d="M7.9,3.5v1.1h0.7c0.2,0,0.3-0.1,0.4-0.2C9.1,4.3,9.2,4.2,9.2,4c0-0.2-0.1-0.3-0.2-0.4
			C8.9,3.5,8.8,3.5,8.6,3.5L7.9,3.5L7.9,3.5z M7.9,5v1.3H7.5V3.1h1.1c0.3,0,0.5,0.1,0.7,0.3C9.5,3.5,9.6,3.8,9.6,4
			c0,0.3-0.1,0.5-0.3,0.7C9.1,4.9,8.9,5,8.6,5L7.9,5L7.9,5z M10,5.6c0,0.1,0,0.2,0.1,0.3C10.3,5.9,10.4,6,10.5,6
			c0.2,0,0.3-0.1,0.5-0.2c0.1-0.1,0.2-0.3,0.2-0.5c-0.1-0.1-0.3-0.2-0.5-0.2c-0.2,0-0.3,0-0.4,0.1C10.1,5.4,10,5.5,10,5.6 M10.6,4
			c0.3,0,0.5,0.1,0.7,0.2c0.2,0.2,0.3,0.4,0.3,0.7v1.4h-0.4V6h0c-0.2,0.3-0.4,0.4-0.7,0.4c-0.2,0-0.4-0.1-0.6-0.2
			C9.7,6,9.6,5.8,9.6,5.6c0-0.2,0.1-0.4,0.3-0.5c0.2-0.1,0.4-0.2,0.7-0.2c0.2,0,0.4,0,0.6,0.1V4.9c0-0.1-0.1-0.3-0.2-0.4
			c-0.1-0.1-0.2-0.1-0.4-0.1c-0.2,0-0.4,0.1-0.5,0.3L9.7,4.4C9.9,4.1,10.2,4,10.6,4 M13.8,4.1l-1.4,3.2H12l0.5-1.1l-0.9-2.1h0.4
			l0.7,1.6h0l0.6-1.6H13.8z"/>
	</g>
	<path style="fill:#4285F4;" d="M6.3,4.7c0-0.1,0-0.3,0-0.4H4.5V5h1c0,0.2-0.2,0.4-0.4,0.6V6h0.6C6.1,5.7,6.3,5.3,6.3,4.7"/>
	<path style="fill:#34A853;" d="M4.5,6.5C5,6.5,5.4,6.3,5.7,6L5.1,5.6C5,5.7,4.7,5.8,4.5,5.8C4,5.8,3.6,5.4,3.5,5H2.8v0.5
		C3.2,6.1,3.8,6.5,4.5,6.5"/>
	<path style="fill:#FABB05;" d="M3.5,5c0-0.1-0.1-0.2-0.1-0.4s0-0.2,0.1-0.4V3.8H2.8C2.7,4.1,2.7,4.4,2.7,4.6c0,0.3,0.1,0.6,0.2,0.8
		L3.5,5z"/>
	<path style="fill:#E94235;" d="M4.5,3.5c0.3,0,0.5,0.1,0.7,0.3C5.4,4,5.7,3.3,5.7,3.3C5.4,3,5,2.8,4.5,2.8c-0.7,0-1.3,0.4-1.6,1
		l0.6,0.5C3.6,3.9,4,3.5,4.5,3.5"/>
</g>
</svg>
