<svg xmlns="http://www.w3.org/2000/svg" width="20.165" height="20.152" viewBox="0 0 20.165 20.152">
  <g id="gps" transform="translate(0 0)">
    <path id="Path_23095" data-name="Path 23095" d="M172.154,168.7a3.432,3.432,0,1,0,3.432,3.432A3.436,3.436,0,0,0,172.154,168.7Zm0,0" transform="translate(-162.078 -162.055)" fill="#dfa32a"/>
    <path id="Path_23096" data-name="Path 23096" d="M19.574,9.486H17.406a7.364,7.364,0,0,0-6.738-6.738V.591a.591.591,0,1,0-1.181,0V2.748A7.364,7.364,0,0,0,2.748,9.486H.59a.591.591,0,0,0,0,1.181H2.748a7.365,7.365,0,0,0,6.738,6.738v2.157a.591.591,0,0,0,1.181,0V17.405a7.364,7.364,0,0,0,6.738-6.738h2.168a.591.591,0,0,0,0-1.181Zm-9.5,6.762a6.171,6.171,0,1,1,6.171-6.171A6.178,6.178,0,0,1,10.077,16.248Zm0,0" fill="#dfa32a"/>
  </g>
</svg>
