<svg xmlns="http://www.w3.org/2000/svg" width="20" height="21.125" viewBox="0 0 20 21.125">
  <path id="Path" d="M6.635,18.773V15.716A1.419,1.419,0,0,1,8.058,14.3h2.874a1.429,1.429,0,0,1,1.007.414,1.409,1.409,0,0,1,.417,1v3.057a1.212,1.212,0,0,0,.356.867,1.233,1.233,0,0,0,.87.36h1.961a3.462,3.462,0,0,0,2.443-1A3.41,3.41,0,0,0,19,16.578V7.867a2.471,2.471,0,0,0-.9-1.9L11.434.676A3.1,3.1,0,0,0,7.485.747L.967,5.965A2.474,2.474,0,0,0,0,7.867v8.7A3.444,3.444,0,0,0,3.456,20H5.372a1.231,1.231,0,0,0,1.236-1.218Z" transform="translate(0.5 0.625)" fill="none" stroke="#000" stroke-width="1"/>
</svg>
