<svg xmlns="http://www.w3.org/2000/svg" width="8.376" height="19" viewBox="0 0 8.376 19">
  <g id="info" transform="translate(-31.139 1)">
    <path id="Path_22514" data-name="Path 22514" d="M38.854,16.058,38.6,17.086q-1.132.447-1.806.68A4.764,4.764,0,0,1,35.23,18a3.127,3.127,0,0,1-2.131-.668,2.163,2.163,0,0,1-.76-1.7,6,6,0,0,1,.057-.817q.058-.418.184-.943l.943-3.337q.126-.479.212-.909a3.949,3.949,0,0,0,.086-.782,1.21,1.21,0,0,0-.264-.892A1.491,1.491,0,0,0,32.548,7.7a2.643,2.643,0,0,0-.75.115c-.257.076-.476.149-.66.217L31.391,7q.927-.377,1.773-.646a5.3,5.3,0,0,1,1.6-.269,3.05,3.05,0,0,1,2.1.658A2.182,2.182,0,0,1,37.6,8.456c0,.145-.016.4-.051.766a5.122,5.122,0,0,1-.189,1.006l-.939,3.324a8.83,8.83,0,0,0-.206.916,4.713,4.713,0,0,0-.092.777,1.12,1.12,0,0,0,.3.9,1.67,1.67,0,0,0,1.027.24,2.966,2.966,0,0,0,.777-.12A4.343,4.343,0,0,0,38.854,16.058ZM39.092,2.1a1.945,1.945,0,0,1-.657,1.48,2.236,2.236,0,0,1-1.581.612,2.261,2.261,0,0,1-1.59-.612A1.941,1.941,0,0,1,34.6,2.1,1.96,1.96,0,0,1,35.264.617a2.347,2.347,0,0,1,3.171,0A1.964,1.964,0,0,1,39.092,2.1Z" fill="#000"/>
    <circle id="Ellipse_308" data-name="Ellipse 308" cx="2.7" cy="2.7" r="2.7" transform="translate(34.115 -1)" fill="#dfa32a"/>
  </g>
</svg>
