<svg xmlns="http://www.w3.org/2000/svg" width="375" height="463" viewBox="0 0 375 463">
  <g id="Group_10129" data-name="Group 10129" transform="translate(0 -38)">
    <g id="Group_9704" data-name="Group 9704">
      <g id="Group_173" data-name="Group 173">
        <path id="Rectangle_109" data-name="Rectangle 109" d="M0,0H375V463H0Z" transform="translate(0 38)" fill="#FFFEF4"/>
      </g>
    </g>
    <path id="Path_22140" data-name="Path 22140" d="M107.888,0A107.888,107.888,0,1,1,0,107.888,107.888,107.888,0,0,1,107.888,0Z" transform="translate(80.112 144.112)" fill="#ffffcf"/>
    <g id="Group_9761" data-name="Group 9761" transform="translate(-28.53 87.112)">
      <path id="Path_22141" data-name="Path 22141" d="M311.309,68.518l-4.318-5.534a7.411,7.411,0,0,0-6.291-2.838l-17.239,1.045a6.229,6.229,0,0,1-6.6-5.842l-.069-1.126a2.587,2.587,0,0,0-2.739-2.426l-4.918.3L270.409-9h-3.126l-1.273,61.284-4.084.248a2.588,2.588,0,0,0-2.426,2.739l.068,1.126a6.23,6.23,0,0,1-5.842,6.6l-17.239,1.045a7.41,7.41,0,0,0-5.9,3.576l-3.618,6.015a13.2,13.2,0,0,0-1.864,7.6,1.8,1.8,0,0,0,1.9,1.685l85.384-5.176a1.8,1.8,0,0,0,1.686-1.9A13.194,13.194,0,0,0,311.309,68.518Z" transform="translate(-43.816 0)" fill="#030404"/>
      <g id="Group_9717" data-name="Group 9717" transform="translate(167.331 49.125)">
        <g id="Group_9708" data-name="Group 9708" transform="translate(83.724 114.181)">
          <path id="Path_22142" data-name="Path 22142" d="M346.389,277.983s-.79,7.368-4.474,12.894" transform="translate(-341.312 -277.381)" fill="#ffc200"/>
          <path id="Path_22143" data-name="Path 22143" d="M341.517,291.082a.6.6,0,0,1-.5-.937c3.555-5.333,4.368-12.551,4.376-12.624a.6.6,0,0,1,1.2.129c-.033.307-.848,7.579-4.571,13.164A.6.6,0,0,1,341.517,291.082Z" transform="translate(-340.914 -276.983)" fill="#030404"/>
        </g>
        <g id="Group_9709" data-name="Group 9709" transform="translate(89.25 118.654)">
          <path id="Path_22144" data-name="Path 22144" d="M353.258,285.408s-.2,6.381-2.171,8.421" transform="translate(-350.484 -284.805)" fill="#ffc200"/>
          <path id="Path_22145" data-name="Path 22145" d="M350.69,294.033a.6.6,0,0,1-.433-1.022c1.485-1.533,1.948-6.309,2-8.021a.594.594,0,0,1,.622-.583.6.6,0,0,1,.583.621c-.008.271-.23,6.64-2.34,8.821A.6.6,0,0,1,350.69,294.033Z" transform="translate(-350.087 -284.406)" fill="#030404"/>
        </g>
        <g id="Group_9710" data-name="Group 9710" transform="translate(84.711 35.451)">
          <line id="Line_26" data-name="Line 26" y1="1.652" x2="6.315" transform="translate(0.603 0.603)" fill="#ffc200"/>
          <path id="Path_22146" data-name="Path 22146" d="M343.155,149.168a.6.6,0,0,1-.152-1.185l6.315-1.652a.6.6,0,1,1,.3,1.166l-6.315,1.651A.583.583,0,0,1,343.155,149.168Z" transform="translate(-342.552 -146.311)" fill="#030404"/>
        </g>
        <g id="Group_9711" data-name="Group 9711" transform="translate(86.684 40.699)">
          <line id="Line_27" data-name="Line 27" x2="6.908" transform="translate(0.603 0.602)" fill="#ffc200"/>
          <path id="Path_22147" data-name="Path 22147" d="M353.338,156.226h-6.908a.6.6,0,1,1,0-1.2h6.908a.6.6,0,1,1,0,1.2Z" transform="translate(-345.828 -155.021)" fill="#030404"/>
        </g>
        <g id="Group_9712" data-name="Group 9712" transform="translate(84.711 43.418)">
          <line id="Line_28" data-name="Line 28" x2="4.342" y2="2.501" transform="translate(0.603 0.602)" fill="#ffc200"/>
          <path id="Path_22148" data-name="Path 22148" d="M347.5,163.241a.6.6,0,0,1-.3-.08l-4.342-2.5a.6.6,0,0,1,.6-1.045l4.342,2.5a.6.6,0,0,1-.3,1.124Z" transform="translate(-342.552 -159.535)" fill="#030404"/>
        </g>
        <g id="Group_9713" data-name="Group 9713" transform="translate(3.304 20.482)">
          <path id="Path_22149" data-name="Path 22149" d="M208.439,135.441s.656-7.381,4.238-12.973" transform="translate(-207.836 -121.865)" fill="#ffc200"/>
          <path id="Path_22150" data-name="Path 22150" d="M208.042,135.646l-.054,0a.6.6,0,0,1-.546-.653c.027-.308.71-7.593,4.331-13.245a.6.6,0,1,1,1.014.65c-3.458,5.4-4.139,12.629-4.145,12.7A.6.6,0,0,1,208.042,135.646Z" transform="translate(-207.439 -121.468)" fill="#030404"/>
        </g>
        <g id="Group_9714" data-name="Group 9714" transform="translate(0 20.583)">
          <path id="Path_22151" data-name="Path 22151" d="M202.954,131.094s.082-6.384,2.018-8.459" transform="translate(-202.352 -122.032)" fill="#ffc200"/>
          <path id="Path_22152" data-name="Path 22152" d="M202.557,131.3h-.008a.6.6,0,0,1-.594-.61c0-.27.108-6.642,2.179-8.862a.6.6,0,1,1,.881.822c-1.456,1.56-1.833,6.344-1.855,8.055A.6.6,0,0,1,202.557,131.3Z" transform="translate(-201.955 -121.635)" fill="#030404"/>
        </g>
        <g id="Group_9715" data-name="Group 9715" transform="translate(93.592 1.21)">
          <path id="Path_22153" data-name="Path 22153" d="M358.293,90.48s6.467,3.617,10.1,9.174" transform="translate(-357.69 -89.878)" fill="#ffc200"/>
          <path id="Path_22154" data-name="Path 22154" d="M368,99.859a.6.6,0,0,1-.5-.272c-3.515-5.371-9.83-8.943-9.894-8.979a.6.6,0,1,1,.588-1.051c.269.151,6.639,3.754,10.314,9.37a.6.6,0,0,1-.5.932Z" transform="translate(-357.292 -89.48)" fill="#030404"/>
        </g>
        <g id="Group_9716" data-name="Group 9716" transform="translate(98.971)">
          <path id="Path_22155" data-name="Path 22155" d="M367.222,88.473s5.792,2.685,6.893,5.3" transform="translate(-366.619 -87.87)" fill="#ffc200"/>
          <path id="Path_22156" data-name="Path 22156" d="M373.717,93.979a.6.6,0,0,1-.555-.369c-.829-1.97-5.039-4.269-6.591-4.989a.6.6,0,0,1,.507-1.094c.245.114,6.017,2.816,7.2,5.614a.6.6,0,0,1-.322.789A.592.592,0,0,1,373.717,93.979Z" transform="translate(-366.221 -87.472)" fill="#030404"/>
        </g>
      </g>
      <g id="Group_9726" data-name="Group 9726" transform="translate(240.351 344.461)">
        <g id="Group_9719" data-name="Group 9719" transform="translate(0 0.011)">
          <path id="Path_22158" data-name="Path 22158" d="M347.043,620H324.149V592.224L335.6,578.653l11.447,13.571Z" transform="translate(-323.547 -578.06)" fill="#fff5d5"/>
          <path id="Path_22159" data-name="Path 22159" d="M346.645,620.209H323.751a.6.6,0,0,1-.6-.6V591.834a.6.6,0,0,1,.142-.388l11.446-13.572a.622.622,0,0,1,.921,0l11.447,13.572a.6.6,0,0,1,.142.388v27.773A.6.6,0,0,1,346.645,620.209ZM324.354,619h21.688v-26.95L335.2,579.2l-10.844,12.858Z" transform="translate(-323.149 -577.67)" fill="#030404"/>
        </g>
        <g id="Group_9720" data-name="Group 9720" transform="translate(11.446)">
          <path id="Path_22160" data-name="Path 22160" d="M358.707,592.224,347.26,578.653h-4.113l11.447,13.571h4.113" transform="translate(-342.545 -578.05)" fill="#fff5d5"/>
          <path id="Path_22161" data-name="Path 22161" d="M358.31,592.429H354.2a.6.6,0,0,1-.46-.215l-11.447-13.572a.6.6,0,0,1,.46-.991h4.113a.6.6,0,0,1,.46.214l11.447,13.572a.6.6,0,0,1-.46.991Zm-3.833-1.205h2.537l-10.431-12.367h-2.536Z" transform="translate(-342.147 -577.652)" fill="#030404"/>
        </g>
        <g id="Group_9721" data-name="Group 9721" transform="translate(37.281)">
          <path id="Path_22162" data-name="Path 22162" d="M413.394,620H390.5l-4.473-27.773,11.447-13.571,11.807,13.571h4.113Z" transform="translate(-385.424 -578.05)" fill="#030404"/>
          <path id="Path_22163" data-name="Path 22163" d="M413,620.2H390.1a.6.6,0,0,1-.595-.506l-4.474-27.773a.6.6,0,0,1,.134-.484l11.447-13.572a.6.6,0,0,1,.456-.214.61.61,0,0,1,.46.207l11.627,13.365H413a.6.6,0,0,1,.6.6V619.6A.6.6,0,0,1,413,620.2Zm-22.38-1.2h21.778V592.429h-3.51a.6.6,0,0,1-.455-.207L397.083,579.18,386.268,592Z" transform="translate(-385.026 -577.652)" fill="#030404"/>
        </g>
        <g id="Group_9722" data-name="Group 9722" transform="translate(22.893 13.572)">
          <rect id="Rectangle_1308" data-name="Rectangle 1308" width="41.755" height="27.773" transform="translate(0.603 0.602)" fill="#fff5d5"/>
          <path id="Path_22164" data-name="Path 22164" d="M403.5,629.156H361.749a.6.6,0,0,1-.6-.6V600.78a.6.6,0,0,1,.6-.6H403.5a.6.6,0,0,1,.6.6v27.773A.6.6,0,0,1,403.5,629.156Zm-41.152-1.205H402.9V601.383h-40.55Z" transform="translate(-361.146 -600.178)" fill="#030404"/>
        </g>
        <g id="Group_9723" data-name="Group 9723" transform="translate(49.089)">
          <path id="Path_22165" data-name="Path 22165" d="M421.183,592.224l-11.447-13.571h-4.113l11.447,13.571h4.113" transform="translate(-405.021 -578.05)" fill="#fff5d5"/>
          <path id="Path_22166" data-name="Path 22166" d="M420.785,592.429h-4.112a.6.6,0,0,1-.461-.215l-11.447-13.572a.6.6,0,0,1,.461-.991h4.113a.6.6,0,0,1,.461.214l11.446,13.572a.6.6,0,0,1-.461.991Zm-3.832-1.205h2.536l-10.431-12.367h-2.537Z" transform="translate(-404.624 -577.652)" fill="#030404"/>
        </g>
        <g id="Group_9724" data-name="Group 9724" transform="translate(8.83 5.536)">
          <circle id="Ellipse_279" data-name="Ellipse 279" cx="2.631" cy="2.631" r="2.631" transform="translate(0.602 0.602)" fill="#fff5d5"/>
          <path id="Path_22167" data-name="Path 22167" d="M341.038,593.308a3.233,3.233,0,1,1,3.234-3.234A3.237,3.237,0,0,1,341.038,593.308Zm0-5.262a2.028,2.028,0,1,0,2.029,2.028A2.03,2.03,0,0,0,341.038,588.046Z" transform="translate(-337.805 -586.841)" fill="#030404"/>
        </g>
        <g id="Group_9725" data-name="Group 9725" transform="translate(20.229 5.536)">
          <path id="Path_22168" data-name="Path 22168" d="M385.829,587.84H357.723l4.439,5.262h23.667a2.631,2.631,0,1,0,0-5.262Z" transform="translate(-357.12 -587.238)" fill="#fff5d5"/>
          <path id="Path_22169" data-name="Path 22169" d="M385.431,593.308H361.764a.6.6,0,0,1-.461-.214l-4.438-5.262a.6.6,0,0,1,.461-.99h28.105a3.233,3.233,0,0,1,0,6.467ZM362.044,592.1h23.387a2.028,2.028,0,0,0,0-4.057H358.622Z" transform="translate(-356.723 -586.841)" fill="#030404"/>
        </g>
      </g>
      <g id="Group_9731" data-name="Group 9731" transform="translate(264.797 372.97)">
        <g id="Group_9727" data-name="Group 9727" transform="translate(17.699 4.961)">
          <path id="Path_22170" data-name="Path 22170" d="M422.081,636.832,394.1,634.2l3.927,5.654,23.563,2.212a2.631,2.631,0,1,0,.492-5.239Z" transform="translate(-393.496 -633.601)" fill="#fff5d5"/>
          <path id="Path_22171" data-name="Path 22171" d="M421.443,642.287c-.1,0-.2,0-.308-.014l-23.564-2.213a.6.6,0,0,1-.438-.257l-3.927-5.654a.6.6,0,0,1,.551-.944l27.983,2.628a3.234,3.234,0,0,1-.3,6.453Zm-23.48-3.4,23.284,2.186a2.028,2.028,0,0,0,.38-4.039h0l-26.692-2.506Z" transform="translate(-393.099 -633.204)" fill="#030404"/>
        </g>
        <g id="Group_9728" data-name="Group 9728" transform="translate(0)">
          <path id="Path_22172" data-name="Path 22172" d="M382.956,625.97H371.141a6.418,6.418,0,1,0,0,12.836h11.815a6.418,6.418,0,0,0,0-12.836Z" transform="translate(-364.12 -625.367)" fill="#030404"/>
          <path id="Path_22173" data-name="Path 22173" d="M382.559,639.01H370.743a7.02,7.02,0,1,1,0-14.04h11.815a7.02,7.02,0,1,1,0,14.04Zm-11.815-12.835a5.815,5.815,0,1,0,0,11.63h11.815a5.815,5.815,0,1,0,0-11.63Z" transform="translate(-363.723 -624.97)" fill="#030404"/>
        </g>
        <g id="Group_9729" data-name="Group 9729" transform="translate(11.819 1.88)">
          <path id="Path_22174" data-name="Path 22174" d="M385.818,638.371a.6.6,0,0,1-.426-.176,7.029,7.029,0,0,1,0-9.928.6.6,0,0,1,.852.852,5.822,5.822,0,0,0,0,8.224.6.6,0,0,1-.426,1.028Z" transform="translate(-383.339 -628.09)" fill="#f5f9ff"/>
        </g>
        <g id="Group_9730" data-name="Group 9730" transform="translate(2.506 2.782)">
          <ellipse id="Ellipse_280" data-name="Ellipse 280" cx="3.462" cy="2.387" rx="3.462" ry="2.387" transform="translate(0.29 7.271) rotate(-84.428)" fill="#f5f9ff"/>
          <path id="Path_22175" data-name="Path 22175" d="M370.716,637.7a2.19,2.19,0,0,1-.227-.011,2.663,2.663,0,0,1-2.049-1.48,4.94,4.94,0,0,1-.531-2.855c.221-2.267,1.7-3.917,3.369-3.755s2.8,2.068,2.58,4.336h0a4.944,4.944,0,0,1-1.072,2.7A2.722,2.722,0,0,1,370.716,637.7Zm.342-6.907c-.925,0-1.8,1.191-1.95,2.677a3.735,3.735,0,0,0,.386,2.153,1.319,1.319,0,0,0,2.371.232,3.733,3.733,0,0,0,.794-2.039h0c.151-1.542-.535-2.925-1.5-3.019A1,1,0,0,0,371.058,630.793Z" transform="translate(-367.882 -629.587)" fill="#f5f9ff"/>
        </g>
      </g>
      <g id="Group_9760" data-name="Group 9760" transform="translate(153.671 72.719)">
        <g id="Group_9732" data-name="Group 9732" transform="translate(21.321 23.158)">
          <path id="Path_22176" data-name="Path 22176" d="M241.7,235.65l12.473,3.445a22.78,22.78,0,0,0,4.786-1.305c1.957-.871,10.443-9.355,13.053-13.271s2.176-36.55,2.176-36.55l15.229-1.305.435,5.439c.435,5.439-.871,36.332-2.393,43.547s-10.878,22.807-15.446,29.769-6.744,39.812-6.744,39.812h-49.6s2.176-54.171,4.206-64.614S239.6,166.068,239.6,166.068l15.446,3.212-8.7,39.356" transform="translate(-215.067 -165.465)" fill="#f5f9ff"/>
          <path id="Path_22177" data-name="Path 22177" d="M264.874,305.436h-49.6a.6.6,0,0,1-.6-.627c.089-2.214,2.2-54.336,4.216-64.7,2.012-10.346,19.559-73.953,19.736-74.594a.6.6,0,0,1,.7-.43l15.446,3.211a.6.6,0,0,1,.466.72l-8.7,39.357a.6.6,0,0,1-1.177-.26l8.571-38.761-14.3-2.972c-1.727,6.266-17.661,64.169-19.565,73.959-1.881,9.674-3.919,57.819-4.169,63.9h48.412c.319-4.52,2.478-32.95,6.8-39.541,5.4-8.235,13.956-22.9,15.362-29.563,1.487-7.048,2.834-37.726,2.382-43.376l-.387-4.835L274.4,188.123c.059,5.245.243,32.541-2.284,36.331-2.547,3.822-11.13,12.519-13.309,13.487a23.141,23.141,0,0,1-4.939,1.351.6.6,0,0,1-.252-.015l-12.473-3.445a.6.6,0,1,1,.32-1.162l12.346,3.41a21.776,21.776,0,0,0,4.509-1.24c1.8-.8,10.269-9.264,12.8-13.055,2.056-3.085,2.195-27.182,2.075-36.207a.6.6,0,0,1,.551-.609l15.228-1.305a.6.6,0,0,1,.441.14.6.6,0,0,1,.211.412l.436,5.439c.455,5.691-.9,36.612-2.4,43.72-1.553,7.354-10.84,22.823-15.533,29.975-4.429,6.75-6.625,39.195-6.646,39.522A.6.6,0,0,1,264.874,305.436Z" transform="translate(-214.669 -165.068)" fill="#030404"/>
        </g>
        <g id="Group_9733" data-name="Group 9733" transform="translate(43.62 96.183)">
          <path id="Path_22178" data-name="Path 22178" d="M267.119,290.414A.608.608,0,0,1,267,290.4l-14.836-2.937a.6.6,0,0,1,.234-1.182l14.836,2.937a.6.6,0,0,1-.116,1.194Z" transform="translate(-251.68 -286.271)" fill="#030404"/>
        </g>
        <g id="Group_9734" data-name="Group 9734" transform="translate(34.96 65.204)">
          <path id="Path_22179" data-name="Path 22179" d="M252.829,263.833a11.835,11.835,0,0,1-9.227-4.422l-3.684-4.588a11.868,11.868,0,0,1,1.824-16.684l.857-.687a11.8,11.8,0,0,1,16.594,1.814l6.641,8.272a7.162,7.162,0,0,1-1.1,10.069h0l-4.51,3.621a11.794,11.794,0,0,1-7.395,2.606Z" transform="translate(-237.306 -234.853)" fill="#f5f9ff"/>
          <path id="Path_22180" data-name="Path 22180" d="M252.829,263.833a11.835,11.835,0,0,1-9.227-4.422l-3.684-4.588a11.868,11.868,0,0,1,1.824-16.684l.857-.687a11.8,11.8,0,0,1,16.594,1.814l6.641,8.272a7.162,7.162,0,0,1-1.1,10.069h0l-4.51,3.621a11.794,11.794,0,0,1-7.395,2.606ZM250,236.058a10.632,10.632,0,0,0-6.646,2.334l-.857.687a10.662,10.662,0,0,0-1.638,14.99l3.683,4.587a10.611,10.611,0,0,0,14.928,1.632l4.51-3.621a5.957,5.957,0,0,0,.915-8.375l-6.641-8.272A10.582,10.582,0,0,0,250,236.058Zm14.357,21.078h0Z" transform="translate(-237.306 -234.853)" fill="#030404"/>
        </g>
        <g id="Group_9735" data-name="Group 9735" transform="translate(53.672 72.007)">
          <path id="Path_22181" data-name="Path 22181" d="M268.583,246.255c-.422.331-.213,1.338.445,2.46l1.641.2-.319,1.523c.974.986,1.965,1.481,2.406,1.135.542-.425.046-1.959-1.106-3.427S269.125,245.83,268.583,246.255Z" transform="translate(-268.364 -246.145)" fill="#030404"/>
        </g>
        <g id="Group_9736" data-name="Group 9736" transform="translate(58.456 78.577)">
          <path id="Path_22182" data-name="Path 22182" d="M278.408,260.134a4.107,4.107,0,0,1-1.768-.392.6.6,0,0,1,.53-1.082,2.865,2.865,0,0,0,3.8-1.324.6.6,0,0,1,1.027.63A4.1,4.1,0,0,1,278.408,260.134Z" transform="translate(-276.304 -257.05)" fill="#030404"/>
        </g>
        <g id="Group_9737" data-name="Group 9737" transform="translate(58.761 88.401)">
          <path id="Path_22183" data-name="Path 22183" d="M277.413,282.048c-.02,0-.04,0-.061,0a.6.6,0,0,1-.539-.66l.758-7.489a.6.6,0,1,1,1.2.121l-.757,7.489A.6.6,0,0,1,277.413,282.048Z" transform="translate(-276.81 -273.354)" fill="#030404"/>
        </g>
        <g id="Group_9738" data-name="Group 9738" transform="translate(46.377)">
          <path id="Path_22184" data-name="Path 22184" d="M260.363,151.67s-3.8-8.06-3-11.686c.64-2.908,4.407-9.224,5.872-11.608a1.559,1.559,0,0,1,1.654-.71h0a1.561,1.561,0,0,1,1.234,1.629l-.71,10.907,1.422-3.866a1.275,1.275,0,0,1,1.495-.8h0a1.273,1.273,0,0,1,.976,1.276c-.072,2.357-.272,8.082-.557,10.134a27.379,27.379,0,0,1-1.937,6.064Z" transform="translate(-256.652 -127.03)" fill="#f5f9ff"/>
          <path id="Path_22185" data-name="Path 22185" d="M266.414,153.216a.612.612,0,0,1-.123-.013l-6.447-1.341a.6.6,0,0,1-.422-.333c-.159-.337-3.877-8.289-3.044-12.072.654-2.974,4.377-9.239,5.947-11.795a2.164,2.164,0,0,1,4,1.274l-.44,6.753a1.877,1.877,0,0,1,3.623.744c-.073,2.373-.273,8.117-.562,10.2a27.593,27.593,0,0,1-1.986,6.231A.6.6,0,0,1,266.414,153.216Zm-6.026-2.471,5.669,1.178a24.994,24.994,0,0,0,1.7-5.457c.281-2.023.479-7.716.551-10.069a.672.672,0,0,0-1.3-.251l-1.421,3.867a.6.6,0,0,1-1.167-.247l.71-10.908a.959.959,0,0,0-1.773-.565c-1.2,1.953-5.165,8.55-5.8,11.423C256.889,142.744,259.749,149.329,260.388,150.745Z" transform="translate(-256.257 -126.632)" fill="#030404"/>
        </g>
        <g id="Group_9739" data-name="Group 9739" transform="translate(2.937 295.683)">
          <path id="Path_22186" data-name="Path 22186" d="M186.789,618.387l-1.632,17.4h40.574v-1.826a5.485,5.485,0,0,0-3.459-5.1l-11.049-4.391a8.638,8.638,0,0,1-3.951-3.167l-1.991-2.924Z" transform="translate(-184.555 -617.784)" fill="#f5f9ff"/>
          <path id="Path_22187" data-name="Path 22187" d="M225.334,636H184.76a.6.6,0,0,1-.6-.659l1.632-17.4a.6.6,0,0,1,.6-.546h18.493a.6.6,0,0,1,.5.263l1.991,2.925a8.01,8.01,0,0,0,3.675,2.945l11.049,4.391a6.058,6.058,0,0,1,3.839,5.658v1.825A.6.6,0,0,1,225.334,636Zm-39.912-1.2h39.31v-1.223a4.856,4.856,0,0,0-3.079-4.537L210.6,624.641a9.216,9.216,0,0,1-4.227-3.388l-1.811-2.661H186.94Z" transform="translate(-184.157 -617.387)" fill="#030404"/>
        </g>
        <g id="Group_9740" data-name="Group 9740" transform="translate(24.475 298.184)">
          <path id="Path_22188" data-name="Path 22188" d="M220.507,626.878a.6.6,0,0,1-.443-1.01l3.807-4.134a.6.6,0,0,1,.886.817l-3.807,4.134A.6.6,0,0,1,220.507,626.878Z" transform="translate(-219.905 -621.539)" fill="#030404"/>
        </g>
        <g id="Group_9741" data-name="Group 9741" transform="translate(27.832 299.665)">
          <path id="Path_22189" data-name="Path 22189" d="M226.079,629.971a.6.6,0,0,1-.511-.921l2.975-4.768a.6.6,0,1,1,1.022.638l-2.974,4.768A.6.6,0,0,1,226.079,629.971Z" transform="translate(-225.477 -623.998)" fill="#030404"/>
        </g>
        <g id="Group_9742" data-name="Group 9742" transform="translate(31.586 301.239)">
          <path id="Path_22190" data-name="Path 22190" d="M232.309,633.062a.6.6,0,0,1-.563-.818L233.756,627a.6.6,0,0,1,1.125.431l-2.009,5.248A.6.6,0,0,1,232.309,633.062Z" transform="translate(-231.707 -626.61)" fill="#030404"/>
        </g>
        <g id="Group_9743" data-name="Group 9743" transform="translate(3.54 310.75)">
          <path id="Path_22191" data-name="Path 22191" d="M185.157,645.335l.224-2.939h40.35v2.939Z" transform="translate(-185.157 -642.395)" fill="#030404"/>
        </g>
        <g id="Group_9744" data-name="Group 9744" transform="translate(54.969 295.683)">
          <path id="Path_22192" data-name="Path 22192" d="M273.149,618.387l-1.632,17.4h40.574v-1.826a5.485,5.485,0,0,0-3.459-5.1l-11.05-4.391a8.645,8.645,0,0,1-3.951-3.167l-1.991-2.924Z" transform="translate(-270.914 -617.784)" fill="#f5f9ff"/>
          <path id="Path_22193" data-name="Path 22193" d="M311.693,636H271.119a.6.6,0,0,1-.6-.659l1.632-17.4a.6.6,0,0,1,.6-.546h18.492a.6.6,0,0,1,.5.263l1.991,2.925a8.017,8.017,0,0,0,3.675,2.946l11.05,4.391a6.058,6.058,0,0,1,3.839,5.658v1.825A.6.6,0,0,1,311.693,636Zm-39.912-1.2h39.31v-1.223a4.857,4.857,0,0,0-3.079-4.537l-11.05-4.391a9.224,9.224,0,0,1-4.227-3.388l-1.811-2.661H273.3Z" transform="translate(-270.517 -617.387)" fill="#030404"/>
        </g>
        <g id="Group_9745" data-name="Group 9745" transform="translate(76.507 298.185)">
          <path id="Path_22194" data-name="Path 22194" d="M306.866,626.878a.6.6,0,0,1-.443-1.01l3.808-4.134a.6.6,0,0,1,.886.817l-3.807,4.134A.6.6,0,0,1,306.866,626.878Z" transform="translate(-306.264 -621.54)" fill="#030404"/>
        </g>
        <g id="Group_9746" data-name="Group 9746" transform="translate(79.864 299.666)">
          <path id="Path_22195" data-name="Path 22195" d="M312.438,629.971a.6.6,0,0,1-.511-.921l2.975-4.768a.6.6,0,1,1,1.023.637l-2.975,4.768A.6.6,0,0,1,312.438,629.971Z" transform="translate(-311.836 -623.998)" fill="#030404"/>
        </g>
        <g id="Group_9747" data-name="Group 9747" transform="translate(83.618 301.239)">
          <path id="Path_22196" data-name="Path 22196" d="M318.668,633.062a.6.6,0,0,1-.562-.818l2.01-5.248a.6.6,0,0,1,1.125.431l-2.01,5.248A.6.6,0,0,1,318.668,633.062Z" transform="translate(-318.066 -626.61)" fill="#030404"/>
        </g>
        <g id="Group_9748" data-name="Group 9748" transform="translate(75.259 8.957)">
          <path id="Path_22197" data-name="Path 22197" d="M315.457,145.167,314.8,142.5l-8.027,1.979.658,2.668a7.84,7.84,0,1,0,8.027-1.979Z" transform="translate(-304.592 -141.896)" fill="#fff"/>
          <path id="Path_22198" data-name="Path 22198" d="M312.639,160.662a8.436,8.436,0,0,1-6.27-14.086l-.58-2.351a.6.6,0,0,1,.44-.73l8.027-1.979a.6.6,0,0,1,.729.44l.58,2.352a8.439,8.439,0,0,1-2.926,16.354ZM307.1,144.522l.514,2.083a.6.6,0,0,1-.153.565,7.237,7.237,0,1,0,7.408-1.827.6.6,0,0,1-.4-.428l-.514-2.083Z" transform="translate(-304.193 -141.499)" fill="#030404"/>
        </g>
        <g id="Group_9749" data-name="Group 9749" transform="translate(75.223 4.195)">
          <path id="Path_22199" data-name="Path 22199" d="M305.882,141.657a.6.6,0,0,1-.585-.459l-1.145-4.647a.6.6,0,0,1,.44-.729l8.963-2.211a.6.6,0,0,1,.729.441l1.146,4.647a.6.6,0,0,1-.441.729l-8.964,2.21A.585.585,0,0,1,305.882,141.657Zm-.416-4.809.857,3.477,7.793-1.921-.857-3.477Z" transform="translate(-304.133 -133.594)" fill="#030404"/>
        </g>
        <g id="Group_9750" data-name="Group 9750" transform="translate(79.517 19.713)">
          <path id="Path_22200" data-name="Path 22200" d="M312.259,166.726v5.808c0,4.242,2.467,12.979,2.467,12.979l10.441-.9a17.836,17.836,0,0,1,.254-4.36,42.532,42.532,0,0,0,1.414-9.137c0-3.1-2.314-8.3-3.169-10.12a1.132,1.132,0,0,0-1.026-.649h0a1.136,1.136,0,0,0-1.136,1.136v9.2l-2.176,3.807a5.247,5.247,0,0,1-2.828-1.2c-.87-.979-1.9-5.841-1.9-5.841A8.949,8.949,0,0,1,312.259,166.726Z" transform="translate(-311.657 -159.749)" fill="#f5f9ff"/>
          <path id="Path_22201" data-name="Path 22201" d="M314.328,185.718a.6.6,0,0,1-.579-.439c-.1-.36-2.49-8.866-2.49-13.142v-5.808a.6.6,0,0,1,.928-.507,7.971,7.971,0,0,0,2.126.642.6.6,0,0,1,.484.469c.412,1.954,1.23,4.972,1.756,5.564a4.057,4.057,0,0,0,2.062.936l1.889-3.307v-9.038a1.739,1.739,0,0,1,3.31-.744c.97,2.062,3.226,7.2,3.226,10.378A32.163,32.163,0,0,1,326,178.2c-.145.634-.281,1.225-.385,1.771a17.4,17.4,0,0,0-.246,4.2.6.6,0,0,1-.55.653l-10.44.895A.48.48,0,0,1,314.328,185.718Zm-1.864-18.473v4.892c0,3.548,1.8,10.459,2.314,12.335l9.36-.8a18.627,18.627,0,0,1,.294-3.923c.107-.56.246-1.165.395-1.816a31.192,31.192,0,0,0,1.009-7.208c0-3.019-2.381-8.313-3.111-9.864a.533.533,0,0,0-1.014.231v9.2a.609.609,0,0,1-.079.3l-2.176,3.807a.592.592,0,0,1-.589.3,5.658,5.658,0,0,1-3.212-1.395c-.827-.931-1.655-4.387-1.951-5.726A12.389,12.389,0,0,1,312.464,167.245Z" transform="translate(-311.259 -159.351)" fill="#030404"/>
        </g>
        <g id="Group_9751" data-name="Group 9751" transform="translate(35.53 65.804)">
          <path id="Path_22202" data-name="Path 22202" d="M250.535,257.586c-1.306-.326-1.632-3.263-1.2-4.677a1.475,1.475,0,0,1,.565-.784,1.816,1.816,0,0,1,2.513.518c.33.475.76,1.09,1.226,1.734,1.473-1.473,0-3.424,0-3.424a.931.931,0,0,1,.014-1.166c1.28-1.476.37-2.546-.511-5.907a5.675,5.675,0,0,1,2.719-6.585,11.187,11.187,0,0,0-12.5,1.015l-.925.743a11.189,11.189,0,0,0-1.72,15.73l3.751,4.671a11.172,11.172,0,0,0,9.923,4.111c.016-2.226.023-4.948-.027-5.327C254.276,257.586,251.84,257.913,250.535,257.586Z" transform="translate(-238.252 -235.85)" fill="#030404"/>
        </g>
        <g id="Group_9752" data-name="Group 9752" transform="translate(55.572 310.75)">
          <path id="Path_22203" data-name="Path 22203" d="M271.517,645.335l.224-2.939h40.35v2.939Z" transform="translate(-271.517 -642.395)" fill="#030404"/>
        </g>
        <g id="Group_9753" data-name="Group 9753" transform="translate(0 88.806)">
          <path id="Path_22204" data-name="Path 22204" d="M251.206,348.542h-.041a4.827,4.827,0,0,1-4.827-4.717L244.9,281.1l-4.786,1.305-3.561,34.956a3.195,3.195,0,0,1-3.179,2.872H214.745a3.2,3.2,0,0,1-3.19-3.442c1.382-19.058,11.64-40.01,11.64-40.01l-1.77-1.754c-16.075,11.207-18.348,42.7-18.348,42.7l-1.424,29.591-.3,3.249c-1.405,11.31-8.375,66.859-11.5,81.3-3.481,16.1-9.572,50.038-9.572,50.038h23.061l19.58-95.87,12.183,95.87h22.046Z" transform="translate(-179.68 -274.424)" fill="#030404"/>
          <path id="Path_22205" data-name="Path 22205" d="M256.755,482.108H234.709a.6.6,0,0,1-.6-.527l-11.724-92.256-18.851,92.3a.6.6,0,0,1-.59.482H179.885a.6.6,0,0,1-.594-.709c.061-.34,6.134-34.133,9.577-50.058,3.12-14.431,10.117-70.21,11.488-81.245l.3-3.23,1.421-29.565a99.331,99.331,0,0,1,3.167-17.28c2.378-8.557,6.987-19.994,15.439-25.885a.6.6,0,0,1,.768.066l1.77,1.754a.6.6,0,0,1,.117.693c-.1.208-10.223,21.07-11.58,39.788a2.606,2.606,0,0,0,.8,2.081,2.579,2.579,0,0,0,1.788.715h18.625a2.594,2.594,0,0,0,2.581-2.33l3.56-34.956a.6.6,0,0,1,.441-.52l4.786-1.306a.608.608,0,0,1,.518.1.6.6,0,0,1,.242.469l1.442,62.725a4.224,4.224,0,0,0,4.224,4.128.641.641,0,0,1,.643.576l5.947,133.361a.6.6,0,0,1-.6.63ZM235.24,480.9h20.885L250.231,348.72a5.428,5.428,0,0,1-4.892-5.279l-1.424-61.955-3.645.994-3.519,34.545a3.8,3.8,0,0,1-3.779,3.413H214.347a3.805,3.805,0,0,1-3.791-4.089c1.271-17.53,10.109-36.864,11.513-39.839l-1.1-1.1c-15.293,11.165-17.662,41.649-17.684,41.958l-1.423,29.577-.3,3.276c-1.374,11.063-8.377,66.888-11.508,81.37-3.161,14.62-8.545,44.34-9.441,49.308h21.848l19.481-95.388a.6.6,0,0,1,.613-.481.6.6,0,0,1,.575.527Z" transform="translate(-179.282 -274.027)" fill="#030404"/>
        </g>
        <g id="Group_9754" data-name="Group 9754" transform="translate(32.474 150.593)">
          <path id="Path_22206" data-name="Path 22206" d="M233.785,392.512a.6.6,0,0,1-.33-1.107l22.59-14.729a.6.6,0,0,1,.659,1.009l-22.59,14.73A.6.6,0,0,1,233.785,392.512Z" transform="translate(-233.181 -376.577)" fill="#f5f9ff"/>
        </g>
        <g id="Group_9755" data-name="Group 9755" transform="translate(43.942 159.155)">
          <path id="Path_22207" data-name="Path 22207" d="M252.817,396.466a.6.6,0,0,1-.28-1.136l8.539-4.472a.6.6,0,0,1,.559,1.067L253.1,396.4A.6.6,0,0,1,252.817,396.466Z" transform="translate(-252.214 -390.788)" fill="#f5f9ff"/>
        </g>
        <g id="Group_9756" data-name="Group 9756" transform="translate(40.947 191.882)">
          <path id="Path_22208" data-name="Path 22208" d="M249.957,468.419a.6.6,0,0,1-.6-.546l-2.11-22.107a.6.6,0,0,1,.543-.657.6.6,0,0,1,.657.543l2.11,22.107a.6.6,0,0,1-.543.657A.465.465,0,0,1,249.957,468.419Z" transform="translate(-247.244 -445.105)" fill="#f5f9ff"/>
        </g>
        <g id="Group_9757" data-name="Group 9757" transform="translate(36.466 138.423)">
          <path id="Path_22209" data-name="Path 22209" d="M251.785,362.9h-9.867a2.113,2.113,0,0,1-2.112-2.112V358.49a2.111,2.111,0,0,1,2.112-2.112h9.867a2.112,2.112,0,0,1,2.112,2.112v2.292a2.112,2.112,0,0,1-2.112,2.112Zm-9.867-5.312a.907.907,0,0,0-.907.907v2.292a.907.907,0,0,0,.907.907h9.867a.907.907,0,0,0,.907-.907V358.49a.907.907,0,0,0-.907-.907Z" transform="translate(-239.807 -356.378)" fill="#f5f9ff"/>
        </g>
        <g id="Group_9758" data-name="Group 9758" transform="translate(47.649 175.957)">
          <path id="Path_22210" data-name="Path 22210" d="M266.5,439.94a.6.6,0,0,1-.4-.152l-7.53-6.71a.6.6,0,0,1-.2-.45v-13.35a.6.6,0,0,1,.6-.6h15.06a.6.6,0,0,1,.6.6v13.536a.6.6,0,0,1-.208.455l-7.53,6.525A.6.6,0,0,1,266.5,439.94Zm-6.928-7.582,6.933,6.178,6.922-6V419.88H259.573Z" transform="translate(-258.368 -418.675)" fill="#f5f9ff"/>
        </g>
        <g id="Group_9759" data-name="Group 9759" transform="translate(16.771 173.743)">
          <path id="Path_22211" data-name="Path 22211" d="M211.588,436.868a.6.6,0,0,1-.431-.181l-3.867-3.949a.6.6,0,1,1,.861-.842l3.5,3.571,7.314-5.512.863-12.65-10.643-1.1a.6.6,0,1,1,.124-1.2l11.222,1.163a.6.6,0,0,1,.539.64l-.921,13.5a.6.6,0,0,1-.238.44l-7.957,6A.606.606,0,0,1,211.588,436.868Z" transform="translate(-207.118 -414.999)" fill="#f5f9ff"/>
        </g>
      </g>
    </g>
    <line id="Line_29" data-name="Line 29" x2="249" transform="translate(63.5 474.5)" fill="none" stroke="#707070" stroke-width="1"/>
  </g>
</svg>
