<svg xmlns="http://www.w3.org/2000/svg" width="12.17" height="12.17" viewBox="0 0 12.17 12.17">
  <g id="Group_10434" data-name="Group 10434" transform="translate(-38.629 -453)">
    <g id="suitcase_1_" data-name="suitcase (1)" transform="translate(38.629 453)">
      <g id="Group_10324" data-name="Group 10324" transform="translate(0 0)">
        <path id="Path_22895" data-name="Path 22895" d="M10.292,31.577H8.529V30.333a.971.971,0,0,0-.911-1.019H4.552a.971.971,0,0,0-.911,1.019v1.244H1.877A2.012,2.012,0,0,0,0,33.7v6.055a1.644,1.644,0,0,0,1.534,1.732h9.1a1.644,1.644,0,0,0,1.534-1.732V33.7A2.012,2.012,0,0,0,10.292,31.577ZM4.356,30.333a.2.2,0,0,1,.2-.211H7.618a.2.2,0,0,1,.2.211v1.244H4.356Zm7.1,9.419a.877.877,0,0,1-.818.924h-9.1a.877.877,0,0,1-.818-.924V35.98a1.47,1.47,0,0,0,.366.19l.021.006,3.643,1.006v.332a.9.9,0,0,0,.837.946h1a.9.9,0,0,0,.837-.946v-.332l3.643-1.006.021-.006a1.47,1.47,0,0,0,.366-.19v3.772ZM5.46,37.513v-1.14a.131.131,0,0,1,.122-.138h1a.131.131,0,0,1,.122.138v1.14a.131.131,0,0,1-.122.138h-1A.131.131,0,0,1,5.46,37.513Zm5.994-3a.918.918,0,0,1-.568.883l-3.463.956a.894.894,0,0,0-.837-.922h-1a.894.894,0,0,0-.837.922l-3.463-.956a.919.919,0,0,1-.568-.883V33.7a1.246,1.246,0,0,1,1.162-1.313h8.415A1.246,1.246,0,0,1,11.455,33.7v.814Z" transform="translate(0 -29.314)" fill="#fff"/>
      </g>
    </g>
    <g id="Rectangle_1430" data-name="Rectangle 1430" transform="translate(43.128 459.085)" fill="#fff" stroke="#dfa32a" stroke-width="0.6">
      <rect width="3.172" height="3.305" rx="1" stroke="none"/>
      <rect x="0.3" y="0.3" width="2.572" height="2.705" rx="0.7" fill="none"/>
    </g>
  </g>
</svg>
