<svg id="info" xmlns="http://www.w3.org/2000/svg" width="4.14" height="9.392" viewBox="0 0 4.14 9.392">
  <path id="Path_22514" data-name="Path 22514" d="M34.952,7.937l-.124.508q-.559.221-.893.336a2.355,2.355,0,0,1-.774.116,1.545,1.545,0,0,1-1.053-.33,1.069,1.069,0,0,1-.376-.839,2.968,2.968,0,0,1,.028-.4q.029-.207.091-.466l.466-1.65q.062-.237.1-.449a1.952,1.952,0,0,0,.042-.387.6.6,0,0,0-.13-.441.737.737,0,0,0-.5-.125,1.306,1.306,0,0,0-.371.057c-.127.037-.235.074-.326.107l.125-.509q.458-.186.876-.319a2.621,2.621,0,0,1,.792-.133,1.508,1.508,0,0,1,1.037.325,1.079,1.079,0,0,1,.364.845c0,.072-.008.2-.025.379a2.532,2.532,0,0,1-.093.5L33.752,6.7a4.366,4.366,0,0,0-.1.453,2.33,2.33,0,0,0-.045.384.553.553,0,0,0,.146.446.825.825,0,0,0,.508.119,1.466,1.466,0,0,0,.384-.059A2.146,2.146,0,0,0,34.952,7.937Zm.118-6.9a.961.961,0,0,1-.325.732,1.105,1.105,0,0,1-.782.3,1.118,1.118,0,0,1-.786-.3.959.959,0,0,1-.328-.732A.969.969,0,0,1,33.178.3a1.16,1.16,0,0,1,1.567,0A.971.971,0,0,1,35.07,1.039Z" transform="translate(-31.139 0.494)" fill="#fff"/>
  <circle id="Ellipse_308" data-name="Ellipse 308" cx="1.335" cy="1.335" r="1.335" transform="translate(1.471 0)" fill="#fff"/>
</svg>
