<svg xmlns="http://www.w3.org/2000/svg" xmlns:xlink="http://www.w3.org/1999/xlink" width="240.95" height="220.532" viewBox="0 0 240.95 220.532">
  <defs>
    <clipPath id="clip-path">
      <rect id="Rectangle_1443" data-name="Rectangle 1443" width="53.445" height="43.762" fill="#263238"/>
    </clipPath>
  </defs>
  <g id="Group_10634" data-name="Group 10634" transform="translate(-67 -244.468)">
    <circle id="Ellipse_322" data-name="Ellipse 322" cx="107" cy="107" r="107" transform="translate(81 251)" fill="#f2f2f2"/>
    <g id="Group_10313" data-name="Group 10313" transform="translate(42.398 232.928)">
      <path id="Path_22867" data-name="Path 22867" d="M1165.42,944.606a.5.5,0,0,0-.679-.175l-1.646.973-.973-1.646a.5.5,0,0,0-.854.5l.973,1.646-1.646.973a.5.5,0,1,0,.5.854l1.646-.973.973,1.646a.5.5,0,0,0,.524.234.486.486,0,0,0,.156-.059.5.5,0,0,0,.175-.679l-.972-1.646,1.646-.973a.5.5,0,0,0,.175-.679" transform="translate(-935.209 -764.618)" fill="#a8a8a8"/>
      <path id="Path_22868" data-name="Path 22868" d="M1196.78,984.94a2.161,2.161,0,1,1,2.161-2.161,2.163,2.163,0,0,1-2.161,2.161m0-3.167a1.006,1.006,0,1,0,1.006,1.006,1.007,1.007,0,0,0-1.006-1.006" transform="translate(-962.395 -794.053)" fill="#a8a8a8"/>
      <path id="Path_22869" data-name="Path 22869" d="M140.545,1138.419a2.161,2.161,0,1,1,2.161-2.161,2.163,2.163,0,0,1-2.161,2.161m0-3.167a1.006,1.006,0,1,0,1.006,1.006,1.007,1.007,0,0,0-1.006-1.006" transform="translate(-74.402 -915.812)" fill="#a8a8a8"/>
      <path id="Path_22870" data-name="Path 22870" d="M1298.588,13.883a2.161,2.161,0,1,1,2.161-2.161,2.164,2.164,0,0,1-2.161,2.161m0-3.167a1.006,1.006,0,1,0,1.006,1.006,1.007,1.007,0,0,0-1.006-1.006" transform="translate(-1073.967 1.979)" fill="#a8a8a8"/>
      <path id="Path_22871" data-name="Path 22871" d="M1480.562,295.128a.5.5,0,0,0-.229.663l.838,1.719-1.719.838a.5.5,0,0,0,.434.892l1.719-.837.838,1.719a.5.5,0,0,0,.892-.435l-.837-1.719,1.719-.837a.5.5,0,0,0,.275-.5.491.491,0,0,0-.047-.16.5.5,0,0,0-.663-.229l-1.719.837-.838-1.719a.5.5,0,0,0-.663-.229" transform="translate(-1218.943 -224.528)" fill="#a8a8a8"/>
      <path id="Path_22872" data-name="Path 22872" d="M1326.509,477.748a2.161,2.161,0,1,1,2.161-2.161,2.163,2.163,0,0,1-2.161,2.161m0-3.167a1.006,1.006,0,1,0,1.006,1.006,1.007,1.007,0,0,0-1.006-1.006" transform="translate(-1096.117 -366.016)" fill="#a8a8a8"/>
      <path id="Path_22873" data-name="Path 22873" d="M.265,639.614a.5.5,0,0,0-.022.7l1.308,1.395L.156,643.018a.5.5,0,1,0,.679.724l1.394-1.308,1.308,1.395a.5.5,0,0,0,.724-.679l-1.308-1.395,1.395-1.308a.5.5,0,0,0-.679-.724l-1.395,1.308L.966,639.636a.5.5,0,0,0-.7-.023" transform="translate(35.382 -523.421)" fill="#a8a8a8"/>
      <path id="Path_22874" data-name="Path 22874" d="M96.034,738.518a2.161,2.161,0,1,1,2.161-2.161,2.163,2.163,0,0,1-2.161,2.161m0-3.167a1.006,1.006,0,1,0,1.006,1.006,1.007,1.007,0,0,0-1.006-1.006" transform="translate(-39.09 -598.561)" fill="#a8a8a8"/>
      <path id="Path_22875" data-name="Path 22875" d="M54.094,647.394a.309.309,0,0,1-.017-.618c1.02-.057,2.053-.159,3.07-.3a.309.309,0,0,1,.087.613c-1.034.146-2.084.249-3.121.308h-.018m-4.352-.013h-.02c-1.039-.065-2.089-.176-3.119-.329a.309.309,0,1,1,.091-.612c1.013.15,2.044.259,3.066.323a.309.309,0,0,1-.019.618m11.715-1.15a.309.309,0,0,1-.078-.609c.992-.26,1.983-.566,2.947-.907a.309.309,0,0,1,.207.583c-.98.348-1.988.658-3,.923a.308.308,0,0,1-.079.01m-19.069-.071a.31.31,0,0,1-.082-.011c-1-.274-2.01-.6-2.988-.954a.309.309,0,1,1,.213-.581c.962.352,1.95.668,2.938.938a.309.309,0,0,1-.081.608m26.05-2.539a.309.309,0,0,1-.138-.587c.918-.454,1.827-.954,2.7-1.484a.309.309,0,1,1,.321.529c-.89.54-1.815,1.048-2.748,1.51a.308.308,0,0,1-.137.032m-33-.143a.309.309,0,0,1-.14-.033c-.928-.471-1.848-.987-2.735-1.534a.309.309,0,0,1,.325-.527c.872.539,1.777,1.046,2.69,1.509a.31.31,0,0,1-.14.586m39.309-3.825a.309.309,0,0,1-.191-.553c.806-.631,1.6-1.3,2.347-2a.309.309,0,0,1,.421.454c-.763.709-1.566,1.393-2.387,2.034a.308.308,0,0,1-.19.066m-45.584-.2a.308.308,0,0,1-.192-.067c-.816-.648-1.614-1.338-2.373-2.051a.309.309,0,0,1,.424-.451c.746.7,1.531,1.38,2.333,2.017a.309.309,0,0,1-.193.552m50.959-4.963a.31.31,0,0,1-.236-.51c.664-.78,1.3-1.6,1.9-2.431a.309.309,0,0,1,.5.36c-.606.847-1.255,1.679-1.93,2.472a.309.309,0,0,1-.236.109m-56.3-.233a.308.308,0,0,1-.237-.111c-.67-.8-1.313-1.635-1.912-2.486a.309.309,0,1,1,.506-.356c.589.837,1.221,1.659,1.88,2.444a.309.309,0,0,1-.237.508m60.532-5.9a.309.309,0,0,1-.271-.459c.494-.9.956-1.827,1.373-2.762a.309.309,0,1,1,.565.252c-.424.951-.893,1.9-1.4,2.808a.31.31,0,0,1-.271.16m-64.716-.266a.31.31,0,0,1-.273-.163c-.494-.917-.954-1.866-1.368-2.822a.309.309,0,1,1,.568-.246c.407.94.86,1.873,1.345,2.774a.309.309,0,0,1-.272.456M87.268,621.5a.31.31,0,0,1-.3-.4c.3-.979.569-1.982.788-2.981a.309.309,0,1,1,.6.133c-.223,1.017-.493,2.037-.8,3.032a.309.309,0,0,1-.3.218M16.785,621.2a.309.309,0,0,1-.3-.221c-.3-.995-.557-2.017-.772-3.039a.309.309,0,0,1,.606-.127c.211,1,.466,2.01.759,2.989a.31.31,0,0,1-.3.4m71.957-7.016h-.03a.309.309,0,0,1-.278-.338c.1-1.019.155-2.054.167-3.079a.309.309,0,1,1,.619.007c-.012,1.042-.07,2.1-.17,3.131a.31.31,0,0,1-.308.28m-73.367-.3a.309.309,0,0,1-.308-.281c-.094-1.039-.145-2.093-.151-3.133a.309.309,0,0,1,.308-.311h0a.309.309,0,0,1,.309.308c.006,1.023.056,2.059.148,3.081a.309.309,0,0,1-.28.336h-.028m73.329-7.15a.309.309,0,0,1-.307-.277c-.109-1.016-.262-2.042-.456-3.051l-.007-.039a.309.309,0,0,1,.607-.118l.008.04c.2,1.026.353,2.069.463,3.1a.309.309,0,0,1-.275.34l-.033,0m-73.244-.306-.035,0a.309.309,0,0,1-.272-.342c.118-1.035.282-2.077.487-3.1a.309.309,0,1,1,.607.122c-.2,1-.363,2.029-.479,3.046a.31.31,0,0,1-.307.274m71.7-7.028a.309.309,0,0,1-.295-.216c-.311-.977-.666-1.951-1.058-2.9a.309.309,0,0,1,.572-.237c.4.961.76,1.952,1.076,2.945a.309.309,0,0,1-.3.4m-70.11-.255a.31.31,0,0,1-.294-.406c.325-.989.7-1.977,1.1-2.936a.309.309,0,1,1,.57.242c-.4.943-.766,1.914-1.085,2.887a.31.31,0,0,1-.294.213M84.2,592.565a.309.309,0,0,1-.27-.158c-.5-.893-1.047-1.775-1.622-2.622a.309.309,0,1,1,.512-.348c.585.862,1.14,1.759,1.65,2.667a.31.31,0,0,1-.27.461m-64.114-.23a.309.309,0,0,1-.268-.463c.517-.9,1.079-1.8,1.67-2.654a.309.309,0,1,1,.51.351c-.581.843-1.134,1.722-1.642,2.611a.309.309,0,0,1-.269.156m59.825-5.862a.309.309,0,0,1-.234-.106c-.671-.773-1.384-1.527-2.119-2.241a.309.309,0,1,1,.431-.444c.747.726,1.472,1.493,2.155,2.278a.309.309,0,0,1-.233.512m-55.493-.2a.31.31,0,0,1-.232-.514c.688-.782,1.417-1.545,2.167-2.266a.309.309,0,1,1,.429.446c-.738.71-1.455,1.459-2.131,2.229a.309.309,0,0,1-.232.105m50.063-4.9a.309.309,0,0,1-.188-.064c-.813-.623-1.663-1.219-2.525-1.771a.309.309,0,0,1,.334-.521c.877.562,1.741,1.167,2.568,1.8a.309.309,0,0,1-.188.555m-44.6-.171a.309.309,0,0,1-.187-.556c.831-.628,1.7-1.228,2.58-1.783a.309.309,0,1,1,.33.524c-.866.546-1.719,1.136-2.536,1.753a.308.308,0,0,1-.186.063m38.26-3.743a.307.307,0,0,1-.135-.031c-.922-.447-1.873-.861-2.829-1.229a.309.309,0,1,1,.222-.578c.972.374,1.939.795,2.876,1.25a.31.31,0,0,1-.135.588m-31.889-.123a.309.309,0,0,1-.133-.589c.94-.446,1.912-.858,2.887-1.223a.31.31,0,0,1,.217.58c-.959.359-1.915.764-2.839,1.2a.307.307,0,0,1-.132.03m24.888-2.439a.308.308,0,0,1-.076-.01c-.993-.253-2.008-.466-3.018-.633a.309.309,0,1,1,.1-.61c1.027.17,2.06.387,3.07.644a.309.309,0,0,1-.076.609m-17.867-.057a.309.309,0,0,1-.073-.61c.615-.151,1.244-.288,1.868-.408.4-.077.8-.148,1.206-.211a.309.309,0,0,1,.1.611c-.395.063-.794.133-1.186.208-.615.118-1.233.253-1.838.4a.317.317,0,0,1-.074.009M53.757,573.8h-.014c-.542-.024-1.092-.037-1.634-.037-.481,0-.969.01-1.45.029a.309.309,0,1,1-.025-.618c.49-.019.986-.029,1.475-.029.551,0,1.11.013,1.661.037a.309.309,0,0,1-.014.618" transform="translate(9.686 -442.313)" fill="#a8a8a8"/>
      <path id="Path_22876" data-name="Path 22876" d="M651.619,143.076l-.59.036a.342.342,0,0,1-.041-.683h0c1.118-.063,2.249-.154,3.365-.27a.342.342,0,0,1,.071.68c-.93.1-1.875.176-2.807.236m-5.333.146h-.026c-1.131-.011-2.277-.05-3.405-.115a.342.342,0,1,1,.04-.683c1.117.065,2.252.1,3.373.114a.342.342,0,0,1,.019.683m12.83-1.026a.342.342,0,0,1-.079-.678c1.106-.189,2.221-.406,3.313-.646a.342.342,0,0,1,.147.668c-1.1.242-2.227.461-3.344.652l-.036,0m-20.947.479a.353.353,0,0,1-.065,0c-1.123-.141-2.257-.311-3.37-.5a.342.342,0,1,1,.118-.674c1.1.192,2.225.361,3.338.5a.342.342,0,0,1-.02.68m28.876-2.3a.342.342,0,0,1-.117-.67c1.076-.312,2.158-.655,3.218-1.018a.342.342,0,0,1,.222.647c-1.07.367-2.162.713-3.249,1.028a.347.347,0,0,1-.073.013m-36.883.822a.345.345,0,0,1-.1-.009c-1.1-.269-2.208-.569-3.3-.891a.342.342,0,1,1,.194-.656c1.077.319,2.175.616,3.264.882a.342.342,0,0,1-.059.673m44.552-3.535a.342.342,0,0,1-.154-.657c1.033-.434,2.069-.9,3.08-1.38a.342.342,0,0,1,.295.617c-1.02.487-2.066.956-3.11,1.394a.343.343,0,0,1-.11.026m-52.34,1.147a.34.34,0,0,1-.141-.021c-1.061-.393-2.127-.818-3.17-1.262a.342.342,0,1,1,.268-.629c1.032.44,2.089.86,3.14,1.25a.342.342,0,0,1-.1.662m59.642-4.719a.342.342,0,0,1-.19-.639c.974-.548,1.948-1.127,2.895-1.721a.342.342,0,1,1,.364.579c-.956.6-1.94,1.184-2.923,1.738a.339.339,0,0,1-.145.043m-67.1,1.457a.339.339,0,0,1-.176-.036c-1.01-.512-2.02-1.055-3-1.614a.342.342,0,1,1,.338-.595c.974.554,1.975,1.091,2.975,1.6a.342.342,0,0,1-.133.646m73.944-5.84a.342.342,0,0,1-.223-.618c.906-.657,1.808-1.344,2.682-2.042a.342.342,0,0,1,.427.534c-.882.706-1.793,1.4-2.708,2.062a.342.342,0,0,1-.178.064m-80.982,1.751a.34.34,0,0,1-.21-.056c-.945-.623-1.887-1.277-2.8-1.943a.342.342,0,0,1,.4-.552c.9.66,1.838,1.308,2.773,1.925a.342.342,0,0,1-.166.627m87.282-6.889a.342.342,0,0,1-.253-.593c.825-.755,1.644-1.541,2.433-2.336a.342.342,0,0,1,.485.482c-.8.8-1.624,1.6-2.457,2.358a.34.34,0,0,1-.209.089M601.348,126.6a.341.341,0,0,1-.241-.079c-.867-.725-1.729-1.481-2.56-2.247a.342.342,0,0,1,.463-.5c.824.758,1.677,1.507,2.536,2.226a.342.342,0,0,1-.2.6m99.486-7.854a.342.342,0,0,1-.28-.566c.735-.845,1.46-1.719,2.154-2.6a.342.342,0,0,1,.537.424c-.7.887-1.433,1.769-2.175,2.623a.341.341,0,0,1-.236.117m-105.418,2.289a.341.341,0,0,1-.27-.106c-.779-.819-1.549-1.667-2.288-2.522a.342.342,0,0,1,.517-.447c.732.846,1.494,1.687,2.266,2.5a.342.342,0,0,1-.225.577m110.4-8.72a.342.342,0,0,1-.3-.535c.635-.924,1.257-1.875,1.847-2.826a.342.342,0,0,1,.581.36c-.6.961-1.223,1.921-1.865,2.854a.341.341,0,0,1-.26.147m-115.661,2.521a.341.341,0,0,1-.3-.135c-.68-.9-1.348-1.831-1.985-2.764a.342.342,0,0,1,.565-.385c.631.924,1.292,1.845,1.965,2.738a.342.342,0,0,1-.251.547m119.884-9.478a.342.342,0,0,1-.324-.5c.527-.991,1.036-2.007,1.515-3.019a.342.342,0,1,1,.618.292c-.483,1.022-1,2.048-1.529,3.048a.342.342,0,0,1-.28.181m-124.4,2.723a.342.342,0,0,1-.317-.168c-.572-.972-1.129-1.972-1.654-2.97a.342.342,0,0,1,.605-.318c.52.989,1.071,1.979,1.638,2.942a.342.342,0,0,1-.272.515M713.447,97.967a.342.342,0,0,1-.34-.466c.411-1.045.8-2.113,1.161-3.174a.342.342,0,1,1,.648.219c-.363,1.072-.757,2.15-1.172,3.2a.342.342,0,0,1-.3.216m-131.52,2.887a.342.342,0,0,1-.335-.2c-.458-1.034-.9-2.093-1.3-3.148a.342.342,0,0,1,.638-.247c.4,1.045.839,2.094,1.292,3.118a.342.342,0,0,1-.174.451.338.338,0,0,1-.116.029m134.06-10.626a.342.342,0,0,1-.353-.429c.288-1.085.554-2.192.789-3.288a.342.342,0,0,1,.669.143c-.238,1.107-.506,2.224-.8,3.32a.342.342,0,0,1-.308.254M579.065,93.239a.342.342,0,0,1-.348-.24c-.336-1.079-.651-2.181-.936-3.276a.342.342,0,0,1,.662-.172c.282,1.084.594,2.176.927,3.245a.342.342,0,0,1-.3.443M717.621,82.251a.349.349,0,0,1-.072,0,.342.342,0,0,1-.289-.388c.161-1.108.3-2.235.406-3.35a.342.342,0,1,1,.68.066c-.109,1.126-.247,2.264-.409,3.383a.342.342,0,0,1-.316.292m-140.529,3.1a.342.342,0,0,1-.357-.277c-.211-1.109-.4-2.24-.559-3.362a.342.342,0,0,1,.677-.1c.158,1.111.344,2.231.553,3.33a.342.342,0,0,1-.272.4l-.042.005m141.235-11.2h-.032a.342.342,0,0,1-.332-.352c.033-1.119.039-2.255.019-3.375a.342.342,0,0,1,.684-.012c.02,1.131.014,2.277-.019,3.407a.342.342,0,0,1-.32.331M576.022,77.281a.342.342,0,0,1-.363-.315q-.03-.4-.056-.8c-.056-.864-.1-1.74-.121-2.6a.342.342,0,1,1,.684-.019c.024.856.065,1.724.12,2.58q.025.4.055.791a.342.342,0,0,1-.315.367h0M718.1,66.015a.342.342,0,0,1-.363-.312c-.094-1.114-.216-2.243-.363-3.357l-.014-.108a.342.342,0,0,1,.678-.09l.014.11c.148,1.123.271,2.263.366,3.388a.342.342,0,0,1-.312.369H718.1M575.869,69.148h-.036a.342.342,0,0,1-.329-.355c.043-1.13.115-2.275.211-3.4a.342.342,0,0,1,.681.059c-.1,1.115-.167,2.249-.21,3.368a.342.342,0,0,1-.319.328m141.074-11.3a.342.342,0,0,1-.357-.274c-.221-1.1-.47-2.206-.743-3.292a.342.342,0,0,1,.664-.166c.275,1.1.527,2.214.75,3.324a.343.343,0,0,1-.313.409m-140.3,3.2a.334.334,0,0,1-.075,0,.342.342,0,0,1-.286-.39c.173-1.12.375-2.252.6-3.363a.342.342,0,0,1,.67.137c-.224,1.1-.425,2.221-.6,3.33a.342.342,0,0,1-.316.289M714.89,49.98a.342.342,0,0,1-.347-.236c-.344-1.066-.719-2.138-1.113-3.186a.342.342,0,1,1,.64-.241c.4,1.058.777,2.14,1.124,3.217a.343.343,0,0,1-.3.447m-136.54,3.1a.342.342,0,0,1-.352-.432c.3-1.092.631-2.191.984-3.269a.342.342,0,0,1,.65.213c-.349,1.067-.677,2.156-.974,3.237a.342.342,0,0,1-.308.251m133.6-10.686a.342.342,0,0,1-.333-.2c-.464-1.02-.959-2.041-1.472-3.037a.342.342,0,1,1,.608-.313c.517,1.005,1.017,2.037,1.486,3.067a.342.342,0,0,1-.289.483m-130.993,2.97a.342.342,0,0,1-.339-.469c.423-1.05.877-2.1,1.351-3.133a.342.342,0,1,1,.621.286c-.469,1.019-.919,2.063-1.338,3.1a.342.342,0,0,1-.3.213M708.162,35.2a.341.341,0,0,1-.315-.165c-.577-.957-1.185-1.914-1.807-2.843a.342.342,0,0,1,.568-.38c.628.938,1.242,1.9,1.824,2.871a.342.342,0,0,1-.27.518M584.428,38a.342.342,0,0,1-.322-.5c.54-.994,1.111-1.989,1.7-2.957a.342.342,0,1,1,.585.354c-.581.959-1.147,1.944-1.681,2.929a.342.342,0,0,1-.279.178m119.15-9.506a.341.341,0,0,1-.293-.132c-.684-.887-1.4-1.768-2.121-2.62a.342.342,0,1,1,.521-.443c.731.861,1.451,1.751,2.142,2.646a.342.342,0,0,1-.248.55M588.712,31.08a.342.342,0,0,1-.3-.537c.649-.926,1.329-1.849,2.021-2.744a.342.342,0,1,1,.541.419c-.685.886-1.359,1.8-2,2.718a.341.341,0,0,1-.258.145m109.543-8.732a.34.34,0,0,1-.267-.1c-.78-.8-1.59-1.6-2.407-2.364a.342.342,0,1,1,.467-.5c.825.773,1.642,1.576,2.43,2.386a.342.342,0,0,1-.223.579m-104.5,2.344a.342.342,0,0,1-.278-.568c.75-.847,1.529-1.686,2.318-2.5a.342.342,0,0,1,.49.477c-.781.8-1.553,1.634-2.3,2.472a.341.341,0,0,1-.234.115m98.516-7.848a.34.34,0,0,1-.239-.077c-.866-.71-1.761-1.408-2.66-2.077a.342.342,0,1,1,.408-.549c.908.675,1.812,1.38,2.686,2.1a.342.342,0,0,1-.195.606m-92.787,2.075a.342.342,0,0,1-.251-.6c.84-.756,1.71-1.5,2.584-2.216a.342.342,0,0,1,.433.53c-.866.708-1.728,1.446-2.56,2.195a.341.341,0,0,1-.206.087m86.211-6.866a.34.34,0,0,1-.207-.054c-.942-.607-1.911-1.2-2.88-1.763a.342.342,0,0,1,.343-.592c.979.568,1.957,1.166,2.908,1.78a.342.342,0,0,1-.163.629m-79.867,1.784a.342.342,0,0,1-.221-.62c.92-.655,1.868-1.3,2.818-1.905a.342.342,0,0,1,.369.576c-.941.6-1.88,1.239-2.792,1.887a.34.34,0,0,1-.176.063m72.787-5.8A.338.338,0,0,1,678.438,8c-1-.5-2.036-.976-3.063-1.425a.342.342,0,0,1,.273-.627c1.038.453,2.078.937,3.093,1.438a.342.342,0,0,1-.13.648M612.7,9.514a.342.342,0,0,1-.187-.641c.99-.546,2.008-1.075,3.023-1.572a.342.342,0,1,1,.3.614c-1.006.493-2.013,1.017-2.994,1.557a.341.341,0,0,1-.143.042m58.415-4.664a.338.338,0,0,1-.138-.019c-1.056-.379-2.135-.738-3.208-1.066a.342.342,0,0,1,.2-.654c1.083.331,2.172.693,3.239,1.076a.342.342,0,0,1-.094.663M620.042,6a.342.342,0,0,1-.152-.658c1.046-.428,2.117-.837,3.184-1.215a.342.342,0,0,1,.228.645c-1.056.374-2.117.779-3.153,1.2a.344.344,0,0,1-.108.025m43.264-3.462a.337.337,0,0,1-.1-.008c-1.093-.256-2.207-.488-3.311-.691a.342.342,0,0,1,.124-.673c1.115.2,2.239.439,3.343.7a.342.342,0,0,1-.056.674m-35.572.818a.342.342,0,0,1-.114-.67c1.088-.305,2.2-.589,3.3-.843a.342.342,0,0,1,.153.666c-1.092.251-2.193.532-3.27.835a.34.34,0,0,1-.071.012m27.55-2.212a.346.346,0,0,1-.062,0c-1.112-.128-2.243-.231-3.361-.305a.342.342,0,1,1,.046-.682c1.129.075,2.271.179,3.394.308a.342.342,0,0,1-.016.681m-19.606.462A.342.342,0,0,1,635.6.932c.7-.112,1.4-.216,2.106-.309.422-.056.849-.108,1.271-.156a.342.342,0,1,1,.077.679c-.417.048-.841.1-1.259.155-.7.092-1.4.195-2.086.306l-.033,0M647.162.684h-.022c-1.119,0-2.254.027-3.374.081a.342.342,0,0,1-.039-.683h.006C644.865.029,646.011,0,647.14,0a.342.342,0,0,1,.022.683" transform="translate(-467.404 19.8)" fill="#a8a8a8"/>
      <path id="Path_22877" data-name="Path 22877" d="M537.083,93.631V210.575h-.4l-11.456-8.615-11.457,8.615h-1.193l-11.457-8.615-11.458,8.615h-1.177l-11.437-8.6-11.436,8.6h-1.171l-11.449-8.609-11.449,8.609h-1.208l-11.449-8.609-11.449,8.609h-1.194l-11.427-8.593-11.427,8.593h-.755V61.13H495.028Z" transform="translate(-318.767 -8.018)" fill="#e4e4e4"/>
      <path id="Path_22878" data-name="Path 22878" d="M930.109,93.631H888.054V61.13Z" transform="translate(-711.488 -7.84)" fill="#ccc"/>
      <g id="Group_10633" data-name="Group 10633" transform="translate(119.33 104.567)">
        <g id="Group_10632" data-name="Group 10632" transform="translate(0 0)" clip-path="url(#clip-path)">
          <path id="Path_22979" data-name="Path 22979" d="M0,38.938v4.824s9.645-9.648,26.814-9.648c16.985,0,26.63,9.648,26.63,9.648V38.938s-9.645-9.648-26.63-9.648C9.645,29.291,0,38.938,0,38.938M48.618,9.645a4.776,4.776,0,0,0,4.826-4.824,4.823,4.823,0,0,0-9.645,0,4.773,4.773,0,0,0,4.819,4.824M0,4.821A4.771,4.771,0,0,1,4.817,0,4.775,4.775,0,0,1,9.645,4.821,4.777,4.777,0,0,1,4.817,9.645,4.773,4.773,0,0,1,0,4.821" transform="translate(0 0)" fill="#263238" fill-rule="evenodd"/>
        </g>
      </g>
    </g>
  </g>
</svg>
