<svg xmlns="http://www.w3.org/2000/svg" width="187.718" height="177.722" viewBox="0 0 187.718 177.722">
  <g id="Group_10313" data-name="Group 10313" transform="translate(-24.602 -11.54)">
    <g id="Group_43309" data-name="Group 43309">
      <path id="Path_22867" data-name="Path 22867" d="M1164.3,944.365a.386.386,0,0,0-.529-.136l-1.283.758-.758-1.283a.386.386,0,1,0-.665.393l.758,1.283-1.283.758a.386.386,0,1,0,.393.665l1.283-.758.758,1.283a.387.387,0,0,0,.408.182.387.387,0,0,0,.257-.576l-.758-1.283,1.282-.758a.387.387,0,0,0,.136-.529" transform="translate(-979.513 -801.591)" fill="#a8a8a8"/>
      <path id="Path_22868" data-name="Path 22868" d="M1196.3,983.985a1.684,1.684,0,1,1,1.683-1.683,1.685,1.685,0,0,1-1.683,1.683m0-2.467a.784.784,0,1,0,.784.784.785.785,0,0,0-.784-.784" transform="translate(-1008.264 -832.721)" fill="#a8a8a8"/>
      <path id="Path_22869" data-name="Path 22869" d="M140.067,1137.464a1.684,1.684,0,1,1,1.683-1.684,1.685,1.685,0,0,1-1.683,1.684m0-2.467a.784.784,0,1,0,.784.784.785.785,0,0,0-.784-.784" transform="translate(-83.102 -961.487)" fill="#a8a8a8"/>
      <path id="Path_22870" data-name="Path 22870" d="M1298.111,12.928a1.684,1.684,0,1,1,1.684-1.683,1.685,1.685,0,0,1-1.684,1.683m0-2.467a.784.784,0,1,0,.784.784.785.785,0,0,0-.784-.784" transform="translate(-1117.679 1.979)" fill="#a8a8a8"/>
      <path id="Path_22871" data-name="Path 22871" d="M1480.255,295.117a.386.386,0,0,0-.178.517l.653,1.339-1.339.652a.386.386,0,0,0,.338.695l1.339-.652.653,1.339a.386.386,0,0,0,.695-.339l-.652-1.339,1.339-.652a.387.387,0,0,0,.215-.392.382.382,0,0,0-.037-.125.387.387,0,0,0-.517-.178l-1.339.652-.653-1.339a.387.387,0,0,0-.517-.178" transform="translate(-1271 -237.565)" fill="#a8a8a8"/>
      <path id="Path_22872" data-name="Path 22872" d="M1326.031,476.793a1.684,1.684,0,1,1,1.684-1.684,1.685,1.685,0,0,1-1.684,1.684m0-2.467a.784.784,0,1,0,.784.784.785.785,0,0,0-.784-.784" transform="translate(-1141.104 -387.196)" fill="#a8a8a8"/>
      <path id="Path_22873" data-name="Path 22873" d="M.206,639.584a.386.386,0,0,0-.017.546l1.019,1.087L.122,642.236a.386.386,0,1,0,.529.564l1.086-1.019,1.019,1.087a.386.386,0,0,0,.564-.529L2.3,641.252l1.087-1.019a.386.386,0,1,0-.529-.564l-1.087,1.019L.753,639.6a.387.387,0,0,0-.546-.018" transform="translate(33 -546.512)" fill="#a8a8a8"/>
      <path id="Path_22874" data-name="Path 22874" d="M95.556,737.563a1.684,1.684,0,1,1,1.683-1.683,1.685,1.685,0,0,1-1.683,1.683m0-2.467a.784.784,0,1,0,.784.784.785.785,0,0,0-.784-.784" transform="translate(-45.758 -625.977)" fill="#a8a8a8"/>
      <path id="Path_22875" data-name="Path 22875" d="M45.438,630.99a.241.241,0,0,1-.013-.482c.795-.045,1.6-.124,2.391-.236a.241.241,0,0,1,.067.477c-.805.114-1.623.194-2.432.24h-.014m-3.391-.01h-.015c-.81-.051-1.627-.137-2.43-.256a.241.241,0,1,1,.071-.477c.789.117,1.593.2,2.389.252a.241.241,0,0,1-.015.482m9.127-.9a.241.241,0,0,1-.061-.474c.773-.2,1.545-.441,2.3-.707a.241.241,0,0,1,.161.454c-.763.271-1.549.513-2.335.719a.239.239,0,0,1-.061.008m-14.856-.056a.242.242,0,0,1-.064-.009c-.782-.214-1.566-.464-2.328-.743a.241.241,0,1,1,.166-.453c.749.275,1.519.52,2.289.731a.241.241,0,0,1-.063.474m20.294-1.978a.241.241,0,0,1-.107-.457c.715-.354,1.423-.743,2.105-1.156a.241.241,0,0,1,.25.412c-.694.42-1.414.816-2.141,1.176a.24.24,0,0,1-.107.025M30.9,627.938a.241.241,0,0,1-.109-.026c-.723-.367-1.44-.769-2.131-1.2a.241.241,0,0,1,.253-.41c.679.42,1.384.815,2.1,1.176a.241.241,0,0,1-.109.456m30.625-2.98a.241.241,0,0,1-.149-.431c.628-.491,1.243-1.016,1.828-1.559a.241.241,0,0,1,.328.353c-.595.552-1.22,1.085-1.859,1.585a.24.24,0,0,1-.148.051M26.011,624.8a.24.24,0,0,1-.15-.052c-.636-.5-1.258-1.042-1.848-1.6a.241.241,0,0,1,.33-.351c.581.546,1.192,1.075,1.818,1.571a.241.241,0,0,1-.15.43m39.7-3.867a.241.241,0,0,1-.184-.4c.517-.608,1.014-1.245,1.478-1.894a.241.241,0,0,1,.392.281c-.472.66-.978,1.308-1.5,1.926a.241.241,0,0,1-.184.085m-43.861-.182a.24.24,0,0,1-.185-.086c-.522-.622-1.023-1.274-1.489-1.937a.241.241,0,1,1,.394-.277c.459.652.951,1.293,1.464,1.9a.241.241,0,0,1-.185.4m47.159-4.6a.241.241,0,0,1-.211-.357c.385-.7.745-1.423,1.069-2.152a.241.241,0,1,1,.44.2c-.33.741-.7,1.477-1.087,2.188a.241.241,0,0,1-.211.125m-50.419-.207a.241.241,0,0,1-.213-.127c-.385-.714-.743-1.454-1.066-2.2a.241.241,0,1,1,.442-.192c.317.732.67,1.459,1.048,2.161a.241.241,0,0,1-.212.355m52.692-5.137a.241.241,0,0,1-.23-.312c.237-.762.443-1.544.614-2.323a.241.241,0,1,1,.471.1c-.174.792-.384,1.587-.625,2.362a.241.241,0,0,1-.23.17m-54.911-.228a.241.241,0,0,1-.231-.172c-.232-.775-.434-1.572-.6-2.367a.241.241,0,0,1,.472-.1c.164.783.363,1.566.591,2.328a.241.241,0,0,1-.231.31m56.06-5.466h-.024a.241.241,0,0,1-.217-.263c.077-.794.121-1.6.13-2.4a.241.241,0,1,1,.482.006c-.01.812-.054,1.632-.133,2.439a.241.241,0,0,1-.24.218m-57.159-.237a.241.241,0,0,1-.24-.219c-.073-.809-.113-1.63-.117-2.441a.241.241,0,0,1,.24-.242h0a.241.241,0,0,1,.241.24c0,.8.043,1.6.115,2.4a.241.241,0,0,1-.218.262h-.022m57.129-5.57a.241.241,0,0,1-.239-.215c-.085-.791-.2-1.591-.355-2.377l-.006-.031a.241.241,0,0,1,.473-.092l.006.031c.153.8.275,1.612.361,2.417a.241.241,0,0,1-.214.265H72.4m-57.062-.238h-.028a.241.241,0,0,1-.212-.267c.092-.806.219-1.618.379-2.414a.241.241,0,0,1,.473.1c-.157.782-.283,1.581-.373,2.373a.241.241,0,0,1-.239.214M71.2,593.6a.241.241,0,0,1-.23-.168c-.242-.761-.519-1.52-.824-2.256a.241.241,0,0,1,.445-.184c.31.749.592,1.521.838,2.295a.241.241,0,0,1-.23.314m-54.621-.2a.241.241,0,0,1-.229-.316c.253-.77.542-1.54.86-2.287a.241.241,0,1,1,.444.188c-.312.735-.6,1.491-.845,2.249a.241.241,0,0,1-.229.166m52.31-5.127a.241.241,0,0,1-.21-.123c-.39-.7-.816-1.383-1.264-2.043a.241.241,0,1,1,.4-.271c.456.671.888,1.37,1.286,2.077a.241.241,0,0,1-.21.359m-49.95-.179a.241.241,0,0,1-.209-.361c.4-.7.84-1.4,1.3-2.068a.241.241,0,1,1,.4.273c-.453.657-.883,1.341-1.279,2.034a.241.241,0,0,1-.209.121m46.608-4.567a.241.241,0,0,1-.182-.083c-.523-.6-1.078-1.189-1.651-1.746a.241.241,0,1,1,.336-.346c.582.566,1.147,1.163,1.679,1.775a.241.241,0,0,1-.182.4m-43.233-.158a.241.241,0,0,1-.181-.4c.536-.61,1.1-1.2,1.689-1.766a.241.241,0,1,1,.334.347c-.575.553-1.134,1.137-1.66,1.737a.241.241,0,0,1-.181.082m39-3.818a.241.241,0,0,1-.146-.05c-.634-.485-1.3-.949-1.967-1.38a.241.241,0,0,1,.26-.406c.683.438,1.356.909,2,1.4a.241.241,0,0,1-.147.432m-34.75-.133a.241.241,0,0,1-.146-.433c.647-.489,1.323-.957,2.01-1.389a.241.241,0,0,1,.257.408c-.675.425-1.339.885-1.976,1.366a.24.24,0,0,1-.145.049M56.376,576.5a.24.24,0,0,1-.105-.024c-.718-.349-1.459-.671-2.2-.957a.241.241,0,1,1,.173-.45c.757.292,1.511.619,2.241.974a.241.241,0,0,1-.105.458m-24.844-.1a.241.241,0,0,1-.1-.459c.732-.348,1.489-.668,2.249-.953a.241.241,0,0,1,.169.452c-.747.28-1.492.6-2.212.937a.24.24,0,0,1-.1.023m19.39-1.9a.238.238,0,0,1-.06-.007c-.773-.2-1.565-.363-2.351-.493a.241.241,0,1,1,.079-.476c.8.133,1.6.3,2.391.5a.241.241,0,0,1-.059.475M37,574.463a.241.241,0,0,1-.057-.475c.479-.117.969-.224,1.456-.318.311-.06.627-.115.939-.165a.241.241,0,0,1,.076.476c-.307.049-.618.1-.924.162-.479.092-.961.2-1.432.313a.245.245,0,0,1-.058.007m8.174-.807h-.011c-.422-.019-.851-.029-1.273-.029-.375,0-.755.008-1.13.023a.241.241,0,1,1-.019-.482c.381-.015.768-.023,1.149-.023.429,0,.865.01,1.294.029a.241.241,0,0,1-.011.482" transform="translate(9.686 -468.667)" fill="#a8a8a8"/>
      <path id="Path_22876" data-name="Path 22876" d="M634.8,111.467l-.46.028a.266.266,0,0,1-.032-.532h0c.871-.049,1.752-.12,2.622-.21a.266.266,0,0,1,.055.53c-.725.075-1.46.137-2.187.184m-4.154.114h-.02c-.881-.009-1.774-.039-2.653-.09a.266.266,0,1,1,.031-.532c.871.05,1.755.08,2.628.089a.266.266,0,0,1,.015.532m10-.8a.266.266,0,0,1-.062-.528c.862-.147,1.73-.316,2.581-.5a.266.266,0,0,1,.114.52c-.859.188-1.735.359-2.605.508l-.028,0m-16.319.373a.275.275,0,0,1-.051,0c-.875-.11-1.758-.242-2.626-.393a.266.266,0,1,1,.092-.525c.859.15,1.734.281,2.6.39a.266.266,0,0,1-.016.53m22.5-1.791a.266.266,0,0,1-.091-.522c.838-.243,1.681-.51,2.507-.793a.266.266,0,0,1,.173.5c-.833.286-1.685.555-2.531.8a.269.269,0,0,1-.057.01M618.082,110A.269.269,0,0,1,618,110c-.857-.21-1.72-.443-2.568-.694a.266.266,0,0,1,.151-.511c.839.248,1.695.48,2.543.687a.266.266,0,0,1-.046.525m34.709-2.754a.266.266,0,0,1-.12-.512c.8-.338,1.612-.7,2.4-1.076a.266.266,0,0,1,.23.481c-.795.379-1.61.745-2.423,1.086a.267.267,0,0,1-.086.02m-40.777.893a.265.265,0,0,1-.11-.016c-.827-.306-1.657-.637-2.469-.983a.266.266,0,1,1,.209-.49c.8.343,1.627.67,2.446.974a.266.266,0,0,1-.076.516m46.466-3.676a.266.266,0,0,1-.148-.5c.759-.427,1.518-.878,2.255-1.341a.266.266,0,1,1,.283.451c-.745.467-1.511.923-2.278,1.354a.264.264,0,0,1-.113.034M606.2,105.6a.264.264,0,0,1-.137-.028c-.787-.4-1.574-.822-2.34-1.257a.266.266,0,1,1,.263-.463c.759.431,1.539.85,2.318,1.245a.266.266,0,0,1-.1.5m57.608-4.549a.266.266,0,0,1-.174-.482c.706-.511,1.409-1.047,2.089-1.591a.266.266,0,0,1,.333.416c-.687.55-1.4,1.09-2.109,1.606a.266.266,0,0,1-.139.05m-63.091,1.365a.265.265,0,0,1-.164-.043c-.736-.485-1.47-.995-2.181-1.514a.266.266,0,0,1,.314-.43c.7.514,1.432,1.019,2.161,1.5a.266.266,0,0,1-.13.488m68-5.367a.266.266,0,0,1-.2-.462c.643-.589,1.281-1.2,1.9-1.82a.266.266,0,0,1,.378.376c-.621.625-1.265,1.243-1.914,1.837a.265.265,0,0,1-.162.069m-73.084,1.582a.266.266,0,0,1-.188-.062c-.676-.565-1.347-1.154-1.995-1.751a.266.266,0,1,1,.361-.392c.642.591,1.307,1.174,1.976,1.734a.266.266,0,0,1-.154.47m77.507-6.119a.266.266,0,0,1-.218-.441c.573-.658,1.137-1.339,1.678-2.024a.266.266,0,0,1,.418.33c-.546.691-1.116,1.379-1.694,2.043a.266.266,0,0,1-.184.091M591.012,94.3a.266.266,0,0,1-.21-.082c-.607-.638-1.207-1.3-1.783-1.965a.266.266,0,0,1,.4-.348c.57.659,1.164,1.314,1.765,1.946a.266.266,0,0,1-.176.45m86.01-6.794a.266.266,0,0,1-.237-.417c.495-.72.979-1.461,1.439-2.2a.266.266,0,0,1,.453.281c-.464.749-.953,1.5-1.453,2.223a.266.266,0,0,1-.2.115m-90.108,1.964a.266.266,0,0,1-.23-.105c-.53-.7-1.05-1.426-1.546-2.153a.266.266,0,0,1,.44-.3c.491.72,1.006,1.438,1.531,2.133a.266.266,0,0,1-.2.426m93.4-7.384a.266.266,0,0,1-.252-.391c.41-.772.807-1.563,1.18-2.352a.266.266,0,1,1,.482.227c-.376.8-.777,1.6-1.191,2.375a.266.266,0,0,1-.218.141M583.4,84.205a.266.266,0,0,1-.247-.131c-.446-.758-.879-1.536-1.289-2.314a.266.266,0,0,1,.472-.248c.405.771.835,1.542,1.276,2.292a.266.266,0,0,1-.212.4m99.57-7.882a.267.267,0,0,1-.265-.363c.32-.814.624-1.646.9-2.473a.266.266,0,1,1,.5.171c-.283.835-.59,1.675-.913,2.5a.266.266,0,0,1-.231.168M580.5,78.573a.266.266,0,0,1-.261-.158c-.357-.805-.7-1.631-1.017-2.452a.266.266,0,0,1,.5-.192c.315.814.654,1.631,1.007,2.429a.266.266,0,0,1-.136.351.263.263,0,0,1-.091.022m104.442-8.279a.266.266,0,0,1-.275-.334c.225-.846.432-1.708.615-2.562a.266.266,0,0,1,.521.112c-.185.863-.394,1.733-.621,2.587a.267.267,0,0,1-.24.2M578.273,72.641a.266.266,0,0,1-.271-.187c-.262-.841-.507-1.7-.729-2.552a.266.266,0,0,1,.516-.134c.22.845.463,1.7.722,2.528a.267.267,0,0,1-.237.345M686.218,64.08a.271.271,0,0,1-.056,0,.267.267,0,0,1-.225-.3c.126-.863.232-1.741.316-2.61a.266.266,0,1,1,.53.051c-.085.877-.192,1.764-.319,2.635a.266.266,0,0,1-.246.228M576.736,66.493a.267.267,0,0,1-.279-.216c-.165-.864-.311-1.745-.435-2.619a.266.266,0,0,1,.527-.075c.123.865.268,1.738.431,2.594a.266.266,0,0,1-.212.312l-.033,0m110.033-8.726h-.025a.266.266,0,0,1-.258-.274c.026-.872.031-1.756.015-2.629a.266.266,0,0,1,.533-.01c.016.881.011,1.774-.015,2.654a.267.267,0,0,1-.249.258M575.9,60.208a.266.266,0,0,1-.283-.246q-.024-.311-.044-.622c-.044-.673-.075-1.356-.095-2.029a.266.266,0,0,1,.533-.015c.019.667.05,1.343.094,2.01q.02.308.043.616a.266.266,0,0,1-.246.286h0m110.692-8.777a.266.266,0,0,1-.282-.243c-.073-.868-.168-1.748-.283-2.615l-.011-.084a.266.266,0,0,1,.528-.07l.011.085c.115.875.211,1.763.285,2.639a.266.266,0,0,1-.243.288h-.005M575.783,53.872h-.028a.266.266,0,0,1-.256-.276c.034-.881.089-1.772.165-2.65a.266.266,0,0,1,.531.046c-.075.869-.13,1.752-.163,2.624a.266.266,0,0,1-.249.256m109.907-8.8a.267.267,0,0,1-.278-.213c-.172-.856-.367-1.719-.579-2.565a.266.266,0,0,1,.517-.13c.214.854.411,1.725.584,2.589a.266.266,0,0,1-.209.314l-.036,0m-109.3,2.492a.26.26,0,0,1-.058,0,.266.266,0,0,1-.223-.3c.135-.873.293-1.754.469-2.62a.266.266,0,0,1,.522.107c-.175.857-.331,1.73-.465,2.594a.266.266,0,0,1-.246.225m107.7-8.624a.267.267,0,0,1-.271-.184c-.268-.831-.56-1.666-.867-2.482a.266.266,0,1,1,.5-.188c.31.824.605,1.667.876,2.506a.267.267,0,0,1-.237.348M577.716,41.354a.266.266,0,0,1-.274-.337c.234-.851.492-1.707.767-2.546a.266.266,0,0,1,.506.166c-.272.831-.527,1.68-.759,2.522a.266.266,0,0,1-.24.2M681.8,33.029a.266.266,0,0,1-.26-.155c-.362-.794-.747-1.59-1.147-2.366a.266.266,0,1,1,.474-.244c.4.783.792,1.587,1.158,2.389a.266.266,0,0,1-.225.376M579.748,35.343a.266.266,0,0,1-.264-.365c.33-.818.684-1.639,1.052-2.441a.266.266,0,1,1,.484.223c-.365.794-.716,1.607-1.042,2.417a.266.266,0,0,1-.23.166m99.1-7.917a.266.266,0,0,1-.246-.128c-.449-.746-.923-1.491-1.408-2.215a.266.266,0,0,1,.443-.3c.489.731.968,1.484,1.421,2.237a.266.266,0,0,1-.211.4m-96.4,2.18a.266.266,0,0,1-.251-.393c.42-.774.865-1.549,1.323-2.3a.266.266,0,1,1,.456.276c-.453.747-.893,1.515-1.31,2.282a.266.266,0,0,1-.217.139M675.278,22.2a.266.266,0,0,1-.228-.1c-.533-.691-1.089-1.378-1.653-2.041a.266.266,0,1,1,.406-.345c.57.67,1.131,1.364,1.668,2.061a.266.266,0,0,1-.193.428m-89.489,2.015a.266.266,0,0,1-.235-.419c.506-.722,1.035-1.441,1.574-2.138a.266.266,0,1,1,.421.326c-.534.69-1.059,1.4-1.559,2.117a.266.266,0,0,1-.2.113m85.342-6.8a.265.265,0,0,1-.208-.08c-.608-.626-1.238-1.245-1.875-1.842a.266.266,0,1,1,.364-.389c.643.6,1.279,1.227,1.893,1.859a.266.266,0,0,1-.174.451m-81.416,1.826a.266.266,0,0,1-.217-.442c.584-.66,1.191-1.314,1.806-1.945a.266.266,0,0,1,.382.372c-.608.625-1.21,1.273-1.789,1.926a.266.266,0,0,1-.182.089m76.751-6.114a.265.265,0,0,1-.186-.06c-.675-.553-1.372-1.1-2.073-1.618a.266.266,0,1,1,.318-.428c.707.526,1.411,1.075,2.092,1.634a.266.266,0,0,1-.152.472m-72.288,1.616a.266.266,0,0,1-.2-.464c.654-.589,1.332-1.169,2.013-1.726a.266.266,0,0,1,.337.413c-.675.551-1.346,1.127-1.994,1.71a.266.266,0,0,1-.161.068M661.342,9.39a.265.265,0,0,1-.161-.042c-.734-.473-1.488-.935-2.244-1.373a.266.266,0,0,1,.267-.461c.763.442,1.525.909,2.265,1.387a.266.266,0,0,1-.127.49M599.12,10.78a.266.266,0,0,1-.172-.483c.717-.51,1.456-1.009,2.2-1.484a.266.266,0,1,1,.288.448c-.733.47-1.465.965-2.175,1.47a.265.265,0,0,1-.137.049m56.707-4.519a.263.263,0,0,1-.135-.027c-.783-.387-1.586-.76-2.386-1.11a.266.266,0,0,1,.213-.488c.808.353,1.619.73,2.409,1.121a.266.266,0,0,1-.1.5M604.48,7.413a.267.267,0,0,1-.146-.5c.772-.425,1.564-.837,2.355-1.225a.266.266,0,1,1,.234.478c-.784.384-1.568.792-2.333,1.213a.266.266,0,0,1-.111.033m45.51-3.634a.263.263,0,0,1-.107-.015c-.823-.3-1.664-.575-2.5-.83a.266.266,0,0,1,.156-.509c.844.258,1.692.54,2.523.838a.266.266,0,0,1-.073.517m-39.792.9a.266.266,0,0,1-.118-.512c.815-.334,1.65-.652,2.48-.946a.266.266,0,0,1,.178.5c-.823.292-1.649.607-2.456.937a.267.267,0,0,1-.084.019m33.706-2.7a.262.262,0,0,1-.078-.007c-.852-.2-1.72-.38-2.58-.538a.266.266,0,0,1,.1-.524c.868.159,1.745.342,2.6.543a.266.266,0,0,1-.043.525m-27.713.637A.266.266,0,0,1,616.1,2.1c.847-.238,1.713-.459,2.572-.657a.266.266,0,0,1,.12.519c-.851.2-1.708.415-2.547.65a.265.265,0,0,1-.055.009M637.654.895a.27.27,0,0,1-.048,0c-.866-.1-1.747-.18-2.618-.238a.266.266,0,1,1,.035-.532c.879.059,1.769.139,2.644.24a.266.266,0,0,1-.013.53m-15.274.36a.266.266,0,0,1-.059-.529c.542-.087,1.094-.168,1.64-.241.329-.043.662-.084.99-.122a.266.266,0,1,1,.06.529c-.325.037-.655.078-.981.121-.541.071-1.088.152-1.625.238l-.026,0m8.947-.722h-.017c-.871,0-1.756.021-2.628.063a.266.266,0,0,1-.03-.532h0C629.536.023,630.429,0,631.309,0a.266.266,0,0,1,.017.532" transform="translate(-485.846 17.975)" fill="#a8a8a8"/>
    </g>
    <path id="Path_22877" data-name="Path 22877" d="M505.17,86.451v91.108h-.309l-8.925-6.712-8.926,6.712h-.93l-8.926-6.712-8.927,6.712h-.917l-8.91-6.7-8.909,6.7h-.913l-8.92-6.707-8.92,6.707H429.8l-8.92-6.707-8.92,6.707h-.931l-8.9-6.694-8.9,6.694h-.588V61.13h79.771Z" transform="translate(-329.414 -17.064)" fill="#e4e4e4"/>
    <path id="Path_22878" data-name="Path 22878" d="M920.818,86.451H888.054V61.13Z" transform="translate(-745.061 -17.064)" fill="#ccc"/>
    <g id="Group_10311" data-name="Group 10311" transform="translate(84.526 66.987)">
      <path id="Path_22865" data-name="Path 22865" d="M.523.523H16.446V14.678H.523ZM0,15.2H16.969V0H0Z" fill="#050505"/>
      <rect id="Rectangle_1386" data-name="Rectangle 1386" width="29.418" height="0.523" transform="translate(26.266 9.606)" fill="#050505"/>
      <rect id="Rectangle_1387" data-name="Rectangle 1387" width="11.935" height="0.523" transform="translate(26.904 4.682)" fill="#050505"/>
      <rect id="Rectangle_1388" data-name="Rectangle 1388" width="16.446" height="14.678" transform="translate(0.261 56.44)" fill="none" stroke="#050505" stroke-width="0.5"/>
      <rect id="Rectangle_1389" data-name="Rectangle 1389" width="11.934" height="0.523" transform="translate(25.146 64.971)" fill="#050505"/>
      <rect id="Rectangle_1390" data-name="Rectangle 1390" width="6.997" height="0.523" transform="translate(55.572 60.047)" fill="#050505"/>
      <rect id="Rectangle_1391" data-name="Rectangle 1391" width="23.291" height="0.523" transform="translate(24.508 60.048)" fill="#050505"/>
      <rect id="Rectangle_1392" data-name="Rectangle 1392" width="16.446" height="14.678" transform="translate(0.261 28.351)" fill="#5f5f5f"/>
      <rect id="Rectangle_1393" data-name="Rectangle 1393" width="29.418" height="0.523" transform="translate(26.266 31.958)" fill="#050505"/>
      <rect id="Rectangle_1394" data-name="Rectangle 1394" width="29.418" height="0.523" transform="translate(26.266 36.882)" fill="#050505"/>
      <path id="Path_22883" data-name="Path 22883" d="M4.381,0,3.217,1.717,2.111,0H.094L2.253,3.028,0,6.245H1.935L3.217,4.31l1.27,1.935H6.516L4.2,2.958,6.322,0Z" transform="translate(5.226 32.567)" fill="#fff"/>
    </g>
    <g id="Group_10315" data-name="Group 10315" transform="translate(7.579 -7)">
      <g id="Group_10314" data-name="Group 10314">
        <path id="Path_22879" data-name="Path 22879" d="M565.865,1040.88h0a3.97,3.97,0,0,1-5.614,0l-24.1-24.1-3.062-3.062a19.794,19.794,0,0,0,5.613-5.614l27.163,27.163a3.969,3.969,0,0,1,0,5.613" transform="translate(-447.252 -845.781)" fill="#9c9c9c"/>
        <path id="Path_22880" data-name="Path 22880" d="M546.286,1015.684l6.28,6.281a19.8,19.8,0,0,1-5.612,5.613h0l-3.218-3.218-3.062-3.062a19.794,19.794,0,0,0,5.613-5.614" transform="translate(-453.615 -852.141)" fill="#5e5e5e"/>
        <path id="Path_22881" data-name="Path 22881" d="M365.031,815.094a23.94,23.94,0,0,0-47.858,1.032,24.285,24.285,0,0,0,.151,2.707,23.757,23.757,0,0,0,2.291,7.838h0a24.026,24.026,0,0,0,7.3,8.733q.751.555,1.547,1.051A23.954,23.954,0,0,0,355,835.628h0a24.07,24.07,0,0,0,5.613-5.612h0a23.833,23.833,0,0,0,4.437-13.888q0-.519-.022-1.032m-23.918,20.713a19.659,19.659,0,0,1-19.682-19.681,19.693,19.693,0,0,1,22.249-19.515,19.684,19.684,0,0,1,17.114,19.515q0,.45-.02.894a19.582,19.582,0,0,1-3.222,9.932,19.8,19.8,0,0,1-5.613,5.614q-.821.541-1.7,1a19.615,19.615,0,0,1-9.13,2.241" transform="translate(-266.103 -664.629)" fill="#b8b8b8"/>
      </g>
      <path id="Path_22882" data-name="Path 22882" d="M363.717,855.8a1.838,1.838,0,0,1-1.838-1.838A17.068,17.068,0,0,1,378.947,836.9a1.838,1.838,0,0,1,0,3.676,13.392,13.392,0,0,0-13.392,13.392,1.838,1.838,0,0,1-1.838,1.838" transform="translate(-303.61 -702.141)" fill="#b8b8b8"/>
    </g>
  </g>
</svg>
