<svg xmlns="http://www.w3.org/2000/svg" width="18" height="12.375" viewBox="0 0 18 12.375">
  <g id="credit-card" transform="translate(0 -80)">
    <path id="Path_22506" data-name="Path 22506" d="M16.383,80H1.617A1.619,1.619,0,0,0,0,81.617v9.141a1.619,1.619,0,0,0,1.617,1.617H16.383A1.619,1.619,0,0,0,18,90.758V81.617A1.619,1.619,0,0,0,16.383,80ZM5.625,84.922a1.267,1.267,0,0,1-1.266,1.266H3.516A1.267,1.267,0,0,1,2.25,84.922v-.844a1.267,1.267,0,0,1,1.266-1.266h.844a1.267,1.267,0,0,1,1.266,1.266Zm7.232,2.873a.563.563,0,0,1-.441-.911,1.126,1.126,0,0,0,0-1.393.563.563,0,0,1,.884-.7,2.251,2.251,0,0,1,0,2.785.561.561,0,0,1-.442.214ZM14.672,89a.563.563,0,1,1-.837-.751,3.094,3.094,0,0,0,0-4.13.563.563,0,1,1,.837-.751,4.211,4.211,0,0,1,1.078,2.817,4.821,4.821,0,0,1-.184,1.233A3.878,3.878,0,0,1,14.672,89Z" fill="#000"/>
    <rect id="Rectangle_1350" data-name="Rectangle 1350" width="4.2" height="4.2" rx="1" transform="translate(2 81.987)" fill="#dfa32a"/>
  </g>
</svg>
