<svg xmlns="http://www.w3.org/2000/svg" width="18" height="18" viewBox="0 0 18 18">
  <g id="wallet" transform="translate(-0.003 0)">
    <g id="Group_10168" data-name="Group 10168" transform="translate(0.003 0)">
      <g id="Group_10167" data-name="Group 10167">
        <path id="Path_22528" data-name="Path 22528" d="M16.776,14.728H13.912a3.273,3.273,0,0,1,0-6.545h2.864a.409.409,0,0,0,.409-.409V6.546a1.633,1.633,0,0,0-1.506-1.623L13.329.819a1.619,1.619,0,0,0-2.221-.6L3.054,4.909H1.639A1.638,1.638,0,0,0,0,6.546v9.818A1.638,1.638,0,0,0,1.639,18H15.548a1.638,1.638,0,0,0,1.636-1.636V15.137A.409.409,0,0,0,16.776,14.728ZM13.837,3.352l.891,1.557H11.162ZM4.68,4.909,11.52.928a.791.791,0,0,1,.608-.082.8.8,0,0,1,.491.38h0L6.3,4.909Z" transform="translate(-0.003 0)"/>
        <path id="Path_22529" data-name="Path 22529" d="M303.988,234.674h-2.864a2.455,2.455,0,1,0,0,4.909h2.864a1.229,1.229,0,0,0,1.227-1.227V235.9A1.229,1.229,0,0,0,303.988,234.674Zm-2.864,3.273a.818.818,0,1,1,.818-.818A.819.819,0,0,1,301.125,237.947Z" transform="translate(-287.215 -225.674)" fill="#dfa32a"/>
      </g>
    </g>
  </g>
</svg>
