<svg xmlns="http://www.w3.org/2000/svg" width="21.891" height="21.28" viewBox="0 0 21.891 21.28">
  <path id="Path_21506" data-name="Path 21506" d="M350.148,242.142c-.538-.3-3.183-1.722-3.678-1.924s-.859-.307-1.246.229-1.484,1.729-1.815,2.083-.656.388-1.2.093a15.015,15.015,0,0,1-4.306-2.887,16.5,16.5,0,0,1-2.907-3.91c-.3-.561,0-.847.282-1.11.256-.237.573-.621.859-.93a3.773,3.773,0,0,0,.581-.893,1.007,1.007,0,0,0-.01-.962c-.127-.279-1.122-3.019-1.537-4.133s-.879-.949-1.2-.961-.684-.071-1.049-.085a2.013,2.013,0,0,0-1.487.631,6.145,6.145,0,0,0-2.091,4.5c-.1,2.7,1.766,5.378,2.026,5.753s3.564,6.225,9.053,8.629,5.523,1.673,6.529,1.618,3.294-1.206,3.8-2.468a4.583,4.583,0,0,0,.417-2.594c-.129-.234-.489-.385-1.027-.679Z" transform="translate(-329.345 -226.75)" fill="#30bf39" fill-rule="evenodd"/>
</svg>
