<svg xmlns="http://www.w3.org/2000/svg" width="18.054" height="18.054" viewBox="0 0 18.054 18.054">
  <g id="g3306" transform="translate(1.206 683.686)">
    <g id="g3308" transform="translate(-0.656 -683.136)">
      <g id="Group_43264" data-name="Group 43264" transform="translate(0 0)">
        <g id="g3316" transform="translate(1.055 9.919)">
          <path id="path3318" d="M-130.682-65.34a1.77,1.77,0,0,1-1.77,1.77,1.77,1.77,0,0,1-1.77-1.77,1.77,1.77,0,0,1,1.77-1.77A1.77,1.77,0,0,1-130.682-65.34Z" transform="translate(134.222 67.111)" fill="none" stroke="#dfa32a" stroke-width="1.1"/>
        </g>
        <g id="g3320" transform="translate(0 13.46)">
          <path id="path3322" d="M-104.285,0l2.826,1.049V3.494h-5.651V1.049L-104.285,0" transform="translate(107.11)" fill="none" stroke="#dfa32a" stroke-width="1.1"/>
        </g>
        <g id="g3324" transform="translate(6.706 9.919)">
          <path id="path3326" d="M-130.682-65.34a1.77,1.77,0,0,1-1.77,1.77,1.77,1.77,0,0,1-1.77-1.77,1.77,1.77,0,0,1,1.77-1.77A1.77,1.77,0,0,1-130.682-65.34Z" transform="translate(134.222 67.111)" fill="none" stroke="#dfa32a" stroke-width="1.1"/>
        </g>
        <g id="g3328" transform="translate(5.651 13.46)">
          <path id="path3330" d="M-104.285,0l2.826,1.049V3.494h-5.651V1.049L-104.285,0" transform="translate(107.11)" fill="none" stroke="#dfa32a" stroke-width="1.1"/>
        </g>
        <g id="g3332" transform="translate(12.358 9.919)">
          <path id="path3334" d="M-130.682-65.34a1.77,1.77,0,0,1-1.77,1.77,1.77,1.77,0,0,1-1.77-1.77,1.77,1.77,0,0,1,1.77-1.77A1.77,1.77,0,0,1-130.682-65.34Z" transform="translate(134.222 67.111)" fill="none" stroke="#dfa32a" stroke-width="1.1"/>
        </g>
        <g id="g3336" transform="translate(11.302 13.46)">
          <path id="path3338" d="M-104.285,0l2.826,1.049V3.494h-5.651V1.049L-104.285,0" transform="translate(107.11)" fill="none" stroke="#dfa32a" stroke-width="1.1"/>
        </g>
        <g id="g3340" transform="translate(4.573)">
          <path id="path3342" d="M-288.191-144.1a3.9,3.9,0,0,1-3.9,3.9,3.9,3.9,0,0,1-3.9-3.9,3.9,3.9,0,0,1,3.9-3.9A3.9,3.9,0,0,1-288.191-144.1Z" transform="translate(295.999 148)" fill="none" stroke="#dfa32a" stroke-width="1.1"/>
        </g>
        <g id="g3344" transform="translate(6.611 2.785)">
          <path id="path3346" d="M-137.69,0l-2.238,2.238L-141.421.746" transform="translate(141.421)" fill="none" stroke="#dfa32a" stroke-width="1.1"/>
        </g>
      </g>
    </g>
  </g>
</svg>
