<svg xmlns="http://www.w3.org/2000/svg" width="14.689" height="11.092" viewBox="0 0 14.689 11.092">
  <g id="Group_10198" data-name="Group 10198" transform="translate(0.15 0.15)">
    <path id="Path_22550" data-name="Path 22550" d="M14.09,67.9a.3.3,0,0,0,.3-.3V65.2a1.2,1.2,0,0,0-1.2-1.2H1.2A1.2,1.2,0,0,0,0,65.2v2.4a.3.3,0,0,0,.3.3,1.5,1.5,0,1,1,0,3,.3.3,0,0,0-.3.3v2.4a1.2,1.2,0,0,0,1.2,1.2H13.19a1.2,1.2,0,0,0,1.2-1.2v-2.4a.3.3,0,0,0-.3-.3,1.5,1.5,0,1,1,0-3Zm-2.1,1.5a2.1,2.1,0,0,0,1.8,2.077v2.12a.6.6,0,0,1-.6.6H1.2a.6.6,0,0,1-.6-.6v-2.12a2.1,2.1,0,0,0,0-4.154V65.2a.6.6,0,0,1,.6-.6H13.19a.6.6,0,0,1,.6.6v2.12A2.1,2.1,0,0,0,11.991,69.4Z" transform="translate(0 -64)" fill="#969696" stroke="#969696" stroke-width="0.3"/>
    <path id="Path_22551" data-name="Path 22551" d="M128.254,104a.254.254,0,0,0-.254.254v.572a.254.254,0,1,0,.508,0v-.572A.254.254,0,0,0,128.254,104Z" transform="translate(-124.379 -103.047)" fill="#969696" stroke="#969696" stroke-width="0.3"/>
    <path id="Path_22552" data-name="Path 22552" d="M128.254,192a.254.254,0,0,0-.254.254v.508a.254.254,0,1,0,.508,0v-.508A.254.254,0,0,0,128.254,192Z" transform="translate(-124.379 -188.334)" fill="#969696" stroke="#969696" stroke-width="0.3"/>
    <path id="Path_22553" data-name="Path 22553" d="M128.254,277.333a.254.254,0,0,0-.254.254v.508a.254.254,0,1,0,.508,0v-.508A.254.254,0,0,0,128.254,277.333Z" transform="translate(-124.379 -271.223)" fill="#969696" stroke="#969696" stroke-width="0.3"/>
    <path id="Path_22554" data-name="Path 22554" d="M128.254,362.667a.254.254,0,0,0-.254.254v.508a.254.254,0,1,0,.508,0v-.508A.254.254,0,0,0,128.254,362.667Z" transform="translate(-124.379 -353.908)" fill="#969696" stroke="#969696" stroke-width="0.3"/>
    <path id="Path_22555" data-name="Path 22555" d="M216.774,149.386a.219.219,0,0,0-.352.093l-3.05,6.053a.407.407,0,0,0,.07.466.213.213,0,0,0,.141.056.245.245,0,0,0,.212-.15l3.049-6.053A.407.407,0,0,0,216.774,149.386Z" transform="translate(-206.958 -147.297)" fill="#969696" stroke="#969696" stroke-width="0.3"/>
    <path id="Path_22556" data-name="Path 22556" d="M194.033,150.6a1.042,1.042,0,1,0-1.016,1.271A1.166,1.166,0,0,0,194.033,150.6Zm-1.525,0c0-.413.233-.762.508-.762s.508.349.508.762-.233.762-.508.762S192.508,151.018,192.508,150.6Z" transform="translate(-186.44 -146.795)" fill="#969696" stroke="#969696" stroke-width="0.3"/>
    <path id="Path_22557" data-name="Path 22557" d="M299.683,256a1.3,1.3,0,1,0,1.017,1.271A1.166,1.166,0,0,0,299.683,256Zm0,2.033c-.275,0-.508-.349-.508-.762s.233-.762.508-.762.508.349.508.762S299.958,258.033,299.683,258.033Z" transform="translate(-290.017 -250.288)" fill="#969696" stroke="#969696" stroke-width="0.3"/>
  </g>
</svg>
