<svg xmlns="http://www.w3.org/2000/svg" width="23.3" height="17.55" viewBox="0 0 23.3 17.55">
  <g id="Group_10198" data-name="Group 10198" transform="translate(0.15 0.15)">
    <path id="Path_22550" data-name="Path 22550" d="M22.521,70.229A.479.479,0,0,0,23,69.75V65.917A1.919,1.919,0,0,0,21.083,64H1.917A1.919,1.919,0,0,0,0,65.917V69.75a.479.479,0,0,0,.479.479,2.4,2.4,0,1,1,0,4.792A.479.479,0,0,0,0,75.5v3.833A1.919,1.919,0,0,0,1.917,81.25H21.083A1.919,1.919,0,0,0,23,79.333V75.5a.479.479,0,0,0-.479-.479,2.4,2.4,0,1,1,0-4.792Zm-3.354,2.4a3.359,3.359,0,0,0,2.875,3.32v3.388a.96.96,0,0,1-.958.958H1.917a.96.96,0,0,1-.958-.958V75.945a3.354,3.354,0,0,0,0-6.64V65.917a.96.96,0,0,1,.958-.958H21.083a.96.96,0,0,1,.958.958v3.388A3.359,3.359,0,0,0,19.167,72.625Z" transform="translate(0 -64)" stroke="#000" stroke-width="0.3"/>
    <path id="Path_22551" data-name="Path 22551" d="M128.406,104a.406.406,0,0,0-.406.406v.914a.406.406,0,1,0,.812,0v-.914A.406.406,0,0,0,128.406,104Z" transform="translate(-122.212 -102.477)" stroke="#000" stroke-width="0.3"/>
    <path id="Path_22552" data-name="Path 22552" d="M128.406,192a.406.406,0,0,0-.406.406v.812a.406.406,0,1,0,.812,0v-.812A.406.406,0,0,0,128.406,192Z" transform="translate(-122.212 -186.141)" stroke="#000" stroke-width="0.3"/>
    <path id="Path_22553" data-name="Path 22553" d="M128.406,277.333a.406.406,0,0,0-.406.406v.812a.406.406,0,1,0,.812,0v-.812A.406.406,0,0,0,128.406,277.333Z" transform="translate(-122.212 -267.567)" stroke="#000" stroke-width="0.3"/>
    <path id="Path_22554" data-name="Path 22554" d="M128.406,362.667a.406.406,0,0,0-.406.406v.812a.406.406,0,0,0,.812,0v-.812A.406.406,0,0,0,128.406,362.667Z" transform="translate(-122.212 -348.667)" stroke="#000" stroke-width="0.3"/>
    <path id="Path_22555" data-name="Path 22555" d="M218.836,149.42a.35.35,0,0,0-.563.149l-4.874,9.676a.651.651,0,0,0,.113.745.34.34,0,0,0,.225.09.391.391,0,0,0,.338-.239l4.874-9.676A.651.651,0,0,0,218.836,149.42Z" transform="translate(-203.146 -146.08)" stroke="#000" stroke-width="0.3"/>
    <path id="Path_22556" data-name="Path 22556" d="M195.25,151.365a1.665,1.665,0,1,0-1.625,2.031A1.864,1.864,0,0,0,195.25,151.365Zm-2.437,0c0-.66.372-1.219.812-1.219s.812.558.812,1.219-.372,1.219-.812,1.219S192.812,152.025,192.812,151.365Z" transform="translate(-183.112 -145.276)" stroke="#000" stroke-width="0.3"/>
    <path id="Path_22557" data-name="Path 22557" d="M300.291,256a2.082,2.082,0,1,0,1.625,2.031A1.864,1.864,0,0,0,300.291,256Zm0,3.25c-.44,0-.812-.558-.812-1.219s.372-1.219.812-1.219.812.558.812,1.219S300.731,259.25,300.291,259.25Z" transform="translate(-284.841 -246.87)" stroke="#000" stroke-width="0.3"/>
  </g>
</svg>
