<svg xmlns="http://www.w3.org/2000/svg" width="19.245" height="16.953" viewBox="0 0 19.245 16.953">
  <g id="search" transform="translate(0 -0.5)">
    <path id="Path_30737" data-name="Path 30737" d="M394.209,2.191a1.691,1.691,0,1,0-1.691,1.691A1.693,1.693,0,0,0,394.209,2.191Zm-1.691.564a.564.564,0,1,1,.564-.564A.564.564,0,0,1,392.519,2.754Zm0,0" transform="translate(-376.137)" fill="#dfa32a"/>
    <path id="Path_30738" data-name="Path 30738" d="M214.287,92.151a1.691,1.691,0,1,0-1.691,1.691A1.693,1.693,0,0,0,214.287,92.151Zm-1.691.564a.564.564,0,1,1,.564-.564A.564.564,0,0,1,212.6,92.715Zm0,0" transform="translate(-202.978 -86.579)" fill="#dfa32a"/>
    <path id="Path_30739" data-name="Path 30739" d="M183.74,180.422a2.821,2.821,0,0,0-2.818,2.818v1.691h5.636V183.24a2.821,2.821,0,0,0-2.818-2.818Zm1.691,3.381h-3.381v-.564a1.691,1.691,0,1,1,3.381,0Zm0,0" transform="translate(-174.121 -173.159)" fill="#dfa32a"/>
    <path id="Path_30740" data-name="Path 30740" d="M34.369,2.191a1.691,1.691,0,1,0-1.691,1.691A1.693,1.693,0,0,0,34.369,2.191Zm-1.691.564a.564.564,0,1,1,.564-.564A.564.564,0,0,1,32.678,2.754Zm0,0" transform="translate(-29.823)" fill="#dfa32a"/>
    <path id="Path_30741" data-name="Path 30741" d="M15.792,37.251h3.445V35.56a2.848,2.848,0,0,0-2.855-2.818,2.81,2.81,0,0,0-1.609.5,6.195,6.195,0,0,0-10.308,0,2.809,2.809,0,0,0-1.609-.5A2.848,2.848,0,0,0,0,35.56v1.691H3.445A6.2,6.2,0,0,0,12.639,42.1l4.215,4.215,2.391-2.391L15.03,39.708a6.155,6.155,0,0,0,.762-2.457Zm.589-3.381a1.733,1.733,0,0,1,1.728,1.691v.564H15.792a6.153,6.153,0,0,0-.475-1.877A1.684,1.684,0,0,1,16.381,33.869ZM1.128,35.56a1.733,1.733,0,0,1,1.728-1.691,1.684,1.684,0,0,1,1.064.378,6.153,6.153,0,0,0-.475,1.877H1.128Zm3.419,1.127a5.072,5.072,0,1,1,5.072,5.072,5.078,5.078,0,0,1-5.072-5.072Zm13.1,7.236-.8.8-3.271-3.271a6.256,6.256,0,0,0,.8-.8Zm0,0" transform="translate(0 -28.861)" fill="#dfa32a"/>
  </g>
</svg>
