<svg xmlns="http://www.w3.org/2000/svg" width="283.637" height="74" viewBox="0 0 283.637 74"><defs><style>.a{fill:#efefef;}</style></defs><g transform="translate(-24.393)"><g transform="translate(24.393)"><path class="a" d="M0,0H260.9C267.029,0,272,4.477,272,10V64c0,5.523-4.971,10-11.1,10H11.1C4.971,74,0,69.523,0,64Z" transform="translate(11.637)"/><path class="a" d="M1421.977-2797h-11.483s12.738,3.375,11.66,20.064c-.035.543,1.337.037,2.194.17,1.715.326,4.793.25,5.365-.18,1.248-.793-1.093-5.738-2.142.18.513-.8,3.326.589,3.9-.374.7-1.2-.923-3.99.237-.341V-2797Z" transform="translate(-1410.494 2797)"/></g></g></svg>