<svg xmlns="http://www.w3.org/2000/svg" width="13.512" height="16.5" viewBox="0 0 13.512 16.5">
  <g id="delete" transform="translate(0.262 0.252)">
    <path id="Path_22544" data-name="Path 22544" d="M222.773,154.7a.375.375,0,0,0-.375.375v7.082a.375.375,0,1,0,.749,0v-7.082A.375.375,0,0,0,222.773,154.7Zm0,0" transform="translate(-214.068 -148.908)" fill="#dfa32a" stroke="#dfa32a" stroke-width="0.2"/>
    <path id="Path_22545" data-name="Path 22545" d="M104.773,154.7a.375.375,0,0,0-.375.375v7.082a.375.375,0,1,0,.749,0v-7.082A.375.375,0,0,0,104.773,154.7Zm0,0" transform="translate(-100.489 -148.908)" fill="#dfa32a" stroke="#dfa32a" stroke-width="0.2"/>
    <path id="Path_22546" data-name="Path 22546" d="M1.061,4.762v9.232a2.067,2.067,0,0,0,.55,1.426A1.845,1.845,0,0,0,2.949,16h7.09a1.845,1.845,0,0,0,1.339-.579,2.067,2.067,0,0,0,.55-1.426V4.762a1.431,1.431,0,0,0-.367-2.815H9.642V1.479A1.472,1.472,0,0,0,8.158,0H4.831a1.472,1.472,0,0,0-1.484,1.48v.468H1.428a1.431,1.431,0,0,0-.367,2.815Zm8.978,10.487H2.949A1.187,1.187,0,0,1,1.81,13.994v-9.2h9.368v9.2a1.187,1.187,0,0,1-1.139,1.255ZM4.1,1.479A.722.722,0,0,1,4.831.748H8.158a.722.722,0,0,1,.734.731v.468H4.1ZM1.428,2.7H11.56a.674.674,0,1,1,0,1.349H1.428a.674.674,0,1,1,0-1.349Zm0,0" transform="translate(0)" stroke="#000" stroke-width="0.5"/>
    <path id="Path_22547" data-name="Path 22547" d="M163.773,154.7a.375.375,0,0,0-.375.375v7.082a.375.375,0,1,0,.749,0v-7.082A.375.375,0,0,0,163.773,154.7Zm0,0" transform="translate(-157.279 -148.908)" fill="#dfa32a" stroke="#dfa32a" stroke-width="0.2"/>
  </g>
</svg>
