<svg id="clock" xmlns="http://www.w3.org/2000/svg" width="18" height="18" viewBox="0 0 18 18">
  <g id="Group_10700" data-name="Group 10700" transform="translate(8.308 4.183)">
    <g id="Group_10699" data-name="Group 10699">
      <path id="Path_25663" data-name="Path 25663" d="M240.064,125.178l-2.5-1.878v-3.826a.7.7,0,1,0-1.391,0v4.173a.694.694,0,0,0,.278.556l2.782,2.087a.7.7,0,0,0,.835-1.113Z" transform="translate(-236.169 -118.779)" fill="#151515" stroke="#151515" stroke-width="0.3"/>
    </g>
  </g>
  <g id="Group_10702" data-name="Group 10702">
    <g id="Group_10701" data-name="Group 10701">
      <path id="Path_25664" data-name="Path 25664" d="M9,0a9,9,0,1,0,9,9A9.01,9.01,0,0,0,9,0ZM9,16.606A7.606,7.606,0,1,1,16.606,9,7.615,7.615,0,0,1,9,16.606Z" fill="#151515"/>
    </g>
  </g>
</svg>
