<svg xmlns="http://www.w3.org/2000/svg" width="25.452" height="23.911" viewBox="0 0 25.452 23.911">
  <g id="booking" transform="translate(0 -15.5)">
    <path id="Path_22855" data-name="Path 22855" d="M20.218,15.5H5.234a5.234,5.234,0,1,0,0,10.468H9.045V30.2l-.186-.156a2.423,2.423,0,0,0-3.208.14A2.093,2.093,0,0,0,5.787,33.3L9.045,36.03v2.635a.746.746,0,0,0,.746.746h8.948a.746.746,0,0,0,.746-.746V30.286a2.24,2.24,0,0,0-1.96-2.22l-4-.5v-1.6h6.7a5.234,5.234,0,1,0,0-10.468ZM10.536,37.92V36.428h7.457V37.92Zm6.8-8.373a.747.747,0,0,1,.653.74v4.651H10.062L6.745,32.154a.6.6,0,0,1-.04-.919.926.926,0,0,1,1.2-.052l1.411,1.184a.746.746,0,0,0,1.225-.571V22.261a.746.746,0,0,1,1.491,0v5.965a.746.746,0,0,0,.654.74Zm2.879-5.07h-6.7V22.261a2.237,2.237,0,1,0-4.474,0v2.216H5.234a3.743,3.743,0,1,1,0-7.485H20.218a3.743,3.743,0,0,1,0,7.485Z" fill="#dfa32a"/>
    <path id="Path_22856" data-name="Path 22856" d="M305.592,75.718l-2.455,2.455-.964-.964a.746.746,0,1,0-1.055,1.055l1.491,1.491a.746.746,0,0,0,1.055,0l2.983-2.983a.746.746,0,0,0-1.054-1.055Z" transform="translate(-285.941 -57.017)" fill="#dfa32a"/>
  </g>
</svg>
