<svg xmlns="http://www.w3.org/2000/svg" width="16.75" height="18" viewBox="0 0 16.75 18">
  <g id="Group_10201" data-name="Group 10201" transform="translate(-42.625 -259.469)">
    <path id="XMLID_273_" d="M18.757,12.309l-.338-.2a1.286,1.286,0,0,1,0-2.227l.338-.2a1.928,1.928,0,0,0,.706-2.634L18.82,5.943a1.931,1.931,0,0,0-2.634-.706l-.338.195a1.286,1.286,0,0,1-1.929-1.113v-.39A1.931,1.931,0,0,0,11.99,2H10.7A1.931,1.931,0,0,0,8.776,3.929v.391A1.286,1.286,0,0,1,6.847,5.433l-.338-.2a1.931,1.931,0,0,0-2.635.706L3.231,7.057a1.927,1.927,0,0,0,.706,2.634l.339.2a1.286,1.286,0,0,1,0,2.227l-.338.2a1.927,1.927,0,0,0-.706,2.634l.643,1.113a1.931,1.931,0,0,0,2.634.706l.338-.195a1.286,1.286,0,0,1,1.929,1.113v.39A1.931,1.931,0,0,0,10.7,20H11.99a1.931,1.931,0,0,0,1.929-1.929v-.391a1.286,1.286,0,0,1,1.929-1.113l.338.2a1.932,1.932,0,0,0,2.634-.706l.643-1.113A1.927,1.927,0,0,0,18.757,12.309Zm-7.41,1.905A3.214,3.214,0,1,1,14.561,11a3.218,3.218,0,0,1-3.214,3.214Z" transform="translate(39.653 257.469)" fill="#000"/>
    <g id="Ellipse_307" data-name="Ellipse 307" transform="translate(49 266.469)" fill="#dfa32a" stroke="#dfa32a" stroke-width="1">
      <circle cx="2" cy="2" r="2" stroke="none"/>
      <circle cx="2" cy="2" r="1.5" fill="none"/>
    </g>
  </g>
</svg>
