<svg xmlns="http://www.w3.org/2000/svg" width="30.221" height="31.18" viewBox="0 0 30.221 31.18">
  <path id="setting" d="M37.2,18.068,35.907,17a1.827,1.827,0,0,1,0-2.821l1.3-1.068a2.429,2.429,0,0,0,.561-3.1L35.2,5.577A2.429,2.429,0,0,0,32.24,4.514L30.667,5.1a1.827,1.827,0,0,1-2.443-1.41l-.276-1.657A2.428,2.428,0,0,0,25.545,0H20.422a2.428,2.428,0,0,0-2.4,2.035l-.276,1.657A1.827,1.827,0,0,1,15.3,5.1l-1.573-.59a2.429,2.429,0,0,0-2.964,1.063L8.2,10.013a2.428,2.428,0,0,0,.561,3.1l1.3,1.068a1.827,1.827,0,0,1,0,2.821l-1.3,1.068a2.428,2.428,0,0,0-.561,3.1L10.763,25.6a2.429,2.429,0,0,0,2.964,1.063l1.573-.589a1.827,1.827,0,0,1,2.443,1.41l.276,1.657a2.428,2.428,0,0,0,2.4,2.036h5.123a2.428,2.428,0,0,0,2.4-2.035l.276-1.657a1.827,1.827,0,0,1,2.443-1.41l1.573.589A2.428,2.428,0,0,0,35.2,25.6l2.561-4.436a2.429,2.429,0,0,0-.561-3.1Zm-4.11,6.317L31.522,23.8a4.263,4.263,0,0,0-5.7,3.291l-.276,1.657H20.422l-.276-1.657a4.263,4.263,0,0,0-5.7-3.291l-1.573.589-2.561-4.436,1.3-1.068a4.263,4.263,0,0,0,0-6.582l-1.3-1.068,2.561-4.436,1.573.589a4.263,4.263,0,0,0,5.7-3.291l.276-1.657h5.123l.276,1.657a4.263,4.263,0,0,0,5.7,3.291l1.573-.589,2.562,4.436h0l-1.3,1.068a4.263,4.263,0,0,0,0,6.582l1.3,1.068ZM22.984,9.581a6.009,6.009,0,1,0,6.009,6.009A6.016,6.016,0,0,0,22.984,9.581Zm0,9.581a3.573,3.573,0,1,1,3.573-3.573A3.577,3.577,0,0,1,22.984,19.163Z" transform="translate(-7.873)" fill="#d5d5d5"/>
</svg>
