<svg xmlns="http://www.w3.org/2000/svg" width="21.228" height="21.134" viewBox="0 0 21.228 21.134">
  <path id="Path_21529" data-name="Path 21529" d="M283.236,308.891A9.9,9.9,0,0,0,295,318.62a5.782,5.782,0,0,0,7.9-8,10.038,10.038,0,0,0,.153-1.728,9.9,9.9,0,0,0-11.73-9.735,5.781,5.781,0,0,0-7.922,7.975A9.948,9.948,0,0,0,283.236,308.891Zm10.012-7.038c3.195.188,5.065,1.592,5.247,2.9a1.346,1.346,0,0,1-1.471,1.524c-1.445,0-1.592-1.926-4.081-1.926-1.122,0-2.069.467-2.069,1.479,0,2.116,7.973.887,7.973,5.544,0,2.684-2.149,4.443-5.357,4.443-2.821,0-5.656-1.279-5.642-3.48a1.236,1.236,0,0,1,1.16-1.274c1.661,0,1.646,2.469,4.291,2.469,1.855,0,2.489-1.012,2.489-1.718,0-2.548-8.02-.986-8.02-5.778C287.768,303.445,289.9,301.656,293.248,301.853Z" transform="translate(-282.535 -298.316)" fill="#3e94f6"/>
</svg>
