<svg xmlns="http://www.w3.org/2000/svg" xmlns:xlink="http://www.w3.org/1999/xlink" width="63" height="63" viewBox="0 0 63 63">
  <defs>
    <filter id="Ellipse_333" x="0" y="0" width="63" height="63" filterUnits="userSpaceOnUse">
      <feOffset dy="3" input="SourceAlpha"/>
      <feGaussianBlur stdDeviation="4.5" result="blur"/>
      <feFlood flood-color="#7b5c1f" flood-opacity="0.129"/>
      <feComposite operator="in" in2="blur"/>
      <feComposite in="SourceGraphic"/>
    </filter>
  </defs>
  <g id="Group_10652" data-name="Group 10652" transform="translate(-300.5 -176.5)">
    <g id="phone-call" transform="translate(319 184)">
      <g transform="matrix(1, 0, 0, 1, -18.5, -7.5)" filter="url(#Ellipse_333)">
        <circle id="Ellipse_333-2" data-name="Ellipse 333" cx="18" cy="18" r="18" transform="translate(13.5 10.5)" fill="#fff"/>
      </g>
    </g>
    <g id="verified" transform="translate(284 196)">
      <path id="Path_23097" data-name="Path 23097" d="M56.393,3.239,48.737.06a.781.781,0,0,0-.6,0L40.482,3.239A.781.781,0,0,0,40,3.96V7.824a13.083,13.083,0,0,0,8.142,12.118.781.781,0,0,0,.59,0A13.083,13.083,0,0,0,56.875,7.824V3.96A.781.781,0,0,0,56.393,3.239ZM55.313,7.824A11.523,11.523,0,0,1,48.438,18.37,11.524,11.524,0,0,1,41.563,7.824V4.482l6.875-2.854,6.875,2.854Zm-7.739,2.633L50.932,7.1a.781.781,0,1,1,1.1,1.1l-3.91,3.91a.781.781,0,0,1-1.1,0L44.838,9.932a.781.781,0,1,1,1.1-1.1Z" transform="translate(0 0)" fill="#dfa32a"/>
    </g>
  </g>
</svg>
