<svg xmlns="http://www.w3.org/2000/svg" width="18.086" height="18" viewBox="0 0 18.086 18">
  <g id="cancel-button" transform="translate(0 -0.929)">
    <path id="Path_22857" data-name="Path 22857" d="M14.313.929H3.772A3.777,3.777,0,0,0,0,4.7V15.157a3.777,3.777,0,0,0,3.772,3.772H14.313a3.777,3.777,0,0,0,3.772-3.772V4.7A3.777,3.777,0,0,0,14.313.929ZM16.7,15.157a2.393,2.393,0,0,1-2.391,2.391H3.772a2.393,2.393,0,0,1-2.391-2.391V4.7A2.393,2.393,0,0,1,3.772,2.311H14.313A2.393,2.393,0,0,1,16.7,4.7V15.157Z" fill="#dfa32a"/>
    <path id="Path_22858" data-name="Path 22858" d="M114.916,102.481a.691.691,0,0,0-.977,0l-3.065,3.045-3.067-3.067a.691.691,0,1,0-.977.977l3.063,3.063-3.039,3.019a.691.691,0,0,0,.974.98l3.042-3.022,3.044,3.044a.691.691,0,0,0,.977-.977l-3.04-3.04,3.062-3.042A.691.691,0,0,0,114.916,102.481Z" transform="translate(-101.716 -96.657)" fill="#dfa32a"/>
  </g>
</svg>
