<svg xmlns="http://www.w3.org/2000/svg" width="51.584" height="52.201" viewBox="0 0 51.584 52.201">
  <g id="Group_10328" data-name="Group 10328" transform="translate(-634.086 -358.827)">
    <g id="Group_9235" data-name="Group 9235" transform="translate(640.634 388.482)">
      <path id="Path_21433" data-name="Path 21433" d="M690.556,468.1H654.4a1.167,1.167,0,0,1-1.166-1.166V446.717a1.167,1.167,0,0,1,1.166-1.167h36.155a1.167,1.167,0,0,1,1.167,1.167V466.93A1.167,1.167,0,0,1,690.556,468.1Zm-34.988-2.333H689.39v-17.88H655.568Z" transform="translate(-653.235 -445.55)" fill="#fff"/>
    </g>
    <g id="Group_9236" data-name="Group 9236" transform="translate(634.086 379.657)">
      <path id="Path_21434" data-name="Path 21434" d="M684.5,430.9H635.253a1.167,1.167,0,0,1-1.167-1.166v-8.825a1.167,1.167,0,0,1,1.167-1.166H684.5a1.167,1.167,0,0,1,1.167,1.166v8.825A1.167,1.167,0,0,1,684.5,430.9Zm-48.084-2.333h46.918v-6.492H636.419Z" transform="translate(-634.086 -419.742)" fill="#fff"/>
    </g>
    <rect id="Rectangle_1293" data-name="Rectangle 1293" width="8.256" height="29.038" transform="translate(655.75 380.823)" fill="#fff"/>
    <g id="Group_9237" data-name="Group 9237" transform="translate(645.44 358.827)">
      <path id="Path_21435" data-name="Path 21435" d="M681.728,378.858a1.172,1.172,0,0,1-.4-.069c-8.764-3.161-13.344-7.575-14-13.5a5.63,5.63,0,0,1,3.567-6.045,6.5,6.5,0,0,1,7.644,2.379c3.286,4.481,4.307,15.492,4.349,15.958a1.166,1.166,0,0,1-1.162,1.271Zm-8.555-17.7a3.948,3.948,0,0,0-1.429.263,3.273,3.273,0,0,0-2.095,3.613c.506,4.56,4.012,8.129,10.7,10.875-.428-3.278-1.532-9.96-3.689-12.9A4.285,4.285,0,0,0,673.173,361.161Z" transform="translate(-667.29 -358.827)" fill="#fff"/>
    </g>
    <g id="Group_9238" data-name="Group 9238" transform="translate(640.634 372.255)">
      <path id="Path_21436" data-name="Path 21436" d="M667.923,405.894c-6.715,0-13.855-5.417-14.233-5.708a1.167,1.167,0,0,1,1.422-1.85c.1.08,10.551,8,16.758,4.2a1.167,1.167,0,0,1,1.218,1.99A9.727,9.727,0,0,1,667.923,405.894Z" transform="translate(-653.235 -398.095)" fill="#fff"/>
    </g>
    <g id="Group_9239" data-name="Group 9239" transform="translate(658.711 363.997)">
      <path id="Path_21437" data-name="Path 21437" d="M707.266,387.271a1.166,1.166,0,0,1-1.166-1.144c-.006-.324-.1-7.963,4.647-11.128a5.686,5.686,0,0,1,7.531.851,4.52,4.52,0,0,1,.582,5.907,16.185,16.185,0,0,1-11.589,5.514Zm6.778-10.982a3.582,3.582,0,0,0-2,.651c-2.717,1.811-3.39,5.864-3.555,7.911a14.165,14.165,0,0,0,8.539-4.534,2.25,2.25,0,0,0-.458-2.881A3.491,3.491,0,0,0,714.043,376.289Z" transform="translate(-706.098 -373.947)" fill="#fff"/>
    </g>
    <g id="Group_9240" data-name="Group 9240" transform="translate(658.711 370.832)">
      <path id="Path_21438" data-name="Path 21438" d="M713.619,402.6a11.779,11.779,0,0,1-7.037-2.4,1.167,1.167,0,0,1,1.371-1.888c3.436,2.495,7.222,2.619,11.254.367a20.265,20.265,0,0,0,5.232-4.314,1.167,1.167,0,1,1,1.812,1.47C723.927,398.7,719.086,402.6,713.619,402.6Z" transform="translate(-706.1 -393.934)" fill="#fff"/>
    </g>
  </g>
</svg>
