<svg id="phone-call" xmlns="http://www.w3.org/2000/svg" width="42" height="42" viewBox="0 0 42 42">
  <circle id="Ellipse_333" data-name="Ellipse 333" cx="21" cy="21" r="21" fill="#ffeecd"/>
  <g id="Group_10471" data-name="Group 10471" transform="translate(12 12)">
    <path id="Path_22927" data-name="Path 22927" d="M14.956,37.8a1.82,1.82,0,0,0-1.32-.605,1.882,1.882,0,0,0-1.336.6l-1.234,1.23c-.1-.055-.2-.105-.3-.156-.141-.07-.273-.137-.387-.207a13.414,13.414,0,0,1-3.214-2.929A7.914,7.914,0,0,1,6.11,34.069c.32-.293.617-.6.906-.89.109-.109.219-.223.328-.332a1.792,1.792,0,0,0,0-2.7L6.278,29.078c-.121-.121-.246-.246-.363-.371-.234-.242-.48-.492-.734-.726a1.849,1.849,0,0,0-1.308-.574,1.913,1.913,0,0,0-1.328.574l-.008.008-1.328,1.34a2.857,2.857,0,0,0-.848,1.816,6.847,6.847,0,0,0,.5,2.9,16.817,16.817,0,0,0,2.988,4.984,18.38,18.38,0,0,0,6.12,4.792,9.536,9.536,0,0,0,3.437,1.015c.082,0,.168.008.246.008a2.943,2.943,0,0,0,2.254-.969c0-.008.012-.012.016-.02a8.878,8.878,0,0,1,.683-.707c.168-.16.34-.328.508-.5a1.948,1.948,0,0,0,.59-1.351,1.877,1.877,0,0,0-.6-1.34Zm1.4,4.113s0,0,0,0c-.152.164-.309.312-.476.476a10.27,10.27,0,0,0-.754.781,1.883,1.883,0,0,1-1.469.621c-.059,0-.121,0-.18,0a8.471,8.471,0,0,1-3.046-.914,17.349,17.349,0,0,1-5.765-4.515,15.856,15.856,0,0,1-2.812-4.683,5.577,5.577,0,0,1-.437-2.445,1.793,1.793,0,0,1,.539-1.16l1.332-1.332a.888.888,0,0,1,.594-.277.835.835,0,0,1,.57.273l.012.012c.238.223.465.453.7.7.121.125.246.25.371.379L6.6,30.89a.745.745,0,0,1,0,1.211c-.113.113-.223.227-.336.336-.328.336-.641.648-.98.953-.008.008-.016.012-.02.02a.8.8,0,0,0-.2.887l.012.035a8.56,8.56,0,0,0,1.262,2.058l0,0a14.335,14.335,0,0,0,3.468,3.156,5.333,5.333,0,0,0,.48.262c.141.07.273.137.387.207.016.008.031.02.047.027a.847.847,0,0,0,.387.1.835.835,0,0,0,.594-.269l1.336-1.336a.884.884,0,0,1,.59-.293.8.8,0,0,1,.562.285l.008.008,2.152,2.152A.772.772,0,0,1,16.354,41.911Z" transform="translate(-0.344 -26.336)" fill="#000000"/>
    <path id="Path_22928" data-name="Path 22928" d="M245.378,86.971a5.026,5.026,0,0,1,4.093,4.093.524.524,0,0,0,.519.437.7.7,0,0,0,.09-.008.528.528,0,0,0,.434-.609,6.078,6.078,0,0,0-4.952-4.952.53.53,0,0,0-.609.43A.522.522,0,0,0,245.378,86.971Z" transform="translate(-235.391 -82.569)" fill="#000000"/>
    <path id="Path_22929" data-name="Path 22929" d="M257.543,8.163A10.008,10.008,0,0,0,249.388.008a.527.527,0,1,0-.172,1.039A8.939,8.939,0,0,1,256.5,8.335a.524.524,0,0,0,.519.437.7.7,0,0,0,.09-.008A.517.517,0,0,0,257.543,8.163Z" transform="translate(-239.073 0)" fill="#000000"/>
  </g>
</svg>
