<svg id="high-five" xmlns="http://www.w3.org/2000/svg" width="18" height="18" viewBox="0 0 18 18">
  <path id="Path_22507" data-name="Path 22507" d="M241.527,2.109a.527.527,0,0,0,.527-.527V.527a.527.527,0,1,0-1.055,0V1.582A.527.527,0,0,0,241.527,2.109Zm0,0" transform="translate(-232.527)" fill="#dfa32a"/>
  <path id="Path_22508" data-name="Path 22508" d="M301.9,31.955l1.055-1.055a.527.527,0,1,0-.746-.746l-1.055,1.055a.527.527,0,0,0,.746.746Zm0,0" transform="translate(-290.418 -28.945)" fill="#dfa32a"/>
  <path id="Path_22509" data-name="Path 22509" d="M152.21,31.955a.527.527,0,0,0,.746-.746L151.9,30.155a.527.527,0,0,0-.746.746Zm0,0" transform="translate(-145.692 -28.945)" fill="#dfa32a"/>
  <path id="Path_22510" data-name="Path 22510" d="M19.219,154.109a2.109,2.109,0,1,0-2.109,2.109A2.112,2.112,0,0,0,19.219,154.109Zm0,0" transform="translate(-14.473 -146.656)" fill="#000"/>
  <path id="Path_22511" data-name="Path 22511" d="M9,121a1.584,1.584,0,0,0-1.582,1.582,3.756,3.756,0,0,1-3.727,3.727H2.637A2.64,2.64,0,0,0,0,128.945v5.273a.527.527,0,0,0,.527.527H4.746a.521.521,0,0,0,.52-.527l0-4.931a6.91,6.91,0,0,0,5.313-6.706A1.584,1.584,0,0,0,9,121Zm0,0" transform="translate(0 -116.746)" fill="#000"/>
  <path id="Path_22512" data-name="Path 22512" d="M381.219,154.109a2.109,2.109,0,1,0-2.109,2.109A2.111,2.111,0,0,0,381.219,154.109Zm0,0" transform="translate(-363.746 -146.656)" fill="#000"/>
  <path id="Path_22513" data-name="Path 22513" d="M283.081,229.83h-1.055a3.777,3.777,0,0,1-2.99-1.537,7.8,7.8,0,0,1-1.564,2.923,7.073,7.073,0,0,0,2.976,1.592l0,4.932a.521.521,0,0,0,.52.527h4.219a.527.527,0,0,0,.527-.527v-5.273A2.64,2.64,0,0,0,283.081,229.83Zm0,0" transform="translate(-267.718 -220.267)" fill="#000"/>
</svg>
