<?xml version="1.0" encoding="utf-8"?>
<!-- Generator: Adobe Illustrator 25.4.1, SVG Export Plug-In . SVG Version: 6.00 Build 0)  -->
<svg version="1.1" id="Layer_1" xmlns="http://www.w3.org/2000/svg" xmlns:xlink="http://www.w3.org/1999/xlink" x="0px" y="0px"
	 viewBox="0 0 98.6 98.6" style="enable-background:new 0 0 98.6 98.6;" xml:space="preserve">
<g transform="translate(-374.736 -356.809)">
	<circle style="fill:#FFF;" cx="424" cy="406.1" r="49.3"/>
	<path style="fill:#27395E;" d="M461.7,431.5c-3.1-4.2-22.9-10.4-23.7-11.1c-1.3-1.4-2.5-2.9-3.6-4.4h-0.2v-4.1
		c1-1.3,1.9-2.7,2.7-4.2c0.5-1.5,0.9-3.1,1-4.8c3.2-1.5,3.6-6.7,3.8-9.6c0.1-1.7-0.9-1.6-1.8-1.1c0.5-10.7-2.2-13.7-3.5-14.5
		c0.8-2.1,0.8-4.3,0-6.4c-1.1-2.5-3.3-4.3-6-5c-4.9-1.7-10.9,0.5-10.9,0.5l0.6,1.4c-2.3-0.3-4.6,0.3-6.5,1.6l0.5,1.3
		c-1.4,0.5-2.8,1.2-4.1,2c-0.8,0.7,0.1,1.6,0.1,1.6c-2.5,1.2-0.4,7.3-0.4,7.3l-0.8-0.6c-1.6,1.4-1.1,7.1-0.7,10.9
		c-1-0.6-2.1-0.8-2,1c0.1,2.9,0.5,8.1,3.8,9.6c0.1,1.6,0.5,3.2,1,4.8c0.7,1.5,1.6,2.8,2.6,4.1v4.2h-0.2c-1.1,1.6-2.3,3-3.6,4.4
		c-0.9,0.7-20.6,6.9-23.7,11.1c-0.8,1.2-1.5,2.4-2,3.7c16.1,22,46.9,26.7,68.9,10.7c4.1-3,7.7-6.6,10.7-10.7
		C463.3,433.9,462.6,432.6,461.7,431.5z"/>
</g>
</svg>
