<svg xmlns="http://www.w3.org/2000/svg" width="16.875" height="20" viewBox="0 0 16.875 20">
  <g id="verified" transform="translate(-40 0)">
    <path id="Path_23097" data-name="Path 23097" d="M56.393,3.239,48.737.06a.781.781,0,0,0-.6,0L40.482,3.239A.781.781,0,0,0,40,3.96V7.824a13.083,13.083,0,0,0,8.142,12.118.781.781,0,0,0,.59,0A13.083,13.083,0,0,0,56.875,7.824V3.96A.781.781,0,0,0,56.393,3.239ZM55.313,7.824A11.523,11.523,0,0,1,48.438,18.37,11.524,11.524,0,0,1,41.563,7.824V4.482l6.875-2.854,6.875,2.854Zm-7.739,2.633L50.932,7.1a.781.781,0,1,1,1.1,1.1l-3.91,3.91a.781.781,0,0,1-1.1,0L44.838,9.932a.781.781,0,1,1,1.1-1.1Z" transform="translate(0 0)" fill="#dfa32a"/>
  </g>
</svg>
